<svg xmlns="http://www.w3.org/2000/svg" width="18" height="20" fill="currentColor" viewBox="0 0 18 20">
  <path d="M16.031 2.344h-2.93v-.586A1.76 1.76 0 0 0 11.345 0H6.656a1.76 1.76 0 0 0-1.758 1.758v.586h-2.93A1.76 1.76 0 0 0 .212 4.102c0 .778.509 1.44 1.211 1.67l1.045 12.616A1.768 1.768 0 0 0 4.22 20h9.562c.907 0 1.677-.708 1.752-1.612l1.045-12.616a1.76 1.76 0 0 0 1.211-1.67 1.76 1.76 0 0 0-1.758-1.758Zm-9.96-.586c0-.323.262-.586.585-.586h4.688c.323 0 .586.263.586.586v.586H6.07v-.586Zm8.294 16.533a.59.59 0 0 1-.584.537H4.22a.59.59 0 0 1-.584-.537L2.605 5.86h12.79l-1.03 12.432Zm1.666-13.604H1.97a.587.587 0 0 1 0-1.171h14.06a.587.587 0 0 1 0 1.171Z"/>
  <path d="M6.655 17.034 6.07 7.581a.587.587 0 0 0-1.17.072l.587 9.454a.586.586 0 1 0 1.17-.073ZM9 7.031a.586.586 0 0 0-.586.586v9.453a.586.586 0 0 0 1.172 0V7.617A.586.586 0 0 0 9 7.031Zm3.552.001a.586.586 0 0 0-.621.549l-.586 9.453a.586.586 0 0 0 1.17.073l.585-9.454a.586.586 0 0 0-.548-.62Z"/>
</svg>
