<svg width="38" height="40" viewBox="0 0 38 40" fill="none" xmlns="http://www.w3.org/2000/svg">
<path d="M37.6316 10.8248L27.4411 0.235781C27.296 0.0851562 27.0959 0 26.8868 0H11.6985C9.99875 0 8.61586 1.38234 8.61586 3.08141V13.8462H2.46063C1.18891 13.8462 0.154297 14.8805 0.154297 16.1519V27.6944C0.154297 28.9657 1.18891 30 2.46063 30H8.61586V36.924C8.61586 38.6201 9.99875 40 11.6985 40H34.764C36.4638 40 37.8466 38.6209 37.8466 36.9257V11.3582C37.8466 11.1593 37.7695 10.9681 37.6316 10.8248ZM27.0774 2.07664L35.443 10.7692H27.0774V2.07664ZM2.46063 28.4616C2.03719 28.4616 1.69281 28.1174 1.69281 27.6944V16.1519C1.69281 15.7288 2.03727 15.3846 2.46063 15.3846H23.2326C23.6559 15.3846 24.0005 15.7288 24.0005 16.1519V27.6944C24.0005 28.1174 23.6559 28.4616 23.2326 28.4616H2.46063ZM36.3081 36.9257C36.3081 37.7726 35.6154 38.4616 34.7639 38.4616H11.6985C10.847 38.4616 10.1543 37.7719 10.1543 36.9241V30H23.2325C24.5043 30 25.5389 28.9657 25.5389 27.6944V16.1519C25.5389 14.8805 24.5043 13.8462 23.2325 13.8462H10.1543V3.08141C10.1543 2.23055 10.847 1.53844 11.6985 1.53844H25.5389V11.5384C25.5389 11.9633 25.8834 12.3077 26.3081 12.3077H36.3081V36.9257Z" fill="#3F3F40"/>
<path d="M8.32086 20.5821C8.17664 20.16 7.96648 19.8033 7.68992 19.5117C7.41359 19.2202 7.08148 19.0175 6.69383 18.9033C6.40539 18.819 5.98633 18.7771 5.43633 18.7771H2.99805V25.3846H5.50844C6.00133 25.3846 6.395 25.3381 6.68937 25.2448C7.08305 25.1186 7.39555 24.9428 7.62687 24.7175C7.93344 24.42 8.16922 24.0309 8.33461 23.5501C8.46977 23.1565 8.53726 22.6879 8.53726 22.1438C8.53719 21.525 8.46508 21.0044 8.32086 20.5821ZM7.02273 23.2955C6.93273 23.5916 6.81617 23.804 6.67352 23.9332C6.53078 24.0624 6.35117 24.1542 6.13484 24.2082C5.96969 24.2503 5.70062 24.2712 5.32812 24.2712H4.33203V19.8947H4.93141C5.47547 19.8947 5.84047 19.9157 6.0268 19.9578C6.27625 20.012 6.48203 20.1157 6.6443 20.2687C6.80641 20.422 6.93273 20.6355 7.02273 20.909C7.11289 21.1823 7.15812 21.5744 7.15812 22.0853C7.1582 22.5962 7.11297 22.9996 7.02273 23.2955Z" fill="#1466B9"/>
<path d="M21.0764 22.9552C20.9651 23.439 20.7818 23.7937 20.5264 24.0189C20.2711 24.2443 19.9661 24.357 19.6114 24.357C19.1307 24.357 18.7401 24.1797 18.4397 23.8253C18.1392 23.4707 17.9889 22.8756 17.9889 22.0403C17.9889 21.2532 18.1414 20.6837 18.4464 20.3322C18.7514 19.9805 19.1488 19.8047 19.6386 19.8047C19.9932 19.8047 20.2943 19.9039 20.5422 20.1022C20.7901 20.3006 20.9532 20.571 21.0313 20.9135L22.3519 20.5979C22.2018 20.069 21.9764 19.6635 21.676 19.381C21.1711 18.9033 20.5146 18.6644 19.7064 18.6644C18.7807 18.6644 18.034 18.9686 17.4662 19.5772C16.8983 20.1857 16.6143 21.0397 16.6143 22.1394C16.6143 23.179 16.8968 23.9986 17.4618 24.5981C18.0265 25.1976 18.7477 25.4973 19.6252 25.4973C20.3342 25.4973 20.9194 25.3223 21.3807 24.9722C21.8419 24.6222 22.1717 24.0866 22.37 23.3654L21.0764 22.9552Z" fill="#1466B9"/>
<path d="M14.9311 19.5704C14.3465 18.9664 13.5677 18.6644 12.594 18.6644C12.0561 18.6644 11.5815 18.7515 11.1698 18.9258C10.8603 19.055 10.5755 19.2533 10.3157 19.5208C10.0557 19.788 9.8507 20.0901 9.70031 20.4267C9.49898 20.8834 9.39844 21.4483 9.39844 22.1213C9.39844 23.173 9.68844 23.9986 10.2682 24.598C10.8482 25.1975 11.6296 25.4972 12.6121 25.4972C13.5827 25.4972 14.3579 25.1961 14.9379 24.5936C15.5177 23.9911 15.8077 23.1565 15.8077 22.0897C15.8077 21.014 15.5155 20.1743 14.9311 19.5704ZM13.9169 23.7824C13.5759 24.1654 13.1394 24.357 12.6074 24.357C12.0757 24.357 11.637 24.164 11.2915 23.7779C10.9459 23.3918 10.773 22.8247 10.773 22.0765C10.773 21.3162 10.9413 20.7476 11.2778 20.3704C11.6144 19.9933 12.0577 19.8047 12.6074 19.8047C13.1574 19.8047 13.5984 19.991 13.9303 20.3637C14.2624 20.7362 14.4284 21.3012 14.4284 22.0583C14.4284 22.8247 14.258 23.3993 13.9169 23.7824Z" fill="#1466B9"/>
</svg>
