<svg xmlns="http://www.w3.org/2000/svg" width="14" height="11" fill="currentColor" viewBox="0 0 14 11">
  <path fill-rule="evenodd" d="m1.838 1.065 4.527 4.474a.905.905 0 0 0 1.27 0l4.527-4.474H1.838Zm11.085.752v7.941c0 .098-.08.177-.18.177H1.257a.179.179 0 0 1-.18-.177v-7.94l4.528 4.474a1.99 1.99 0 0 0 2.792 0l4.527-4.475ZM.368.364C.595.14.91 0 1.256 0h11.488c.346 0 .661.14.888.364.227.224.368.535.368.878v8.516A1.25 1.25 0 0 1 12.744 11H1.256A1.25 1.25 0 0 1 0 9.758V1.242C0 .899.141.588.368.364Z" clip-rule="evenodd"/>
</svg>
