<svg width="20" height="18" viewBox="0 0 20 18" xmlns="http://www.w3.org/2000/svg">
  <path d="M0.00383165 5.61803C0.0689558 5.22317 0.107264 4.82443 0.206865 4.43731C0.73169 2.40879 1.90776 0.926111 3.91511 0.287359C6.06038 -0.397848 7.92983 0.155737 9.47748 1.80488C9.66136 1.99844 9.82226 2.21136 10.0023 2.42815C10.1785 2.2191 10.3394 2.01005 10.5195 1.81262C11.3737 0.883527 12.3927 0.237033 13.6531 0.0744414C15.5992 -0.177188 17.2656 0.422852 18.5451 1.9365C19.8246 3.45015 20.2 5.23865 19.905 7.18201C19.7173 8.41306 19.1618 9.48539 18.434 10.4725C17.4801 11.7694 16.3155 12.8611 15.1165 13.9179C13.7029 15.1606 12.2778 16.3955 10.8566 17.6304C10.3088 18.1066 9.72266 18.126 9.19783 17.6692C7.34371 16.0432 5.48575 14.4251 3.65462 12.7721C2.72372 11.9359 1.89243 10.999 1.20671 9.93832C0.563133 8.93567 0.130249 7.8556 0.0306474 6.65552C0.0268165 6.60907 0.0114925 6.56648 0 6.5239C0.00383083 6.22195 0.00383165 5.91999 0.00383165 5.61803ZM9.99848 16.8059C10.0483 16.7672 10.0904 16.7362 10.1287 16.7013C11.7109 15.3193 13.3007 13.9489 14.8675 12.5553C15.9631 11.5797 17.0051 10.5461 17.8134 9.30731C18.5872 8.12659 18.9665 6.84134 18.7902 5.41673C18.5987 3.87985 17.9475 2.60622 16.599 1.80488C15.3425 1.05773 14.0132 0.964823 12.6801 1.61519C11.8909 1.99844 11.3086 2.62171 10.8183 3.34563C10.7493 3.45015 10.6842 3.55854 10.6114 3.65919C10.2896 4.10439 9.715 4.10051 9.38937 3.66307C9.10589 3.27981 8.8454 2.87334 8.51977 2.52493C7.47396 1.40614 6.17913 0.972565 4.68894 1.29775C3.07999 1.65003 2.02268 2.67978 1.49019 4.22826C0.869599 6.02838 1.16457 7.72398 2.19124 9.30344C2.82716 10.2829 3.60865 11.1423 4.46675 11.9204C5.88416 13.2095 7.33221 14.4677 8.76495 15.7335C9.17485 16.0936 9.58475 16.4458 9.99848 16.8059Z" />
</svg>
