<svg xmlns="http://www.w3.org/2000/svg" width="23" height="23" viewBox="0 0 23 23">
  <path fill-rule="evenodd" d="M11.605.37a1 1 0 0 1 1 1v12.743l3.346-3.346a1 1 0 0 1 1.414 1.415l-5.053 5.052a1 1 0 0 1-1.414 0l-5.052-5.053a1 1 0 1 1 1.414-1.414l3.345 3.346V1.369a1 1 0 0 1 1-1ZM1.5 15.526a1 1 0 0 1 1 1v1.263a2.79 2.79 0 0 0 2.79 2.79h12.63a2.79 2.79 0 0 0 2.79-2.79v-1.263a1 1 0 1 1 2 0v1.263a4.79 4.79 0 0 1-4.79 4.79H5.29A4.79 4.79 0 0 1 .5 17.79v-1.263a1 1 0 0 1 1-1Z" clip-rule="evenodd"/>
</svg>
