<svg width="23" height="12" viewBox="0 0 23 12" fill="none" xmlns="http://www.w3.org/2000/svg">
<path fill-rule="evenodd" clip-rule="evenodd" d="M22.5136 0.066361C22.9208 0.244361 23.1094 0.725345 22.935 1.14067L22.1975 0.818376C22.935 1.14067 22.935 1.14067 22.935 1.14067L22.9342 1.1425L22.933 1.14522L22.9296 1.15325L22.9182 1.1795C22.9085 1.20147 22.8948 1.23225 22.8771 1.27118C22.8415 1.34902 22.7895 1.45955 22.7205 1.59745C22.5826 1.87306 22.3767 2.25909 22.0996 2.71267C21.6443 3.45779 20.9913 4.39388 20.1243 5.32398L21.1602 6.38028C21.4734 6.69981 21.4734 7.21787 21.1602 7.53739C20.8469 7.85691 20.3389 7.85691 20.0255 7.53739L18.9551 6.44585C18.2494 7.04878 17.4401 7.61463 16.5225 8.07956L17.5212 9.64477C17.7629 10.0234 17.6577 10.5302 17.2863 10.7767C16.9149 11.0231 16.4179 10.9159 16.1762 10.5371L15.011 8.71108C14.1773 8.98871 13.2747 9.17743 12.3022 9.24507V11.1818C12.3022 11.6337 11.9429 12 11.4998 12C11.0567 12 10.6975 11.6337 10.6975 11.1818V9.24507C9.75505 9.17951 8.87805 9.00027 8.06581 8.7365L6.91682 10.5372C6.67515 10.916 6.17816 11.0232 5.80674 10.7768C5.43534 10.5304 5.33017 10.0235 5.57182 9.64477L6.5479 8.11513C5.62321 7.65455 4.80731 7.09122 4.0955 6.48905L3.06748 7.53739C2.75416 7.85691 2.24616 7.85691 1.93283 7.53739C1.6195 7.21787 1.6195 6.69991 1.93283 6.38039L2.92104 5.37263C2.03896 4.43479 1.37491 3.4873 0.912263 2.73253C0.63099 2.27367 0.42213 1.8827 0.28229 1.60348C0.212328 1.46378 0.159503 1.35177 0.12342 1.27288C0.105373 1.23344 0.0914983 1.20224 0.0817421 1.17998L0.0701992 1.15339L0.0667332 1.14526L0.0655673 1.14252L0.0651286 1.14149C0.0651286 1.14149 0.0647863 1.14067 0.802238 0.818376L0.0651286 1.14149C-0.109414 0.726152 0.0789072 0.244361 0.486187 0.066361C0.893135 -0.111487 1.36437 0.0804445 1.53926 0.495059L1.54028 0.497447L1.54678 0.512414C1.55308 0.526803 1.56335 0.549919 1.5776 0.581086C1.60613 0.643441 1.6506 0.737923 1.71136 0.859263C1.83299 1.10212 2.01931 1.45139 2.27295 1.86519C2.78174 2.69523 3.55329 3.77151 4.60598 4.76915C5.53229 5.64699 6.66739 6.45567 8.02498 6.98824C9.04606 7.38881 10.2006 7.63644 11.4998 7.63644C12.8282 7.63644 14.0053 7.37768 15.0434 6.96096C16.3928 6.41934 17.5202 5.60543 18.4391 4.72595C19.4763 3.7332 20.2365 2.66761 20.7378 1.84731C20.9877 1.43834 21.1711 1.09357 21.2909 0.854015C21.3508 0.734334 21.3946 0.641183 21.4227 0.579744C21.4367 0.549024 21.4469 0.526269 21.4531 0.512098L21.4594 0.497393L21.4601 0.496084M22.5136 0.066361C22.1063 -0.111585 21.6347 0.0809789 21.4601 0.496084L22.5136 0.066361Z" fill="#9F9FA0"/>
</svg>
