<svg width="26" height="26" viewBox="0 0 26 26" fill="none" xmlns="http://www.w3.org/2000/svg">
<path fill-rule="evenodd" clip-rule="evenodd" d="M13 8.9375C10.7563 8.9375 8.9375 10.7563 8.9375 13C8.9375 15.2437 10.7563 17.0625 13 17.0625C15.2437 17.0625 17.0625 15.2437 17.0625 13C17.0625 10.7563 15.2437 8.9375 13 8.9375ZM10.5625 13C10.5625 11.6538 11.6538 10.5625 13 10.5625C14.3461 10.5625 15.4375 11.6538 15.4375 13C15.4375 14.3461 14.3461 15.4375 13 15.4375C11.6538 15.4375 10.5625 14.3461 10.5625 13Z" fill="#9F9FA0"/>
<path fill-rule="evenodd" clip-rule="evenodd" d="M12.9974 3.52075C8.10709 3.52075 4.81313 6.4503 2.90135 8.93402L2.86686 8.9788C2.43451 9.54033 2.03629 10.0575 1.76614 10.669C1.47684 11.3239 1.35156 12.0376 1.35156 12.9999C1.35156 13.9622 1.47684 14.6759 1.76614 15.3308C2.03629 15.9424 2.43451 16.4595 2.86688 17.021L2.90135 17.0658C4.81313 19.5495 8.10709 22.4791 12.9974 22.4791C17.8877 22.4791 21.1817 19.5495 23.0934 17.0658L23.1279 17.021C23.5603 16.4595 23.9585 15.9424 24.2286 15.3308C24.518 14.6759 24.6432 13.9622 24.6432 12.9999C24.6432 12.0376 24.518 11.3239 24.2286 10.669C23.9585 10.0575 23.5603 9.54032 23.1279 8.97878L23.0934 8.93402C21.1817 6.4503 17.8877 3.52075 12.9974 3.52075ZM4.18905 9.9252C5.95426 7.63192 8.82695 5.14575 12.9974 5.14575C17.1678 5.14575 20.0406 7.63192 21.8058 9.9252C22.2809 10.5425 22.5592 10.9114 22.7422 11.3256C22.9134 11.7129 23.0182 12.1862 23.0182 12.9999C23.0182 13.8136 22.9134 14.2869 22.7422 14.6742C22.5592 15.0885 22.2809 15.4574 21.8058 16.0746C20.0406 18.3679 17.1678 20.8541 12.9974 20.8541C8.82695 20.8541 5.95426 18.3679 4.18905 16.0746C3.71392 15.4574 3.43561 15.0885 3.25255 14.6742C3.08147 14.2869 2.97656 13.8136 2.97656 12.9999C2.97656 12.1862 3.08147 11.7129 3.25255 11.3256C3.43561 10.9114 3.71391 10.5425 4.18905 9.9252Z" fill="#9F9FA0"/>
</svg>
