<svg width="13" height="13" viewBox="0 0 13 13" fill="none" xmlns="http://www.w3.org/2000/svg">
<path d="M3.96665 0.5L4.07212 0.503906C4.31708 0.522908 4.55352 0.60624 4.75767 0.745117C4.9906 0.903632 5.1708 1.12798 5.27524 1.38965L5.73521 2.54199L5.77036 2.63867C5.8451 2.86891 5.86022 3.11506 5.81235 3.35352C5.75767 3.62587 5.62361 3.87641 5.42759 4.07324L4.67075 4.8291C4.68961 4.9061 4.71447 4.99963 4.74692 5.10547C4.84648 5.43009 5.01355 5.86617 5.28403 6.3125C5.79376 7.15356 6.66248 8.02426 8.15903 8.28418L8.92954 7.51465L9.08579 7.38086C9.25134 7.25886 9.44233 7.1735 9.64536 7.13184C9.84818 7.09027 10.0567 7.09378 10.2567 7.14062L10.453 7.20215L10.4559 7.20312L11.6102 7.66406L11.6131 7.66504L11.7088 7.70801C11.9278 7.81641 12.1157 7.97964 12.2538 8.18262C12.4116 8.41481 12.4973 8.68899 12.4999 8.96973V11.0938C12.4983 11.2847 12.458 11.4733 12.3817 11.6484C12.3052 11.8238 12.1937 11.982 12.0545 12.1133C11.9154 12.2445 11.7516 12.347 11.5721 12.4131C11.4374 12.4627 11.296 12.4909 11.1532 12.498H11.0047C6.79746 12.2362 4.23136 10.3101 2.69224 8.08887C1.16878 5.89007 0.667692 3.42939 0.508643 2.07812V2.0752C0.486522 1.87636 0.507034 1.67485 0.568213 1.48438C0.629458 1.29383 0.730213 1.11752 0.864112 0.96875C0.997888 0.820222 1.16175 0.701901 1.34458 0.621094C1.52662 0.540683 1.72373 0.50024 1.92271 0.500977L3.96665 0.5ZM1.83286 1.50879C1.80414 1.51474 1.77587 1.52325 1.74888 1.53516C1.69496 1.55897 1.64674 1.59483 1.60728 1.63867C1.56792 1.68245 1.5384 1.73396 1.52036 1.79004C1.50233 1.84613 1.49631 1.9053 1.50278 1.96387C1.65279 3.23595 2.1224 5.51173 3.51353 7.51953C4.8893 9.50513 7.18247 11.2559 11.0604 11.499C11.1165 11.5018 11.1737 11.494 11.2264 11.4746C11.2793 11.4551 11.328 11.4244 11.369 11.3857C11.4098 11.3471 11.4422 11.3006 11.4647 11.249C11.4868 11.1984 11.499 11.1441 11.4999 11.0889V8.97852L11.495 8.91699C11.4853 8.85561 11.4618 8.7969 11.4266 8.74512C11.3798 8.67623 11.3133 8.62311 11.2362 8.5918L10.0848 8.13086C10.009 8.10185 9.92508 8.09501 9.84556 8.11133C9.76506 8.12793 9.69123 8.16782 9.63267 8.22559L8.5145 9.34375L8.27134 9.31348C6.25254 9.06146 5.0817 7.90623 4.42954 6.83008C4.10601 6.29619 3.90803 5.78049 3.79087 5.39844C3.73216 5.20698 3.6925 5.04746 3.66782 4.93359C3.65548 4.87662 3.64732 4.83045 3.64146 4.79785C3.63852 4.78155 3.63619 4.76838 3.63462 4.75879C3.63384 4.75404 3.63314 4.75009 3.63267 4.74707C3.63244 4.74558 3.63185 4.74422 3.63169 4.74316V4.74121L3.59458 4.49219L4.71958 3.36621C4.77652 3.30874 4.81594 3.23565 4.83189 3.15625C4.84379 3.09657 4.84235 3.03519 4.82798 2.97656L4.80942 2.91895L4.80747 2.91602L4.34653 1.76074C4.31596 1.68403 4.26337 1.61769 4.19517 1.57129C4.14403 1.53653 4.08583 1.51415 4.02524 1.50488L3.96372 1.5H1.91978L1.83286 1.50879Z" fill="#1466B9"/>
</svg>
