<svg width="17" height="17" viewBox="0 0 17 17" xmlns="http://www.w3.org/2000/svg">
  <path fill-rule="evenodd" clip-rule="evenodd" d="M11.4911 12.5636C10.3055 13.5244 8.7949 14.1001 7.1499 14.1001C3.33936 14.1001 0.25 11.0107 0.25 7.19995C0.25 3.3894 3.33936 0.300049 7.1499 0.300049C10.9607 0.300049 14.05 3.3894 14.05 7.19995C14.05 8.82536 13.488 10.3195 12.5477 11.4987L16.06 15.0111L14.9994 16.0718L11.4911 12.5636ZM12.5 7.15015C12.5 10.1047 10.1047 12.5 7.15015 12.5C4.19531 12.5 1.80005 10.1047 1.80005 7.15015C1.80005 4.19531 4.19531 1.80005 7.15015 1.80005C10.1047 1.80005 12.5 4.19531 12.5 7.15015Z" />
</svg>
