<svg width="20" height="20" viewBox="0 0 20 20" fill="none" xmlns="http://www.w3.org/2000/svg">
  <path fill-rule="evenodd" clip-rule="evenodd" d="M13.55 8.3501C13.55 10.3105 11.9604 11.9001 10 11.9001C8.03931 11.9001 6.44995 10.3105 6.44995 8.3501C6.44995 6.3894 8.03931 4.80005 10 4.80005C11.9604 4.80005 13.55 6.3894 13.55 8.3501ZM12.05 8.30005C12.05 9.43213 11.1321 10.3501 10 10.3501C8.86768 10.3501 7.94995 9.43213 7.94995 8.30005C7.94995 7.16772 8.86768 6.25 10 6.25C11.1321 6.25 12.05 7.16772 12.05 8.30005Z" />
  <path fill-rule="evenodd" clip-rule="evenodd" d="M10 19.7C15.3572 19.7 19.7 15.3572 19.7 10C19.7 4.64282 15.3572 0.300049 10 0.300049C4.64282 0.300049 0.300049 4.64282 0.300049 10C0.300049 15.3572 4.64282 19.7 10 19.7ZM9.94995 18.2C11.6673 18.2 13.2621 17.6752 14.5828 16.7773C13.3429 15.7313 11.746 15.1001 10 15.1001C8.23328 15.1001 6.6193 15.7463 5.37336 16.8152C6.68294 17.69 8.25688 18.2 9.94995 18.2ZM10 13.6001C12.2151 13.6001 14.2313 14.4399 15.7564 15.8106C17.2653 14.3156 18.2 12.2419 18.2 9.94995C18.2 5.39355 14.5063 1.69995 9.94995 1.69995C5.39355 1.69995 1.69995 5.39355 1.69995 9.94995C1.69995 12.2663 2.65457 14.3597 4.19186 15.8582C5.72301 14.459 7.75984 13.6001 10 13.6001Z" />
</svg>
