<svg width="256" height="252" viewBox="0 0 256 252" fill="none" xmlns="http://www.w3.org/2000/svg">
<path fill-rule="evenodd" clip-rule="evenodd" d="M38.3072 217.781L41.9717 212.877V212.558H41.0157V211.868H44.6802V212.558H43.7242V219.374H44.6802V220.064H41.0157V219.374H41.9717V214.01L38.3072 218.931V219.374H39.2631V220.064H35.5986V219.374H36.5546V212.558H35.5986V211.868H39.2631V212.558H38.3072V217.781ZM48.3624 216.046V219.356H49.3183V220.047H45.6538V219.356H46.6098V212.541H45.6538V211.85H49.3183V212.541H48.3624V215.355H52.0269V212.541H51.0709V211.85H54.7354V212.541H53.7794V219.356H54.7354V220.047H51.0709V219.356H52.0269V216.046H48.3624ZM62.9849 211.833V214.152H62.2945C62.2591 213.638 62.029 213.231 61.6218 212.895C61.1969 212.576 60.719 212.399 60.1879 212.399C59.4975 212.399 58.8779 212.7 58.3114 213.284C57.7449 213.868 57.4793 214.807 57.4793 216.117C57.4793 217.037 57.7272 217.834 58.2229 218.489C58.7185 219.144 59.4266 219.48 60.3472 219.48C60.8252 219.48 61.25 219.374 61.6218 219.161C61.9936 218.949 62.3299 218.648 62.6132 218.276L63.2151 218.754C62.7902 219.179 62.3299 219.516 61.8165 219.781C61.3031 220.047 60.719 220.188 60.0639 220.188C58.807 220.188 57.7272 219.799 56.8066 219.02C55.8861 218.241 55.4435 217.232 55.4435 215.993C55.4435 214.753 55.8684 213.674 56.7181 212.895C57.5679 212.116 58.6477 211.726 59.94 211.726C60.1879 211.726 60.418 211.744 60.6127 211.797C60.8252 211.85 61.0199 211.921 61.2323 212.01C61.3563 212.063 61.4802 212.133 61.6041 212.204C61.728 212.275 61.8519 212.364 61.9936 212.452L62.3653 211.815H62.9849V211.833ZM69.234 220.064H65.5695V219.374H66.5255V212.558H64.5605V213.408H63.7992V211.868H71.0043V213.408H70.2431V212.558H68.2781V219.374H69.234V220.064ZM74.4032 216.931V219.374H75.3769V220.064H71.6947V219.374H72.6507V212.558H71.6947V211.868H74.7573C74.9343 211.868 75.1291 211.868 75.3238 211.868C75.5185 211.868 75.731 211.903 75.9257 211.921C76.5099 212.01 77.0587 212.204 77.5366 212.558C78.0323 212.895 78.2625 213.479 78.2625 214.329C78.2625 215.019 78.0146 215.621 77.5189 216.152C77.0233 216.665 76.0673 216.931 74.6688 216.913H74.3855L74.4032 216.931ZM74.4032 212.558V216.311H74.5095C74.5095 216.311 74.5449 216.311 74.5626 216.311H74.6334C74.7219 216.311 74.8458 216.311 74.952 216.294C75.0583 216.294 75.1822 216.258 75.3061 216.223C75.6247 216.134 75.908 215.94 76.1735 215.656C76.4391 215.373 76.563 214.895 76.563 214.258C76.563 213.709 76.4214 213.32 76.1558 213.072C75.8726 212.824 75.5716 212.665 75.253 212.594C75.1468 212.576 75.0406 212.558 74.9343 212.541C74.8281 212.541 74.7219 212.541 74.6334 212.541H74.5272C74.5272 212.541 74.4918 212.541 74.4741 212.541H74.4209L74.4032 212.558ZM83.1661 216.329L84.8479 212.558H83.9097V211.868H86.4412V212.558H85.5383L82.7413 218.861C82.7413 218.861 82.6882 218.984 82.6528 219.038C82.6174 219.108 82.5997 219.161 82.5643 219.232C82.458 219.462 82.2987 219.693 82.104 219.887C81.9092 220.082 81.6083 220.188 81.2188 220.188C81.148 220.188 81.0772 220.188 81.0064 220.188C80.9356 220.188 80.8648 220.188 80.794 220.171C80.6878 220.153 80.5638 220.117 80.4576 220.082C80.3514 220.047 80.2452 220.011 80.139 219.94L80.6346 218.807C80.6346 218.807 80.6877 218.843 80.7232 218.878C80.7586 218.914 80.794 218.931 80.8471 218.967C80.9179 219.02 81.0064 219.055 81.0949 219.108C81.1834 219.144 81.2897 219.179 81.3782 219.179H81.449C81.6437 219.179 81.7853 219.126 81.8738 219.038C81.9801 218.949 82.0509 218.843 82.104 218.737C82.104 218.737 82.104 218.701 82.1217 218.701V218.666L82.2456 218.365L79.2538 212.576H78.5103V211.886H81.9801V212.576H81.0064L82.9537 216.347L83.0068 216.665H83.0776L83.113 216.347L83.1661 216.329ZM92.3893 217.568L95.2572 211.868H97.9126V212.558H96.9567V219.374H97.9126V220.064H94.3012V219.374H95.2572V213.532L92.3893 219.321H91.4688L88.5655 213.532V219.374H89.5215V220.064H86.9546V219.374H87.9105V212.558H86.9546V211.868H89.5392L92.3893 217.568ZM98.904 219.374H99.8599V212.558H98.904V211.868H105.277V213.479H104.622V212.682H101.613V215.355H104.179V214.453H104.817V216.896H104.179V216.046H101.613V219.232H104.888V218.294H105.525V220.047H98.9217V219.356L98.904 219.374ZM109.172 216.063V219.374H110.128V220.064H106.463V219.374H107.419V212.558H106.463V211.868H110.128V212.558H109.172V215.373H112.836V212.558H111.88V211.868H115.545V212.558H114.589V219.374H115.545V220.064H111.88V219.374H112.836V216.063H109.172ZM121.652 220.064H117.988V219.374H118.944V212.558H116.979V213.408H116.217V211.868H123.422V213.408H122.661V212.558H120.696V219.374H121.652V220.064ZM129.07 217.798H125.476L124.856 219.374H125.741V220.064H123.263V219.374H124.184L127.229 211.868H128.238L131.583 219.374H132.504V220.064H128.804V219.374H129.76L129.07 217.798ZM127.14 213.674L125.741 217.143H128.804L127.282 213.674L127.246 213.408H127.175L127.14 213.674ZM136.363 213.674L136.292 214.01L134.31 219.144C134.31 219.144 134.274 219.25 134.239 219.303C134.221 219.356 134.186 219.409 134.168 219.462C134.08 219.639 133.956 219.799 133.779 219.958C133.602 220.1 133.354 220.171 133.035 220.171C132.929 220.171 132.805 220.171 132.699 220.135C132.592 220.117 132.486 220.1 132.398 220.082C132.345 220.082 132.309 220.047 132.256 220.047C132.221 220.047 132.185 220.047 132.15 220.029L132.734 218.701C132.734 218.701 132.823 218.772 132.876 218.79C132.929 218.825 132.982 218.843 133.035 218.861C133.07 218.861 133.106 218.861 133.141 218.878C133.177 218.878 133.212 218.878 133.247 218.878C133.389 218.878 133.513 218.825 133.602 218.701C133.69 218.595 133.779 218.471 133.832 218.329C133.832 218.329 133.832 218.329 133.832 218.312L136.115 212.541H135.195V211.85H137.425L140.222 219.356H141.037V220.047H137.496V219.356H138.434L136.452 213.992L136.399 213.656H136.328L136.363 213.674ZM142.541 219.356V212.541H141.586V211.85H145.25V212.541H144.294V215.338H145.339C146.277 215.338 147.003 215.532 147.551 215.922C148.1 216.311 148.366 216.878 148.366 217.621C148.366 218.223 148.136 218.772 147.675 219.285C147.215 219.781 146.294 220.047 144.914 220.047H141.603V219.356H142.559H142.541ZM144.294 219.356H144.914C145.392 219.356 145.781 219.197 146.1 218.861C146.418 218.524 146.56 218.117 146.56 217.639C146.56 217.586 146.56 217.551 146.56 217.497C146.56 217.462 146.56 217.409 146.56 217.356C146.507 217.019 146.348 216.718 146.082 216.435C145.816 216.152 145.374 216.01 144.79 216.01H144.312V219.339L144.294 219.356ZM151.835 216.046V219.356H152.791V220.047H149.127V219.356H150.083V212.541H149.127V211.85H152.791V212.541H151.835V215.355H155.5V212.541H154.544V211.85H158.208V212.541H157.253V219.356H158.208V220.047H154.544V219.356H155.5V216.046H151.835ZM160.191 219.356V212.541H159.235V211.85H162.9V212.541H161.944V215.338H163.059C163.059 215.338 163.289 215.338 163.59 215.373C163.891 215.391 164.21 215.462 164.546 215.603C164.936 215.727 165.272 215.957 165.591 216.276C165.909 216.595 166.069 217.037 166.069 217.639C166.069 218.383 165.803 218.967 165.254 219.409C164.705 219.834 163.838 220.064 162.634 220.064H159.253V219.374H160.209L160.191 219.356ZM161.944 219.356H162.634C163.13 219.356 163.519 219.197 163.838 218.861C164.139 218.524 164.298 218.117 164.298 217.639C164.298 217.586 164.298 217.48 164.263 217.338C164.245 217.179 164.192 217.019 164.104 216.842C163.997 216.63 163.803 216.453 163.572 216.276C163.325 216.099 162.971 216.01 162.51 216.01H161.944V219.339V219.356ZM167.485 219.356V212.541H166.529V211.85H170.193V212.541H169.237V219.356H170.193V220.047H166.529V219.356H167.485ZM173.893 217.763L177.558 212.859V212.541H176.602V211.85H180.266V212.541H179.31V219.356H180.266V220.047H176.602V219.356H177.558V213.992L173.893 218.914V219.356H174.849V220.047H171.185V219.356H172.141V212.541H171.185V211.85H174.849V212.541H173.893V217.763ZM177.823 209.513V209.549V209.584V209.673C177.823 210.133 177.664 210.452 177.345 210.611C177.027 210.788 176.69 210.894 176.318 210.93C176.212 210.93 176.106 210.93 176 210.947C175.894 210.947 175.805 210.947 175.699 210.947C175.593 210.947 175.451 210.947 175.309 210.947C175.168 210.947 175.008 210.93 174.867 210.912C174.548 210.859 174.247 210.753 173.982 210.576C173.716 210.399 173.575 210.098 173.575 209.673V209.637C173.575 209.637 173.575 209.62 173.575 209.602V209.531H174.867C174.867 209.531 174.849 209.62 174.831 209.673C174.831 209.726 174.814 209.761 174.814 209.814V209.867C174.814 210.009 174.902 210.133 175.008 210.239C175.132 210.345 175.345 210.416 175.681 210.416C175.734 210.416 175.787 210.416 175.84 210.416C175.894 210.416 175.964 210.416 176.035 210.381C176.159 210.363 176.283 210.31 176.389 210.222C176.495 210.133 176.549 209.991 176.549 209.797C176.549 209.761 176.549 209.708 176.549 209.673C176.549 209.62 176.549 209.584 176.513 209.531H177.788L177.823 209.513ZM187.648 215.975V215.373H188.02C188.569 215.373 188.994 215.196 189.242 214.86C189.507 214.506 189.649 214.116 189.649 213.674C189.649 213.249 189.507 212.948 189.224 212.753C188.941 212.558 188.622 212.452 188.286 212.434C188.25 212.434 188.215 212.434 188.197 212.434H188.109C187.666 212.434 187.294 212.576 187.011 212.877C186.728 213.16 186.568 213.532 186.551 213.992H185.896V212.063H186.551L186.763 212.523C186.763 212.523 186.852 212.434 186.922 212.364C186.993 212.293 187.082 212.222 187.206 212.151C187.365 212.045 187.577 211.956 187.861 211.868C188.126 211.779 188.463 211.744 188.87 211.744C189.011 211.744 189.171 211.744 189.348 211.779C189.525 211.797 189.702 211.832 189.879 211.903C190.251 212.01 190.605 212.204 190.906 212.47C191.207 212.735 191.366 213.125 191.366 213.62C191.366 213.744 191.366 213.868 191.366 214.01C191.366 214.152 191.33 214.293 191.277 214.435C191.207 214.647 191.065 214.86 190.87 215.054C190.675 215.249 190.375 215.426 189.985 215.568H189.666V215.656L189.967 215.692C190.481 215.798 190.852 215.94 191.136 216.17C191.401 216.382 191.596 216.612 191.702 216.842C191.755 216.949 191.791 217.073 191.826 217.179C191.844 217.285 191.862 217.391 191.862 217.48C191.862 217.621 191.862 217.816 191.826 218.029C191.791 218.241 191.72 218.471 191.614 218.701C191.437 219.091 191.1 219.427 190.605 219.746C190.109 220.064 189.365 220.206 188.339 220.206C187.808 220.206 187.4 220.153 187.082 220.047C186.763 219.94 186.498 219.799 186.267 219.604V220.171H185.612V218.029H186.267C186.267 218.506 186.48 218.878 186.834 219.144C187.206 219.409 187.666 219.533 188.232 219.533C188.799 219.533 189.242 219.356 189.56 219.02C189.879 218.666 190.038 218.206 190.038 217.639C190.038 217.179 189.932 216.825 189.702 216.612C189.472 216.4 189.224 216.241 188.958 216.152C188.781 216.099 188.604 216.063 188.445 216.046C188.286 216.046 188.144 216.028 188.038 216.028H187.666L187.648 215.975ZM197.703 217.781H194.11L193.49 219.356H194.375V220.047H191.897V219.356H192.818L195.862 211.85H196.871L200.217 219.356H201.138V220.047H197.438V219.356H198.394L197.703 217.781ZM195.774 213.656L194.375 217.126H197.438L195.915 213.656L195.88 213.39H195.809L195.774 213.656ZM206.095 215.568V215.621C206.201 215.621 206.342 215.656 206.502 215.674C206.661 215.709 206.838 215.745 206.997 215.816C207.316 215.922 207.582 216.117 207.847 216.4C208.095 216.665 208.219 217.073 208.219 217.586C208.219 218.365 207.936 218.967 207.387 219.356C206.838 219.763 206.219 219.976 205.546 220.011C205.51 220.011 205.457 220.011 205.422 220.011H201.297V219.321H202.253V212.505H201.297V211.815H205.103C205.882 211.815 206.466 211.939 206.838 212.169C207.228 212.399 207.493 212.665 207.635 212.948C207.706 213.072 207.741 213.196 207.776 213.32C207.794 213.443 207.812 213.55 207.812 213.656C207.812 214.222 207.652 214.647 207.334 214.948C207.015 215.249 206.679 215.426 206.289 215.515C206.254 215.515 206.219 215.515 206.183 215.532C206.148 215.532 206.112 215.532 206.077 215.532L206.095 215.568ZM204.006 219.356H204.714C205.245 219.356 205.652 219.179 205.988 218.843C206.307 218.506 206.466 218.099 206.466 217.639C206.466 217.604 206.466 217.551 206.466 217.515C206.466 217.48 206.466 217.444 206.466 217.391C206.413 217.037 206.254 216.718 205.971 216.435C205.687 216.152 205.227 216.01 204.59 216.01H204.023V219.339L204.006 219.356ZM204.006 215.338H204.59C205.05 215.338 205.387 215.214 205.634 214.966C205.882 214.718 206.024 214.453 206.095 214.152C206.095 214.098 206.112 214.045 206.13 213.992C206.13 213.939 206.13 213.886 206.13 213.833C206.13 213.798 206.13 213.762 206.13 213.744C206.13 213.709 206.13 213.691 206.13 213.656C206.095 213.373 205.953 213.125 205.705 212.895C205.457 212.665 205.086 212.541 204.59 212.541H204.023V215.338H204.006ZM208.874 215.94C208.874 214.877 209.299 213.904 210.131 213.019C210.963 212.151 212.078 211.709 213.459 211.709C214.84 211.709 215.902 212.116 216.716 212.93C217.531 213.744 217.973 214.647 218.062 215.639C218.062 215.692 218.062 215.745 218.062 215.78C218.062 215.833 218.062 215.886 218.062 215.922C218.062 216.984 217.637 217.958 216.805 218.825C215.955 219.71 214.858 220.135 213.459 220.135C212.06 220.135 211.016 219.728 210.219 218.896C209.405 218.064 208.98 217.161 208.892 216.187C208.892 216.134 208.892 216.099 208.892 216.046V215.922L208.874 215.94ZM210.892 215.94C210.892 217.196 211.158 218.117 211.689 218.701C212.22 219.285 212.804 219.569 213.459 219.569H213.494C214.132 219.569 214.716 219.268 215.247 218.701C215.778 218.135 216.044 217.214 216.044 215.957C216.044 214.824 215.796 213.939 215.318 213.284C214.84 212.647 214.22 212.31 213.459 212.31C212.698 212.31 212.06 212.647 211.6 213.32C211.14 213.992 210.91 214.86 210.91 215.957L210.892 215.94ZM223.16 211.833L225.886 219.339H226.825V222.295H225.532V220.011H219.531V222.295H218.239V219.339H219.177L221.744 212.523H220.841V211.833H223.16ZM222.027 213.904L220.044 219.197H223.992L222.222 213.886L222.169 213.514H222.098L222.027 213.904Z" fill="#1466B9"/>
<path fill-rule="evenodd" clip-rule="evenodd" d="M44.8389 237.59L48.9813 231.429H51.7784L47.7421 237.59L51.7784 243.75H48.9813L44.8389 237.59ZM50.8932 237.59L55.0711 231.429H57.8682L53.7965 237.59L57.8682 243.75H55.0711L50.8932 237.59ZM73.9954 233.748V233.908C74.2964 233.925 74.6681 233.978 75.1107 234.049C75.5533 234.12 75.9782 234.244 76.4207 234.421C77.2528 234.722 77.9963 235.235 78.669 235.961C79.3417 236.687 79.678 237.749 79.678 239.13C79.678 241.219 78.9345 242.794 77.4652 243.857C75.9959 244.919 74.3672 245.503 72.5792 245.609C72.473 245.627 72.3668 245.645 72.2783 245.645H61.2848V243.821H63.834V225.676H61.2848V223.852H71.4108C73.4821 223.852 75.0222 224.171 76.0313 224.773C77.058 225.392 77.7661 226.083 78.1556 226.844C78.3326 227.163 78.4565 227.499 78.5097 227.818C78.5805 228.136 78.6159 228.437 78.6159 228.703C78.6159 230.208 78.191 231.341 77.359 232.137C76.5269 232.934 75.5887 233.43 74.5796 233.624C74.4911 233.642 74.4026 233.66 74.2964 233.695C74.2079 233.713 74.1017 233.731 74.0131 233.731L73.9954 233.748ZM68.4544 243.839H70.3487C71.7472 243.839 72.8625 243.379 73.7122 242.493C74.5796 241.591 75.0045 240.528 75.0045 239.289C75.0045 239.183 75.0045 239.077 75.0045 238.971C75.0045 238.882 75.0045 238.776 75.0045 238.67C74.8806 237.731 74.438 236.882 73.6945 236.12C72.951 235.359 71.7118 234.987 69.9946 234.987H68.4899V243.839H68.4544ZM68.4544 233.146H70.0123C71.2338 233.146 72.1543 232.828 72.7916 232.173C73.4289 231.518 73.8361 230.81 74.0131 230.031C74.0485 229.871 74.084 229.73 74.1017 229.588C74.1017 229.446 74.1017 229.305 74.1017 229.145C74.1017 229.057 74.1017 228.986 74.1017 228.898C74.1017 228.827 74.1017 228.738 74.1017 228.65C73.9954 227.906 73.6237 227.234 72.9864 226.614C72.3491 225.994 71.3577 225.693 70.0123 225.693H68.4722V233.146H68.4544ZM81.3775 234.74C81.3775 231.889 82.4928 229.305 84.7234 226.986C86.9539 224.667 89.8926 223.498 93.5748 223.498C97.257 223.498 100.054 224.578 102.214 226.756C104.374 228.933 105.56 231.323 105.772 233.961C105.772 234.085 105.772 234.226 105.772 234.35C105.772 234.474 105.772 234.616 105.772 234.74C105.772 237.554 104.657 240.139 102.408 242.476C100.178 244.813 97.2039 245.981 93.5217 245.981C89.8395 245.981 87.0424 244.883 84.8827 242.688C82.7406 240.493 81.5545 238.085 81.3598 235.448C81.3421 235.324 81.3244 235.2 81.3244 235.076V234.74H81.3775ZM86.7592 234.775C86.7592 238.121 87.4673 240.564 88.8835 242.104C90.2997 243.644 91.8576 244.423 93.5748 244.423H93.6633C95.3628 244.405 96.9029 243.626 98.3191 242.086C99.7354 240.564 100.443 238.121 100.443 234.775C100.443 231.766 99.8062 229.393 98.4962 227.676C97.2039 225.959 95.5575 225.109 93.5571 225.109C91.5566 225.109 89.8395 225.994 88.6003 227.782C87.3611 229.57 86.7415 231.889 86.7415 234.793L86.7592 234.775ZM126.98 223.764V229.924H125.121C125.033 228.579 124.431 227.464 123.316 226.596C122.2 225.729 120.926 225.286 119.492 225.286C117.668 225.286 116.004 226.065 114.517 227.623C113.03 229.181 112.287 231.695 112.287 235.147C112.287 237.607 112.942 239.714 114.269 241.467C115.597 243.219 117.491 244.104 119.934 244.104C121.209 244.104 122.342 243.821 123.333 243.237C124.325 242.653 125.21 241.874 125.989 240.882L127.582 242.157C126.449 243.29 125.21 244.211 123.847 244.901C122.483 245.609 120.943 245.963 119.208 245.963C115.863 245.963 112.977 244.936 110.552 242.865C108.127 240.794 106.905 238.121 106.905 234.828C106.905 231.535 108.038 228.65 110.286 226.596C112.552 224.525 115.402 223.498 118.854 223.498C119.509 223.498 120.111 223.569 120.66 223.693C121.209 223.817 121.758 224.012 122.306 224.242C122.625 224.401 122.961 224.578 123.298 224.773C123.634 224.985 123.971 225.198 124.325 225.446L125.334 223.746H126.962L126.98 223.764ZM141.797 231.712L146.365 225.693H143.833V223.87H151.056V225.693H148.454L142.789 233.093L150.666 243.839H153.41V245.662H142.789V243.839H145.302L139.903 236.386L134.238 243.839H136.61V245.662H129.547V243.839H132.061L138.77 235.005L132.061 225.693H130.007V223.87H139.903V225.693H137.389L141.815 231.712H141.797ZM154.756 234.74C154.756 231.889 155.871 229.305 158.102 226.986C160.332 224.667 163.271 223.498 166.953 223.498C170.635 223.498 173.432 224.578 175.592 226.756C177.752 228.933 178.938 231.323 179.15 233.961C179.15 234.085 179.15 234.226 179.15 234.35C179.15 234.474 179.15 234.616 179.15 234.74C179.15 237.554 178.035 240.139 175.787 242.476C173.556 244.813 170.582 245.981 166.9 245.981C163.218 245.981 160.421 244.883 158.261 242.688C156.119 240.493 154.933 238.085 154.738 235.448C154.72 235.324 154.703 235.2 154.703 235.076V234.74H154.756ZM160.137 234.775C160.137 238.121 160.846 240.564 162.262 242.104C163.678 243.644 165.236 244.423 166.953 244.423H167.059C168.759 244.405 170.299 243.626 171.715 242.086C173.131 240.564 173.839 238.121 173.839 234.775C173.839 231.766 173.202 229.393 171.91 227.676C170.618 225.959 168.971 225.109 166.971 225.109C164.97 225.109 163.253 225.994 162.014 227.782C160.775 229.57 160.155 231.889 160.155 234.793L160.137 234.775ZM192.799 223.87L200.022 243.839H202.536V251.717H199.119V245.662H183.151V251.717H179.734V243.839H182.213L189.046 225.693H186.639V223.87H192.799ZM189.772 229.376L184.497 243.485H195.012L190.285 229.34L190.161 228.331H189.967L189.772 229.376ZM211.493 237.59L207.351 243.75H204.554L208.625 237.59L204.554 231.429H207.351L211.493 237.59ZM217.583 237.59L213.441 243.75H210.608L214.68 237.59L210.608 231.429H213.441L217.583 237.59Z" fill="#1466B9"/>
<path fill-rule="evenodd" clip-rule="evenodd" d="M230.669 204.256C229.253 206.15 227.801 207.991 226.296 209.797L166.549 162.654L150.422 160.193L147.59 176.887L129.851 160.972L112.131 176.887L109.298 160.193L93.1711 162.654L31.2111 211.549C29.6356 209.726 28.1308 207.867 26.6438 205.955L129.851 132.825L230.669 204.238V204.256Z" fill="#1466B9"/>
<path fill-rule="evenodd" clip-rule="evenodd" d="M8.40586 173.505C7.57383 171.345 6.81261 169.168 6.10449 166.955L57.6729 154.74L58.0977 156.298L8.40586 173.505Z" fill="#1466B9"/>
<path fill-rule="evenodd" clip-rule="evenodd" d="M249.913 166.955C249.205 169.168 248.426 171.345 247.612 173.505L197.92 156.298L198.345 154.74L249.913 166.955Z" fill="#1466B9"/>
<path fill-rule="evenodd" clip-rule="evenodd" d="M18.0601 193.386C16.9094 191.456 15.8118 189.509 14.7673 187.526L60.954 166.283L61.6798 167.734L18.0601 193.386Z" fill="#1466B9"/>
<path fill-rule="evenodd" clip-rule="evenodd" d="M241.235 187.526C240.19 189.509 239.093 191.474 237.942 193.386L194.322 167.734L195.048 166.283L241.235 187.526Z" fill="#1466B9"/>
<path fill-rule="evenodd" clip-rule="evenodd" d="M2.01822 150.544C1.59336 148.208 1.2393 145.853 0.956055 143.463L55.9942 140.595L56.1358 142.206L2.01822 150.527V150.544Z" fill="#1466B9"/>
<path fill-rule="evenodd" clip-rule="evenodd" d="M255.061 143.482C254.778 145.854 254.424 148.226 253.999 150.563L199.881 142.242L200.023 140.631L255.061 143.499V143.482Z" fill="#1466B9"/>
<path fill-rule="evenodd" clip-rule="evenodd" d="M0 127.266C0 124.841 0.0885142 122.415 0.230137 120.025L55.7816 127.354L55.6223 128.965L0 127.266Z" fill="#1466B9"/>
<path fill-rule="evenodd" clip-rule="evenodd" d="M255.77 120.025C255.911 122.415 256 124.841 256 127.266L200.377 128.965L200.218 127.354L255.77 120.025Z" fill="#1466B9"/>
<path fill-rule="evenodd" clip-rule="evenodd" d="M2.24927 103.774C2.70954 101.367 3.22292 98.9767 3.82482 96.6045L58.0663 113.723L57.6237 115.281L2.24927 103.774Z" fill="#1466B9"/>
<path fill-rule="evenodd" clip-rule="evenodd" d="M252.192 96.6226C252.777 98.977 253.308 101.367 253.768 103.792L198.393 115.299L197.951 113.741L252.192 96.6226Z" fill="#1466B9"/>
<path fill-rule="evenodd" clip-rule="evenodd" d="M8.51758 81.7869C9.40272 79.4678 10.3587 77.1842 11.3854 74.9536L62.5466 101.596L61.8385 103.048L8.51758 81.7869Z" fill="#1466B9"/>
<path fill-rule="evenodd" clip-rule="evenodd" d="M244.637 74.936C245.664 77.1843 246.602 79.468 247.505 81.787L194.184 103.048L193.476 101.596L244.637 74.9537V74.936Z" fill="#1466B9"/>
<path fill-rule="evenodd" clip-rule="evenodd" d="M19.4741 59.907C20.7841 57.8004 22.165 55.7469 23.5989 53.7288L69.4492 88.922L68.511 90.232L19.4741 59.907Z" fill="#1466B9"/>
<path fill-rule="evenodd" clip-rule="evenodd" d="M232.421 53.7104C233.855 55.7286 235.218 57.7998 236.546 59.8887L187.509 90.2137L186.571 88.9037L232.421 53.7104Z" fill="#1466B9"/>
<path fill-rule="evenodd" clip-rule="evenodd" d="M33.509 41.4246C35.1908 39.5835 36.9434 37.7955 38.7314 36.043L77.6599 79.6804L76.4915 80.7957L33.5267 41.4246H33.509Z" fill="#1466B9"/>
<path fill-rule="evenodd" clip-rule="evenodd" d="M217.283 36.043C219.071 37.7778 220.823 39.5835 222.505 41.4246L179.54 80.7957L178.372 79.6804L217.301 36.043H217.283Z" fill="#1466B9"/>
<path fill-rule="evenodd" clip-rule="evenodd" d="M51.1619 25.4036C53.1092 23.9343 55.1096 22.518 57.1454 21.1726L86.4259 69.9793L85.0628 70.8645L51.1619 25.4036Z" fill="#1466B9"/>
<path fill-rule="evenodd" clip-rule="evenodd" d="M198.853 21.1545C200.888 22.5177 202.889 23.9162 204.836 25.3855L170.918 70.8464L169.554 69.9613L198.835 21.1545H198.853Z" fill="#1466B9"/>
<path fill-rule="evenodd" clip-rule="evenodd" d="M70.281 13.5078C72.4762 12.3925 74.7244 11.348 76.9904 10.3567L98.4816 63.8192L96.9946 64.4743L70.281 13.5255V13.5078Z" fill="#1466B9"/>
<path fill-rule="evenodd" clip-rule="evenodd" d="M179.028 10.3563C181.294 11.3477 183.542 12.3922 185.737 13.5074L159.024 64.4562L157.537 63.8012L179.028 10.3386V10.3563Z" fill="#1466B9"/>
<path fill-rule="evenodd" clip-rule="evenodd" d="M90.7246 5.29326C93.0791 4.56744 95.469 3.93014 97.8766 3.34595L110.658 59.4462L109.082 59.8534L90.7246 5.29326Z" fill="#1466B9"/>
<path fill-rule="evenodd" clip-rule="evenodd" d="M158.122 3.34595C160.529 3.93014 162.919 4.56744 165.274 5.29326L146.898 59.8534L145.323 59.4462L158.104 3.34595H158.122Z" fill="#1466B9"/>
<path fill-rule="evenodd" clip-rule="evenodd" d="M113.208 0.637302C115.615 0.354057 118.023 0.159326 120.466 0L123.458 56.2419L121.847 56.3835L113.208 0.637302Z" fill="#1466B9"/>
<path fill-rule="evenodd" clip-rule="evenodd" d="M135.551 0C137.994 0.141623 140.419 0.354057 142.809 0.637302L134.17 56.3835L132.559 56.2419L135.551 0Z" fill="#1466B9"/>
<path fill-rule="evenodd" clip-rule="evenodd" d="M137.711 96.8875V97.2947C138.455 97.3478 139.375 97.4717 140.437 97.6488C141.517 97.8435 142.58 98.1444 143.642 98.5693C145.678 99.3128 147.519 100.587 149.183 102.393C150.847 104.181 151.679 106.801 151.679 110.235C151.679 115.387 149.855 119.264 146.209 121.884C142.562 124.504 138.543 125.956 134.153 126.221C133.887 126.274 133.64 126.292 133.392 126.292H106.271V121.795H112.538V77.0427H106.271V72.5461H131.267C136.348 72.5461 140.154 73.3074 142.686 74.8298C145.2 76.3523 146.934 78.0517 147.908 79.9282C148.333 80.7249 148.634 81.5392 148.793 82.3358C148.953 83.1324 149.041 83.8583 149.041 84.4956C149.041 88.1954 148.014 91.0279 145.943 92.9752C143.872 94.9225 141.588 96.144 139.074 96.622C138.862 96.6751 138.632 96.7282 138.384 96.7813C138.136 96.8344 137.924 96.8698 137.694 96.8698L137.711 96.8875ZM124.045 121.795H128.7C132.135 121.795 134.896 120.68 137.021 118.45C139.145 116.237 140.19 113.599 140.19 110.536C140.19 110.271 140.19 110.005 140.154 109.775C140.119 109.527 140.119 109.28 140.119 109.014C139.8 106.713 138.703 104.624 136.861 102.747C135.02 100.871 131.976 99.9324 127.745 99.9324H124.045V121.795ZM124.045 95.4359H127.904C130.896 95.4359 133.197 94.6393 134.773 93.0283C136.348 91.4174 137.357 89.6471 137.782 87.7175C137.888 87.3457 137.959 86.974 137.977 86.6376C138.012 86.2835 138.012 85.9295 138.012 85.5577C138.012 85.3453 138.012 85.1329 137.977 84.9558C137.941 84.7611 137.941 84.5664 137.941 84.3539C137.676 82.5305 136.755 80.8488 135.162 79.3263C133.586 77.8039 131.126 77.0427 127.815 77.0427H124.045V95.4359Z" fill="#1466B9"/>
</svg>
