<svg width="124" height="24" viewBox="0 0 124 24" fill="none" xmlns="http://www.w3.org/2000/svg">
<g clip-path="url(#clip0_9_13407)">
<path d="M10.9217 15.1142L9.21227 19.7466L6.9853 13.7435L5.93748 16.5808L8.29439 22.9333C8.36486 23.1226 8.49114 23.2853 8.65541 23.4004C8.81848 23.5151 9.01472 23.5768 9.21607 23.5767C9.41743 23.5765 9.61357 23.5145 9.77644 23.3995C9.94117 23.284 10.0665 23.12 10.1365 22.9302L12.4358 16.7026L11.3825 13.868L10.9217 15.1137V15.1142ZM33.2298 0.334176C33.1092 0.288936 32.9804 0.268084 32.8512 0.272899C32.722 0.277713 32.5952 0.308093 32.4785 0.362176C32.2388 0.474268 32.0545 0.674019 31.966 0.917732L25.0156 19.7524L18.0035 0.850621C17.9285 0.645821 17.786 0.47082 17.5981 0.352843C17.4128 0.23698 17.1919 0.186955 16.973 0.211259C16.7541 0.235562 16.5505 0.332696 16.3969 0.486176C16.24 0.63951 16.138 0.841732 16.1073 1.0604L13.8446 7.19995L14.898 10.0342L17.1011 4.06484L24.0987 22.9213C24.1691 23.1106 24.2954 23.2737 24.4597 23.3888C24.6244 23.5035 24.8193 23.5653 25.0197 23.5657C25.2202 23.5653 25.416 23.5031 25.5807 23.3875C25.7454 23.272 25.8708 23.108 25.9408 22.9182L33.8082 1.60707C33.8978 1.36032 33.8874 1.08969 33.7789 0.850176C33.6734 0.614382 33.4759 0.428831 33.2298 0.334176ZM4.10493 5.97862L2.20283 0.850621C2.18168 0.794859 2.15549 0.741021 2.12459 0.689732L2.09439 0.643954C2.0715 0.610014 2.04644 0.577506 2.01935 0.546621L1.98 0.504399C1.94892 0.473815 1.91575 0.445306 1.88071 0.419065L1.84776 0.391954C1.80119 0.359327 1.75173 0.33077 1.69997 0.306621L1.65787 0.29151C1.61877 0.274866 1.57856 0.260761 1.53753 0.249288H1.48034L1.3632 0.233732H1.12207C1.06783 0.243486 1.01455 0.257761 0.962834 0.276399H0.941786C0.819915 0.322453 0.708815 0.391826 0.615084 0.480399C0.520369 0.569288 0.444413 0.676399 0.390878 0.795065C0.282411 1.03608 0.273726 1.30843 0.366627 1.55551L3.47303 9.92529L4.5204 7.08795L4.10493 5.97907V5.97862Z" fill="#6228B1"/>
<path d="M10.0709 0.850665C10.0017 0.663205 9.87589 0.500398 9.70987 0.383554C9.54692 0.26897 9.35098 0.207086 9.14981 0.206665C8.9494 0.206665 8.75356 0.268887 8.58884 0.384443C8.42412 0.499998 8.29874 0.663998 8.22873 0.853776L0.361826 22.1773C0.254048 22.4282 0.253061 22.7102 0.359081 22.9618C0.411701 23.0858 0.488572 23.1978 0.585118 23.2907C0.681206 23.384 0.795598 23.4564 0.921428 23.5036C1.04629 23.5505 1.17996 23.5714 1.31369 23.5647C1.44743 23.5581 1.5782 23.524 1.69746 23.4649C1.81734 23.4058 1.92441 23.3227 2.01135 23.22C2.09828 23.1178 2.16372 22.9987 2.20352 22.8698L9.15347 4.03422L16.1624 22.9244C16.2036 23.052 16.27 23.1693 16.3574 23.2702C16.4452 23.3707 16.5518 23.4524 16.6713 23.5102C16.8511 23.5978 17.0548 23.628 17.2533 23.5965C17.4518 23.565 17.635 23.4733 17.7767 23.3347C17.8728 23.2422 17.9492 23.1311 18.0019 23.008C18.108 22.7587 18.109 22.4789 18.0046 22.2289L10.0704 0.850665H10.0709Z" fill="#07CFB5"/>
<path d="M44.2245 10.6026H37.3445L36.0112 14.1266H34.9121L40.2459 0.273315H41.3441L46.6505 14.1266H45.5523L44.2245 10.6022V10.6026ZM43.8515 9.61198L40.7936 1.55865L37.7357 9.61198H43.8515Z" fill="white"/>
<path d="M46.9513 14.3244H45.4459L44.113 10.8031H37.4921L36.1583 14.324H34.6533L40.1372 0.0759888H41.5035L46.9513 14.324V14.3244ZM45.7021 13.9289H46.3793L41.218 0.473767H40.3871L35.2134 13.9289H35.8906L37.2239 10.408H44.3743L45.7017 13.9289H45.7021ZM44.1464 9.81243H37.4522L40.7961 1.00266L44.146 9.81243H44.1464ZM38.0215 9.41777H43.5681L40.7961 2.12666L38.0215 9.41777ZM48.6754 9.17777C48.662 8.49382 48.7865 7.81394 49.0419 7.17643C49.2942 6.54498 49.6738 5.96883 50.1584 5.48177C50.6362 5.00185 51.2106 4.62258 51.8459 4.36754C52.4748 4.11557 53.1512 3.99488 53.8312 4.01332C55.7512 4.01332 57.4007 5.00354 58.1049 6.54666L57.3014 7.02088C56.7326 5.7751 55.3993 4.96399 53.8312 4.96399C52.7235 4.96399 51.6615 5.40843 50.8786 6.19865C50.0952 6.98932 49.655 8.06088 49.655 9.1791C49.655 10.2973 50.0952 11.3693 50.8786 12.16C51.6615 12.9502 52.7235 13.3942 53.8312 13.3942C54.5527 13.4113 55.2642 13.2283 55.8825 12.8667C56.5107 12.4985 57.0225 11.9696 57.3618 11.3378L58.1863 11.8329C57.7658 12.6081 57.1339 13.256 56.3597 13.7058C55.5976 14.1476 54.7216 14.3694 53.8344 14.3453C53.1538 14.3641 52.4767 14.2436 51.8472 13.9915C51.2114 13.7366 50.6365 13.3572 50.1584 12.8769C49.6733 12.3895 49.2934 11.8129 49.041 11.1809C48.7857 10.5428 48.6615 9.86225 48.6754 9.17777Z" fill="white"/>
<path d="M53.8313 14.5431C52.422 14.5431 51.0708 13.9778 50.0742 12.972C49.0776 11.9662 48.5176 10.6022 48.5176 9.17954C48.5176 7.75731 49.0776 6.39287 50.0742 5.38709C51.0708 4.38087 52.422 3.81598 53.8313 3.81598C55.8299 3.81598 57.5362 4.83065 58.2829 6.46487L58.358 6.62931L57.2145 7.29154L57.1239 7.09376C56.5762 5.89376 55.3184 5.14976 53.8313 5.14976C52.7757 5.14976 51.7635 5.57287 51.0168 6.3262C50.2705 7.07998 49.8509 8.10176 49.8509 9.16754C49.8509 10.2329 50.2705 11.2546 51.0168 12.0084C51.7635 12.7618 52.7757 13.1849 53.8313 13.1849C54.5158 13.2029 55.1913 13.0308 55.7787 12.6889C56.3752 12.3408 56.8616 11.8398 57.1843 11.2409L57.2804 11.0586L58.4394 11.7542L58.3552 11.9213C57.9183 12.7282 57.2618 13.403 56.4572 13.8724C55.6651 14.3333 54.7544 14.5659 53.8313 14.5431ZM53.8313 4.2142C52.5263 4.2142 51.2749 4.73731 50.352 5.66887C49.429 6.60042 48.9106 7.86353 48.9106 9.18087C48.9106 10.4982 49.429 11.7618 50.352 12.6933C51.2749 13.6249 52.5263 14.148 53.8313 14.148C54.6508 14.169 55.4607 13.9728 56.174 13.5804C56.898 13.1814 57.5008 12.6039 57.9214 11.9062L57.4341 11.6022C57.063 12.219 56.531 12.7298 55.8917 13.0831C55.2619 13.4303 54.5465 13.6043 53.8226 13.5862C52.6828 13.556 51.6002 13.0778 50.8045 12.2533C50.0092 11.4293 49.564 10.3244 49.564 9.17331C49.564 8.02265 50.0092 6.91776 50.8045 6.09331C51.6002 5.26887 52.6828 4.79109 53.8226 4.76087C55.3815 4.76087 56.7208 5.5142 57.3737 6.73865L57.8405 6.4622C57.1331 5.07376 55.6103 4.21109 53.8313 4.21109V4.21376V4.2142ZM65.6744 4.09198V5.04309C63.9892 5.04309 62.4001 6.09109 62.4001 8.62487V14.1266H61.4186V4.23109H62.4001V6.16931C63.0681 4.60798 64.3411 4.09153 65.6744 4.09153V4.09198Z" fill="white"/>
<path d="M62.6022 14.3245H61.2295V4.0347H62.6022V5.39914C63.273 4.41159 64.3235 3.89514 65.6811 3.89514H65.8765V5.24092H65.6811C64.1941 5.24092 62.6022 6.13114 62.6022 8.62536V14.3245ZM61.6207 13.9294H62.2229V8.62536C62.2229 5.94847 63.9442 4.92759 65.4972 4.84892V4.29336C64.1039 4.34759 63.1288 5.00403 62.599 6.24625L62.2229 7.12759V4.4267H61.6207V13.9289V13.9294ZM67.4775 9.17781C67.4704 8.15395 67.7663 7.14968 68.33 6.28448C68.8826 5.43385 69.6842 4.76295 70.632 4.35781C71.5672 3.96006 72.6059 3.85189 73.6066 4.04803C74.6143 4.24851 75.5358 4.74098 76.2495 5.46048C76.9776 6.19387 77.4707 7.11689 77.6689 8.11736C77.8707 9.12536 77.7718 10.1707 77.3847 11.1223C77.0041 12.0651 76.3462 12.8783 75.4932 13.4605C74.6551 14.0315 73.657 14.3394 72.6334 14.3427C71.9554 14.3525 71.2827 14.2258 70.6576 13.9707C70.0264 13.7127 69.4555 13.3332 68.9793 12.8551C68.4964 12.3698 68.1165 11.797 67.861 11.1694C67.6029 10.5357 67.4727 9.8597 67.4775 9.17825V9.17781ZM76.7716 9.17781C76.7674 8.35442 76.52 7.5495 76.0587 6.8587C75.6065 6.17942 74.9558 5.64675 74.19 5.32892C73.4341 5.01681 72.5977 4.93814 71.7942 5.10359C70.985 5.27265 70.2473 5.67547 69.678 6.25914C69.0973 6.85404 68.7066 7.59969 68.5533 8.40581C68.3967 9.21759 68.4819 10.0559 68.799 10.8223C69.1098 11.5787 69.6429 12.2295 70.3318 12.6938C71.0088 13.1493 71.813 13.3928 72.6366 13.3916C73.1852 13.3951 73.7286 13.2882 74.2326 13.0778C74.7416 12.8646 75.2009 12.5534 75.5828 12.1631C75.9701 11.7674 76.2735 11.3015 76.4755 10.792C76.6804 10.2777 76.7809 9.72968 76.7716 9.17825V9.17781Z" fill="white"/>
<path d="M72.6357 14.5431C71.5809 14.5372 70.5532 14.2182 69.6904 13.6289C68.8122 13.0279 68.135 12.1897 67.743 11.2182C67.3438 10.2342 67.2421 9.15999 67.4497 8.12176C67.6528 7.0906 68.1595 6.1388 68.9084 5.38176C69.6424 4.63927 70.5905 4.12984 71.6281 3.92043C72.6588 3.71538 73.7294 3.82322 74.6947 4.22932C75.6729 4.643 76.5018 5.33069 77.0755 6.20443C77.6602 7.09316 77.9703 8.12613 77.9691 9.18087C77.9743 9.88678 77.8396 10.5871 77.5724 11.2435C77.3086 11.8939 76.9159 12.4877 76.4166 12.9911C75.9244 13.4873 75.3341 13.8819 74.681 14.1511C74.0317 14.4178 73.3367 14.5511 72.6357 14.5431ZM72.6357 4.2142C71.6587 4.21966 70.7068 4.51525 69.9077 5.06132C69.0944 5.61817 68.4674 6.39474 68.1044 7.29465C67.7351 8.2063 67.641 9.20133 67.8331 10.1631C68.0215 11.1182 68.491 11.9997 69.1848 12.7009C69.8649 13.3886 70.7433 13.8604 71.7046 14.0542C72.6592 14.2441 73.6509 14.1442 74.5451 13.768C75.4511 13.3846 76.2188 12.7475 76.7501 11.9382C77.2918 11.1149 77.5791 10.158 77.5779 9.18087C77.583 8.52661 77.4586 7.87749 77.2113 7.26887C76.9666 6.66624 76.6027 6.11603 76.1402 5.64932C75.684 5.18917 75.1368 4.82333 74.5314 4.57376C73.932 4.32722 73.2866 4.2036 72.6357 4.21065V4.21376V4.2142ZM72.6357 13.5951C71.7653 13.6018 70.9137 13.3489 70.196 12.8706C69.4653 12.3829 68.899 11.6966 68.568 10.8978C68.2305 10.0887 68.1386 9.20265 68.303 8.34443C68.4639 7.49166 68.8766 6.70274 69.4909 6.07376C70.0928 5.45675 70.8733 5.03166 71.7293 4.85465C72.579 4.68113 73.4631 4.7665 74.261 5.09909C75.0696 5.43784 75.7553 6.00391 76.2299 6.72443C76.7141 7.45732 76.9709 8.31006 76.9698 9.18087C76.9772 9.75804 76.8705 10.3312 76.6554 10.8693C76.4426 11.4022 76.1244 11.8895 75.7188 12.3035C75.3189 12.7118 74.8383 13.0374 74.3058 13.2609C73.7785 13.4816 73.2099 13.5943 72.6357 13.592V13.5951ZM72.6357 5.16487C71.8435 5.15821 71.0683 5.3878 70.4147 5.82265C69.7497 6.26594 69.234 6.88989 68.9322 7.61643C68.6247 8.35259 68.5406 9.15885 68.6897 9.93998C68.8358 10.716 69.2109 11.434 69.7695 12.0066C70.3171 12.5684 71.0272 12.9555 71.8061 13.1169C72.5794 13.275 73.3841 13.1975 74.1104 12.8951C74.8462 12.5868 75.4702 12.0719 75.9023 11.4164C76.343 10.7495 76.5768 9.97339 76.5758 9.18087C76.5824 8.65601 76.4855 8.13478 76.2903 7.64532C76.0971 7.16039 75.8079 6.71692 75.4392 6.33998C75.0757 5.96827 74.6387 5.67168 74.1544 5.46798C73.675 5.26659 73.158 5.1634 72.6357 5.16487ZM80.3406 0.273315H81.4392L84.9877 12.7293L88.8102 0.273315H90.0442L93.8873 12.7293L97.4179 0.273315H98.5165L94.5343 14.1266H93.2796L89.4361 1.64043L85.5747 14.1266H84.3196L80.3406 0.273315Z" fill="white"/>
<path d="M94.6823 14.3244H93.1353L89.4363 2.30577L85.7195 14.324H84.1725L80.0791 0.0759888H81.584L84.9943 12.0302L88.6658 0.0759888H90.189L93.8788 12.0302L97.2675 0.0759888H98.7724L94.6823 14.324V14.3244ZM93.4244 13.9289H94.3871L98.2549 0.473767H97.5654L93.9026 13.4129L89.909 0.470656H88.9636L84.9879 13.4129L81.2981 0.470656H80.5998L84.4672 13.9262H85.4303L89.4363 0.971989L93.4244 13.9289ZM109.827 9.21688C109.827 9.3751 109.806 9.52088 109.806 9.6911H100.927C101.162 11.9267 102.848 13.3911 105.084 13.3911C106.691 13.3911 107.907 12.6378 108.476 11.5898L109.339 12.1031C108.536 13.4489 107.007 14.3391 105.066 14.3391C102.056 14.3391 99.91 12.1609 99.91 9.17466C99.91 6.26399 101.987 4.01021 104.988 4.01021C107.988 4.01021 109.827 6.5071 109.827 9.21688ZM100.927 8.72177H108.81C108.593 6.30666 106.907 4.96088 104.988 4.96088C103.958 4.93066 102.958 5.30754 102.2 6.01021C101.441 6.71332 100.985 7.6871 100.927 8.72488V8.72177Z" fill="white"/>
<path d="M105.063 14.5431C101.963 14.5431 99.7119 12.2889 99.7119 9.18087C99.7119 6.07332 101.93 3.81909 104.985 3.81909C108.256 3.81909 110.023 6.60176 110.023 9.22043V9.89198H101.15C101.452 11.8786 103.01 13.1973 105.084 13.1973C106.523 13.1973 107.727 12.5622 108.305 11.4991L108.401 11.3195L109.605 12.0395L109.502 12.2098C108.621 13.6924 107.001 14.5431 105.063 14.5431ZM104.985 4.2142C102.156 4.2142 100.103 6.30398 100.103 9.18087C100.103 12.0582 102.189 14.148 105.063 14.148C106.784 14.148 108.229 13.4311 109.063 12.1764L108.542 11.8729C107.865 12.9573 106.586 13.6013 105.081 13.6013C102.722 13.6013 100.973 12.0427 100.729 9.72487L100.705 9.5062H109.614V9.22976C109.632 6.78976 108.003 4.21109 104.985 4.21109V4.21376V4.2142ZM109.024 8.92265H100.711L100.729 8.70709C100.793 7.62087 101.272 6.60176 102.065 5.86532C102.859 5.12843 103.904 4.73154 104.982 4.75776C107.176 4.75776 108.789 6.34043 109 8.70709L109.024 8.92265ZM101.148 8.52798H108.59C108.323 6.50754 106.899 5.16487 104.979 5.16487C104.031 5.13251 103.107 5.46158 102.406 6.08176C101.694 6.70532 101.243 7.57865 101.145 8.52487L101.148 8.52798ZM123.474 9.17776C123.483 9.85383 123.358 10.5253 123.106 11.1555C122.857 11.7798 122.484 12.3506 122.009 12.8355C121.54 13.3134 120.977 13.6943 120.353 13.9555C119.735 14.2139 119.069 14.3455 118.396 14.3422C117.528 14.3599 116.674 14.134 115.935 13.6915C115.184 13.2409 114.577 12.5963 114.182 11.8298V14.1266H113.201V0.273315H114.182V6.52576C114.577 5.75906 115.184 5.11425 115.935 4.66354C116.674 4.22124 117.528 3.99547 118.396 4.01332C119.067 4.00932 119.732 4.14087 120.353 4.39998C120.977 4.6612 121.54 5.04216 122.009 5.51998C122.484 6.00492 122.857 6.57569 123.106 7.19998C123.357 7.82798 123.482 8.50043 123.474 9.17776ZM122.492 9.17776C122.49 8.35252 122.244 7.54527 121.783 6.85198C121.332 6.17029 120.681 5.63499 119.914 5.31465C119.158 5.00027 118.32 4.91958 117.514 5.08354C116.703 5.25074 115.963 5.65232 115.391 6.23554C114.807 6.83022 114.414 7.57651 114.258 8.38398C114.099 9.19691 114.182 10.0371 114.498 10.8058C114.807 11.5646 115.34 12.2183 116.029 12.6858C116.706 13.1441 117.511 13.3904 118.336 13.3915C118.886 13.3958 119.431 13.2896 119.936 13.0795C120.447 12.867 120.908 12.5564 121.292 12.1662C121.682 11.7705 121.988 11.3043 122.192 10.7942C122.399 10.2793 122.502 9.7305 122.495 9.17776H122.492Z" fill="white"/>
<path d="M118.395 14.5427C117.61 14.5616 116.832 14.3873 116.134 14.036C115.427 13.6795 114.82 13.1599 114.368 12.5227V14.324H112.996V0.0759888H114.368V5.84799C114.82 5.21254 115.425 4.69418 116.13 4.33821C116.826 3.98772 117.602 3.81331 118.386 3.8311C119.795 3.8311 121.147 4.39599 122.144 5.40177C123.14 6.40754 123.7 7.77199 123.7 9.19466C123.7 10.6169 123.14 11.9813 122.144 12.9871C121.147 13.9929 119.795 14.5578 118.386 14.5578L118.395 14.5427ZM113.983 11.04L114.353 11.7387C114.73 12.4754 115.312 13.0949 116.033 13.5271C116.742 13.9516 117.563 14.1673 118.395 14.148C119.7 14.148 120.952 13.6244 121.875 12.6929C122.798 11.7613 123.316 10.4982 123.316 9.18088C123.316 7.86354 122.798 6.59999 121.875 5.66843C120.952 4.73688 119.7 4.21377 118.395 4.21377C117.563 4.19428 116.742 4.4098 116.033 4.83421C115.312 5.26645 114.73 5.88595 114.353 6.62266L113.983 7.32132V0.4711H113.381V13.9262H113.983V11.04ZM118.335 13.5951C117.465 13.5981 116.615 13.3422 115.9 12.8618C115.172 12.3717 114.608 11.6841 114.28 10.8849C113.945 10.0755 113.856 9.19 114.022 8.33288C114.185 7.48145 114.6 6.69433 115.214 6.0671C115.817 5.4519 116.598 5.02856 117.453 4.85288C118.302 4.68087 119.186 4.76731 119.983 5.10043C120.79 5.43985 121.475 6.00601 121.949 6.72621C122.432 7.45876 122.688 8.31081 122.687 9.18088C122.695 9.75951 122.587 10.3341 122.371 10.8733C122.157 11.4073 121.837 11.8954 121.43 12.3098C121.028 12.718 120.545 13.043 120.011 13.2653C119.481 13.4853 118.911 13.5965 118.335 13.592V13.5951ZM118.335 5.16443C117.544 5.16196 116.771 5.39509 116.12 5.83243C115.457 6.27829 114.945 6.90391 114.646 7.6311C114.342 8.36752 114.261 9.17313 114.413 9.95288C114.561 10.7275 114.938 11.4436 115.497 12.0142C116.046 12.5737 116.756 12.9586 117.534 13.1182C118.307 13.2746 119.11 13.196 119.835 12.8929C120.57 12.5842 121.193 12.0691 121.624 11.4138C122.064 10.7475 122.297 9.97239 122.296 9.18088C122.303 8.65409 122.205 8.13093 122.009 7.63999C121.814 7.15368 121.523 6.70926 121.152 6.33199C120.787 5.96 120.347 5.66382 119.86 5.46132C119.378 5.26125 118.859 5.16017 118.335 5.16443ZM41.5817 18.6444L40.0287 23.5929H39.4897L38.1262 19.3795L36.7631 23.5929H36.225L34.6738 18.6471H35.2128L36.516 22.952L37.8887 18.6471H38.3966L39.7693 22.952L41.0724 18.6471L41.5812 18.644L41.5817 18.6444ZM46.9512 21.1382V21.3751H42.5147C42.554 21.8904 42.7929 22.372 43.1832 22.7231C43.3721 22.893 43.5939 23.0248 43.8356 23.111C44.0774 23.1972 44.3343 23.2361 44.5915 23.2253C44.9304 23.2425 45.2673 23.1667 45.5639 23.0067C45.8648 22.8436 46.1144 22.6041 46.2859 22.3138L46.7165 22.572C46.4918 22.9283 46.1744 23.2207 45.7963 23.42C45.4234 23.6157 45.0026 23.7092 44.5792 23.6902C44.2408 23.6918 43.9056 23.6268 43.5937 23.4993C43.2819 23.3717 42.9998 23.1842 42.7645 22.948C42.2778 22.4596 42.0045 21.8072 42.0017 21.1275C41.9945 20.4478 42.258 19.7916 42.737 19.296C42.9686 19.0563 43.2477 18.8645 43.5575 18.7321C43.8673 18.5998 44.2014 18.5296 44.5398 18.5258C46.0329 18.5315 46.9512 19.7835 46.9512 21.1382ZM42.4996 20.892H46.4392C46.3312 19.6769 45.4884 19.012 44.5284 19.012C44.2733 19.0072 44.0197 19.0515 43.7823 19.1423C43.5449 19.2332 43.3284 19.3688 43.1452 19.5413C42.7667 19.8981 42.5414 20.3808 42.5147 20.8924H42.4996V20.892ZM53.121 21.1169C53.1254 21.455 53.063 21.7909 52.9371 22.1062C52.8124 22.4184 52.6258 22.7038 52.388 22.9462C52.1534 23.1852 51.8716 23.3757 51.5593 23.5062C51.2502 23.6353 50.917 23.701 50.5806 23.6991C50.1466 23.7076 49.7192 23.5944 49.3498 23.3729C48.9745 23.1473 48.6713 22.8247 48.474 22.4413V23.5898H47.9835V16.6631H48.474V19.7893C48.6713 19.4059 48.9745 19.0834 49.3498 18.8578C49.7192 18.6363 50.1466 18.523 50.5806 18.5315C50.9173 18.5296 51.2509 18.5953 51.5602 18.7244C51.8705 18.8542 52.1523 19.0444 52.3889 19.2853C52.6268 19.5282 52.8134 19.814 52.938 20.1267C53.0635 20.4423 53.1257 20.7785 53.121 21.1169ZM52.6305 21.1169C52.6285 20.7047 52.505 20.3017 52.2745 19.9555C52.0484 19.6155 51.7231 19.3486 51.3402 19.1889C50.9621 19.0323 50.5436 18.9924 50.1413 19.0747C49.7362 19.1585 49.3666 19.3595 49.0812 19.6511C48.7898 19.9482 48.5935 20.3211 48.5161 20.7244C48.4369 21.1304 48.4784 21.5499 48.636 21.9338C48.7938 22.316 49.0597 22.6431 49.401 22.8729C49.7392 23.1018 50.1414 23.2247 50.5536 23.2253C50.8285 23.2273 51.1008 23.174 51.3534 23.0689C51.6088 22.9623 51.8393 22.8066 52.0311 22.6111C52.2242 22.4155 52.377 22.1818 52.48 21.9253C52.5829 21.6677 52.634 21.3932 52.6305 21.1169ZM59.9712 22.2955C59.9712 23.1067 59.2666 23.6991 58.2164 23.6991C57.235 23.6991 56.588 23.2342 56.3532 22.5991L56.7747 22.3533C56.9522 22.888 57.482 23.2249 58.2164 23.2249C58.9023 23.2249 59.4802 22.9213 59.4802 22.2955C59.4802 20.9498 56.5097 21.7213 56.5097 19.9409C56.5097 19.1604 57.175 18.5373 58.1771 18.5373C58.5212 18.5164 58.8634 18.5995 59.1604 18.776C59.4574 18.9524 59.6957 19.2142 59.8444 19.528L59.4322 19.7649C59.3262 19.5272 59.148 19.3266 58.9215 19.1898C58.699 19.0555 58.4384 18.9931 58.1771 19.0115C57.5392 19.0115 57.0002 19.3484 57.0002 19.9409C57.0034 21.2653 59.9712 20.4849 59.9712 22.2955ZM61.8852 19.1395V22.3569C61.8852 23.2289 62.3455 23.2471 63.3448 23.1587V23.6053C62.0595 23.8031 61.3855 23.4871 61.3855 22.36V19.1395H60.308V18.6538H61.3974V17.408L61.8971 17.2591V18.6444H63.3567V19.1395H61.8852ZM68.4133 18.6444V23.5898H67.9228V22.6511C67.7672 22.9776 67.5165 23.2527 67.2016 23.4422C66.8896 23.6289 66.5299 23.7178 66.168 23.6991C65.0003 23.6991 64.2659 22.9187 64.2659 21.7213V18.6444H64.7656V21.7222C64.7656 22.6333 65.2863 23.2409 66.2069 23.2409C67.128 23.2409 67.9228 22.6093 67.9228 21.272V18.6595L68.4133 18.6444ZM74.6073 16.6667V23.5933H74.1168V22.4444C73.9192 22.8278 73.6158 23.1503 73.2406 23.376C72.8712 23.5975 72.4438 23.7108 72.0097 23.7022C71.6713 23.7011 71.3366 23.6335 71.0258 23.5035C70.7149 23.3735 70.4344 23.1838 70.201 22.9458C69.7179 22.4539 69.4494 21.7997 69.4515 21.12C69.4515 20.4351 69.721 19.7782 70.201 19.2938C70.4344 19.0558 70.715 18.8662 71.0258 18.7362C71.3367 18.6063 71.6713 18.5388 72.0097 18.5378C72.4437 18.5291 72.8711 18.6422 73.2406 18.8635C73.6158 19.0893 73.9192 19.4118 74.1168 19.7951V16.6667H74.6073ZM74.1168 21.12C74.1147 20.7079 73.9912 20.3051 73.7608 19.9591C73.5347 19.619 73.2094 19.3521 72.8265 19.1924C72.4482 19.0358 72.0296 18.996 71.6272 19.0782C71.2221 19.1623 70.8526 19.3632 70.567 19.6547C70.276 19.9519 70.0799 20.3247 70.0024 20.728C69.9232 21.134 69.9648 21.5535 70.1223 21.9373C70.2801 22.3195 70.546 22.6467 70.8873 22.8764C71.2255 23.1053 71.6277 23.2283 72.0399 23.2289C72.3151 23.2308 72.5877 23.1774 72.8407 23.072C73.096 22.9653 73.3265 22.8096 73.5183 22.6142C73.7119 22.4173 73.8642 22.1835 73.9672 21.9267C74.0698 21.6686 74.1206 21.3939 74.1168 21.1173V21.1204V21.12ZM75.8441 17.0524C75.8441 16.9742 75.867 16.8978 75.91 16.8329C75.9524 16.7686 76.0136 16.718 76.0857 16.6875C76.1569 16.6578 76.2358 16.65 76.3117 16.6653C76.3882 16.6809 76.4581 16.7185 76.5122 16.7733C76.5669 16.8298 76.6039 16.9003 76.6189 16.9765C76.6339 17.0527 76.6262 17.1314 76.5968 17.2035C76.5677 17.2751 76.5176 17.3368 76.4527 17.3809C76.378 17.4316 76.2871 17.4546 76.1965 17.4456C76.1058 17.4366 76.0215 17.3963 75.959 17.332C75.8848 17.2568 75.8437 17.1566 75.8441 17.0524ZM75.9914 18.6444H76.4824V23.5902H75.9914V18.6444ZM77.5298 21.1169C77.526 20.605 77.6737 20.1029 77.9553 19.6702C78.2317 19.2451 78.6324 18.9098 79.1061 18.7071C79.5738 18.5082 80.0932 18.454 80.5936 18.552C81.0974 18.6522 81.5581 18.8983 81.9151 19.2578C82.279 19.6243 82.5256 20.0857 82.6248 20.5858C82.726 21.0894 82.677 21.6106 82.4834 22.088C82.2934 22.5594 81.9648 22.966 81.5385 23.2573C81.1197 23.5429 80.6208 23.6971 80.1091 23.6991C79.77 23.7043 79.4335 23.6412 79.1207 23.5138C78.8049 23.3849 78.5193 23.1951 78.2811 22.956C78.0393 22.7134 77.8491 22.4269 77.7215 22.1129C77.5922 21.7961 77.5271 21.4581 77.5298 21.1173V21.1169ZM82.1768 21.1169C82.1741 20.7053 82.0501 20.3031 81.8194 19.9578C81.5931 19.6182 81.2676 19.3521 80.8846 19.1933C80.5066 19.0375 80.0884 18.9984 79.6867 19.0813C79.2823 19.1661 78.9137 19.3676 78.6293 19.6595C78.339 19.9571 78.1438 20.3301 78.0674 20.7333C77.9894 21.139 78.0319 21.5578 78.19 21.9409C78.3484 22.3222 78.6151 22.6475 78.9569 22.8764C79.2953 23.1042 79.6974 23.2259 80.1091 23.2253C80.3818 23.2253 80.6517 23.1707 80.9034 23.0644C81.1551 22.9578 81.3829 22.8022 81.5742 22.6058C81.7667 22.408 81.9173 22.1754 82.0176 21.9213C82.1191 21.6658 82.169 21.3924 82.1645 21.1169H82.1768Z" fill="white"/>
</g>
<defs>
<clipPath id="clip0_9_13407">
<rect width="124" height="24" fill="white"/>
</clipPath>
</defs>
</svg>
