<svg width="49" height="50" viewBox="0 0 49 50" fill="none" xmlns="http://www.w3.org/2000/svg">
<g clip-path="url(#clip0_1_206)">
<path d="M44.0664 0H4.88608C2.1917 0 0 2.16255 0 4.82025V36.2984C0 38.9565 2.19209 41.1186 4.88608 41.1186H7.94471C8.35459 41.1186 8.68714 40.7909 8.68714 40.3862C8.68714 39.9818 8.35459 39.6538 7.94471 39.6538H4.88608C3.01069 39.6538 1.48485 38.1485 1.48485 36.2984V34.2945H21.8516C21.9007 34.2972 21.9499 34.2991 21.9997 34.2991H29.388V35.6205C29.388 37.038 29.782 38.4392 30.5109 39.6538H11.2442C10.834 39.6538 10.5018 39.9818 10.5018 40.3862C10.5018 40.7909 10.834 41.1186 11.2442 41.1186H18.3352V46.2982H16.7482C15.0882 46.2982 13.7379 47.6303 13.7379 49.2676C13.7379 49.6723 14.0701 50 14.4804 50C14.8906 50 15.2228 49.6723 15.2228 49.2676C15.2228 48.4379 15.9072 47.7631 16.7482 47.7631H29.1328V48.8861C29.1328 49.2908 29.465 49.6185 29.8752 49.6185H46.2387C46.649 49.6185 46.9812 49.2908 46.9812 48.8861V43.5879C46.9812 42.8528 46.4827 42.231 45.8018 42.0319V40.8058C47.683 40.1047 48.9528 38.3266 48.9528 36.2984V4.82025C48.9528 2.16255 46.7607 0 44.0664 0ZM1.48485 4.82025C1.48485 2.97012 3.01069 1.46484 4.88608 1.46484H44.0664C45.9421 1.46484 47.4676 2.97012 47.4676 4.82025V32.8297H45.8018V5.05676C45.8018 4.02184 44.9488 3.18031 43.8997 3.18031H10.5846C10.1743 3.18031 9.84215 3.508 9.84215 3.91273C9.84215 4.31709 10.1743 4.64516 10.5846 4.64516H43.8997C44.1298 4.64516 44.3169 4.82979 44.3169 5.05676V25.7877C44.2678 25.7355 44.2183 25.6832 44.1669 25.6325L39.8999 21.423V9.20639C39.8999 7.78122 38.7244 6.62193 37.2798 6.62193H35.0753C35.0726 6.62193 35.0695 6.62155 35.0668 6.62155H30.6316C30.6289 6.62155 30.6262 6.62193 30.6231 6.62193H21.9997C20.5551 6.62193 19.3796 7.78122 19.3796 9.20639V29.5029H4.6359V5.05676C4.6359 4.82979 4.82305 4.64516 5.05274 4.64516H7.35077C7.76065 4.64516 8.0932 4.31709 8.0932 3.91273C8.0932 3.508 7.76065 3.18031 7.35077 3.18031H5.05274C4.00406 3.18031 3.15066 4.02184 3.15066 5.05676V30.2349C3.15066 30.6396 3.48321 30.9673 3.89347 30.9673H19.3796V31.7142C19.3796 32.1133 19.472 32.4917 19.6364 32.8297H1.48485V4.82025ZM35.8092 24.971V8.0864H37.2798C37.9054 8.0864 38.4147 8.58879 38.4147 9.20639V21.7258V21.7266V27.5414L35.8092 24.971ZM28.5489 27.3502L29.8892 28.6728V32.8342H22.0794C22.0531 32.8316 22.0264 32.8297 21.9993 32.8297H21.9116C21.3269 32.7854 20.8644 32.3025 20.8644 31.7146V9.20639C20.8644 8.58879 21.3737 8.08678 21.9997 8.08678H29.8892V21.7648C29.3988 21.9246 28.9379 22.1958 28.5489 22.5796C27.9028 23.217 27.547 24.0643 27.547 24.9649C27.547 25.8659 27.9028 26.7132 28.5489 27.3502ZM32.9192 32.8339H31.374V30.1376L33.2614 31.9992C33.1237 32.2704 33.0097 32.5497 32.9192 32.8339ZM31.374 8.0864H34.3244V23.5062L33.3847 22.5796C32.8217 22.0242 32.1095 21.7041 31.374 21.6179V8.0864ZM30.6177 41.1186H31.4912C31.618 41.386 31.7027 41.6714 31.7417 41.9643H30.7785C30.7244 41.9643 30.6706 41.9674 30.6177 41.9724V41.1186ZM19.82 46.2982V41.1186H29.1328V46.2982H19.82ZM45.4963 48.1537H30.6177V43.5879C30.6177 43.5005 30.69 43.4296 30.7785 43.4296H45.3354C45.4244 43.4296 45.4963 43.5005 45.4963 43.5879V48.1537ZM45.8018 39.1872V38.3801C45.8018 37.9753 45.4696 37.6476 45.0594 37.6476C44.6491 37.6476 44.3169 37.9753 44.3169 38.3801V41.9643H33.2374C33.1759 41.2647 32.9401 40.5846 32.5557 39.9937C32.5511 39.9864 32.5464 39.9788 32.5414 39.9715C32.4753 39.8712 32.4053 39.7732 32.3306 39.6786L32.2463 39.5714C31.3609 38.4472 30.8729 37.0441 30.8729 35.6205V34.2987H32.6597C32.5909 35.8624 33.1663 37.4393 34.3402 38.5975C34.4852 38.7405 34.6751 38.8119 34.8653 38.8119C35.0552 38.8119 35.245 38.7405 35.3901 38.5975C35.6801 38.3114 35.6801 37.8475 35.3901 37.5618C33.9702 36.1607 33.7266 33.9363 34.8108 32.272C34.9999 31.982 34.9581 31.6017 34.711 31.358L29.5988 26.3145C29.2333 25.9541 29.0323 25.4749 29.0323 24.9649C29.0323 24.4553 29.2333 23.9761 29.5988 23.6156C30.3532 22.8714 31.5805 22.8714 32.3349 23.6156L38.6316 29.8267C38.632 29.8275 38.6324 29.8279 38.6331 29.8283L41.0793 32.2414C41.3689 32.5272 41.8391 32.5275 42.1291 32.2414C42.4191 31.9553 42.4191 31.4915 42.1291 31.2054L39.8995 29.0062V23.4947L43.1171 26.6685C43.8908 27.4315 44.3169 28.4466 44.3169 29.5261V35.125C44.3169 35.5297 44.6491 35.8574 45.0594 35.8574C45.4696 35.8574 45.8018 35.5297 45.8018 35.125V34.2949H47.4676V36.2988C47.468 37.5118 46.8157 38.5963 45.8018 39.1872Z" fill="white"/>
<path d="M23.6829 10.2627C23.273 10.2627 22.9404 10.5904 22.9404 10.9951V17.062C22.9404 17.4664 23.273 17.7944 23.6829 17.7944C24.0931 17.7944 24.4257 17.4664 24.4257 17.062V10.9951C24.4257 10.5904 24.0931 10.2627 23.6829 10.2627Z" fill="white"/>
<path d="M23.6829 25.6256C23.273 25.6256 22.9404 25.9533 22.9404 26.358V30.2017C22.9404 30.6061 23.273 30.9341 23.6829 30.9341C24.0931 30.9341 24.4257 30.6061 24.4257 30.2017V26.358C24.4257 25.9537 24.0931 25.6256 23.6829 25.6256Z" fill="white"/>
<path d="M33.5934 45.8736C33.5934 46.2787 33.2601 46.6075 32.8494 46.6075C32.4384 46.6075 32.1055 46.2787 32.1055 45.8736C32.1055 45.4681 32.4384 45.1396 32.8494 45.1396C33.2601 45.1396 33.5934 45.4681 33.5934 45.8736Z" fill="white"/>
</g>
<defs>
<clipPath id="clip0_1_206">
<rect width="49" height="50" fill="white"/>
</clipPath>
</defs>
</svg>
