<svg width="54" height="50" viewBox="0 0 54 50" fill="none" xmlns="http://www.w3.org/2000/svg">
<g clip-path="url(#clip0_1_162)">
<path d="M43.0312 50H32.0625C31.3912 50 30.7473 49.7366 30.2726 49.2678C29.7979 48.7989 29.5312 48.163 29.5312 47.5C29.5312 46.837 29.7979 46.2011 30.2726 45.7322C30.7473 45.2634 31.3912 45 32.0625 45H36.2812V46.6667H32.0625C31.8387 46.6667 31.6241 46.7545 31.4659 46.9107C31.3076 47.067 31.2188 47.279 31.2188 47.5C31.2188 47.721 31.3076 47.933 31.4659 48.0893C31.6241 48.2455 31.8387 48.3333 32.0625 48.3333H42.6819L44.1222 46.9108C44.2804 46.7545 44.495 46.6667 44.7188 46.6667H45.5625V38.3333H44.7188C44.495 38.3333 44.2804 38.2455 44.1222 38.0892L42.6819 36.6667H31.2188C30.995 36.6667 30.7804 36.7545 30.6221 36.9107C30.4639 37.067 30.375 37.279 30.375 37.5C30.375 37.721 30.4639 37.933 30.6221 38.0893C30.7804 38.2455 30.995 38.3333 31.2188 38.3333H36.2812V40H31.2188C30.5474 40 29.9036 39.7366 29.4289 39.2678C28.9542 38.7989 28.6875 38.163 28.6875 37.5C28.6875 36.837 28.9542 36.2011 29.4289 35.7322C29.9036 35.2634 30.5474 35 31.2188 35H43.0312C43.255 35 43.4696 35.0879 43.6278 35.2442L45.0681 36.6667H46.4062C46.63 36.6667 46.8446 36.7545 47.0029 36.9107C47.1611 37.067 47.25 37.279 47.25 37.5V47.5C47.25 47.721 47.1611 47.933 47.0029 48.0893C46.8446 48.2455 46.63 48.3333 46.4062 48.3333H45.0681L43.6278 49.7558C43.4696 49.9121 43.255 50 43.0312 50Z" fill="white"/>
<path d="M36.2812 43.3334H30.375C29.7037 43.3334 29.0598 43.07 28.5851 42.6011C28.1104 42.1323 27.8438 41.4964 27.8438 40.8334C27.8438 40.1703 28.1104 39.5344 28.5851 39.0656C29.0598 38.5968 29.7037 38.3334 30.375 38.3334H36.2812V40H30.375C30.1512 40 29.9366 40.0878 29.7784 40.2441C29.6201 40.4004 29.5312 40.6124 29.5312 40.8334C29.5312 41.0544 29.6201 41.2664 29.7784 41.4226C29.9366 41.5789 30.1512 41.6667 30.375 41.6667H36.2812V43.3334Z" fill="white"/>
<path d="M36.2812 46.6666H31.2188C30.5474 46.6666 29.9036 46.4032 29.4289 45.9344C28.9542 45.4656 28.6875 44.8297 28.6875 44.1666C28.6875 43.5036 28.9542 42.8677 29.4289 42.3989C29.9036 41.93 30.5474 41.6666 31.2188 41.6666H36.2812V43.3333H31.2188C30.995 43.3333 30.7804 43.4211 30.6221 43.5774C30.4639 43.7336 30.375 43.9456 30.375 44.1666C30.375 44.3876 30.4639 44.5996 30.6221 44.7559C30.7804 44.9122 30.995 45 31.2188 45H36.2812V46.6666Z" fill="white"/>
<path d="M42.4347 36.4225L39.0597 33.0892C38.9015 32.9329 38.8125 32.721 38.8125 32.5V30.1275C38.292 30.261 37.8366 30.573 37.5274 31.0076C37.2183 31.4422 37.0757 31.9711 37.125 32.5V35.8333H35.4375V32.5C35.4163 31.9472 35.5109 31.396 35.7154 30.881C35.9199 30.366 36.2299 29.8983 36.626 29.5071C37.022 29.116 37.4956 28.8098 38.017 28.6078C38.5385 28.4058 39.0965 28.3124 39.6562 28.3333C39.88 28.3333 40.0946 28.4211 40.2529 28.5774C40.4111 28.7337 40.5 28.9456 40.5 29.1667V32.155L43.6278 35.2442L42.4347 36.4225Z" fill="white"/>
<path d="M53.1562 50H46.4062C46.1825 50 45.9679 49.9122 45.8096 49.7559C45.6514 49.5996 45.5625 49.3877 45.5625 49.1667V35.8333C45.5625 35.6123 45.6514 35.4004 45.8096 35.2441C45.9679 35.0878 46.1825 35 46.4062 35H53.1562C53.38 35 53.5946 35.0878 53.7529 35.2441C53.9111 35.4004 54 35.6123 54 35.8333V49.1667C54 49.3877 53.9111 49.5996 53.7529 49.7559C53.5946 49.9122 53.38 50 53.1562 50ZM47.25 48.3333H52.3125V36.6667H47.25V48.3333Z" fill="white"/>
<path d="M27 46.6666H2.53125C1.85992 46.6666 1.21609 46.4032 0.741386 45.9344C0.266684 45.4656 0 44.8297 0 44.1666C0 43.5036 0.266684 42.8677 0.741386 42.3989C1.21609 41.93 1.85992 41.6666 2.53125 41.6666H27V43.3333H2.53125C2.30747 43.3333 2.09286 43.4211 1.93463 43.5774C1.77639 43.7336 1.6875 43.9456 1.6875 44.1666C1.6875 44.3876 1.77639 44.5996 1.93463 44.7559C2.09286 44.9122 2.30747 45 2.53125 45H27V46.6666Z" fill="white"/>
<path d="M5.90625 17.5H7.59375V42.5H5.90625V17.5Z" fill="white"/>
<path d="M46.4062 17.5H48.0938V33.3333H46.4062V17.5Z" fill="white"/>
<path d="M51.4688 20.8334C51.3262 20.8332 51.186 20.7974 51.0612 20.7292L27 7.61837L2.93878 20.7292C2.81036 20.7992 2.66568 20.8349 2.51903 20.8328C2.37237 20.8307 2.22881 20.7908 2.10249 20.7172C1.97617 20.6436 1.87146 20.5388 1.79869 20.413C1.72591 20.2872 1.68759 20.1449 1.6875 20V15.8334C1.68759 15.6844 1.72811 15.5382 1.80483 15.41C1.88154 15.2817 1.99166 15.1761 2.12372 15.1042L26.5925 1.77087C26.7171 1.70242 26.8574 1.6665 27 1.6665C27.1426 1.6665 27.2829 1.70242 27.4075 1.77087L51.8763 15.1042C52.0083 15.1761 52.1185 15.2817 52.1952 15.41C52.2719 15.5382 52.3124 15.6844 52.3125 15.8334V20C52.3125 20.2211 52.2236 20.433 52.0654 20.5893C51.9071 20.7456 51.6925 20.8334 51.4688 20.8334ZM27 5.83337C27.1426 5.83353 27.2828 5.86937 27.4075 5.93754L50.625 18.5884V16.325L27 3.4517L3.375 16.325V18.5884L26.5925 5.93754C26.7172 5.86937 26.8574 5.83353 27 5.83337Z" fill="white"/>
<path d="M21.9375 43.3333H10.125C9.90122 43.3333 9.68661 43.2455 9.52838 43.0893C9.37015 42.933 9.28125 42.721 9.28125 42.5V20.8333C9.28125 20.6123 9.37015 20.4004 9.52838 20.2441C9.68661 20.0878 9.90122 20 10.125 20H21.9375C22.1613 20 22.3759 20.0878 22.5341 20.2441C22.6924 20.4004 22.7812 20.6123 22.7812 20.8333V42.5C22.7812 42.721 22.6924 42.933 22.5341 43.0893C22.3759 43.2455 22.1613 43.3333 21.9375 43.3333ZM10.9688 41.6667H21.0938V21.6667H10.9688V41.6667Z" fill="white"/>
<path d="M42.1875 31.6667V30C42.4113 30 42.6259 29.9122 42.7841 29.7559C42.9424 29.5996 43.0312 29.3877 43.0312 29.1667V22.5C43.0312 22.279 42.9424 22.067 42.7841 21.9107C42.6259 21.7545 42.4113 21.6667 42.1875 21.6667H27C26.7762 21.6667 26.5616 21.7545 26.4034 21.9107C26.2451 22.067 26.1562 22.279 26.1562 22.5V29.1667C26.1562 29.3877 26.2451 29.5996 26.4034 29.7559C26.5616 29.9122 26.7762 30 27 30H33.75V31.6667H27C26.3287 31.6667 25.6848 31.4033 25.2101 30.9344C24.7354 30.4656 24.4688 29.8297 24.4688 29.1667V22.5C24.4688 21.837 24.7354 21.2011 25.2101 20.7322C25.6848 20.2634 26.3287 20 27 20H42.1875C42.8588 20 43.5027 20.2634 43.9774 20.7322C44.4521 21.2011 44.7188 21.837 44.7188 22.5V29.1667C44.7188 29.8297 44.4521 30.4656 43.9774 30.9344C43.5027 31.4033 42.8588 31.6667 42.1875 31.6667Z" fill="white"/>
<path d="M10.125 12.1584H8.4375V4.16671C8.4375 3.94569 8.5264 3.73373 8.68463 3.57745C8.84286 3.42117 9.05747 3.33337 9.28125 3.33337H16.0312C16.255 3.33337 16.4696 3.42117 16.6279 3.57745C16.7861 3.73373 16.875 3.94569 16.875 4.16671V8.47504H15.1875V5.00004H10.125V12.1584Z" fill="white"/>
<path d="M16.875 5H8.4375C8.21372 5 7.99911 4.9122 7.84088 4.75592C7.68265 4.59964 7.59375 4.38768 7.59375 4.16667V0.833333C7.59375 0.61232 7.68265 0.400358 7.84088 0.244078C7.99911 0.0877973 8.21372 0 8.4375 0H16.875C17.0988 0 17.3134 0.0877973 17.4716 0.244078C17.6299 0.400358 17.7188 0.61232 17.7188 0.833333V4.16667C17.7188 4.38768 17.6299 4.59964 17.4716 4.75592C17.3134 4.9122 17.0988 5 16.875 5ZM9.28125 3.33333H16.0312V1.66667H9.28125V3.33333Z" fill="white"/>
<path d="M32.0625 20.8334H33.75V30.8334H32.0625V20.8334Z" fill="white"/>
<path d="M35.4375 20.8334H37.125V28.3334H35.4375V20.8334Z" fill="white"/>
<path d="M25.3125 25H32.9062V26.6667H25.3125V25Z" fill="white"/>
<path d="M36.2812 25H43.875V26.6667H36.2812V25Z" fill="white"/>
</g>
<defs>
<clipPath id="clip0_1_162">
<rect width="54" height="50" fill="white"/>
</clipPath>
</defs>
</svg>
