<svg width="50" height="50" viewBox="0 0 50 50" fill="none" xmlns="http://www.w3.org/2000/svg">
<g clip-path="url(#clip0_1_153)">
<path d="M24.9996 0.0668945C11.2562 0.0668945 0.0664062 11.2567 0.0664062 25C0.0664062 38.7434 11.2562 49.9332 24.9996 49.9332C38.7429 49.9332 49.9327 38.7434 49.9327 25C49.9327 11.2567 38.7429 0.0668945 24.9996 0.0668945ZM24.9996 48.4626C12.0584 48.4626 1.53699 37.9412 1.53699 25C1.53699 12.0589 12.0584 1.53748 24.9996 1.53748C37.9407 1.53748 48.4621 12.0589 48.4621 25C48.4621 37.9412 37.9407 48.4626 24.9996 48.4626Z" fill="white"/>
<path d="M24.9994 4.41187C13.6491 4.41187 4.41113 13.6498 4.41113 25.0001C4.41113 36.3504 13.6491 45.5883 24.9994 45.5883C36.3496 45.5883 45.5876 36.3504 45.5876 25.0001C45.5876 13.6498 36.3496 4.41187 24.9994 4.41187ZM39.0234 37.9814L37.6063 36.5643C37.3256 36.2835 36.8577 36.2835 36.5635 36.5643C36.2828 36.845 36.2828 37.3129 36.5635 37.6071L37.9807 39.0242C34.732 42.0322 30.4539 43.9306 25.7347 44.1044V42.0857C25.7347 41.6846 25.4004 41.3504 24.9994 41.3504C24.5983 41.3504 24.2641 41.6846 24.2641 42.0857V44.1044C19.5448 43.9306 15.2667 42.0322 12.0181 39.0242L13.4352 37.6071C13.7159 37.3263 13.7159 36.8584 13.4352 36.5643C13.1544 36.2835 12.6865 36.2835 12.3924 36.5643L10.9753 37.9814C7.96728 34.7327 6.06889 30.4546 5.89509 25.7354H7.91381C8.31488 25.7354 8.6491 25.4012 8.6491 25.0001C8.6491 24.599 8.31488 24.2648 7.91381 24.2648H5.89509C6.06889 19.5456 7.96728 15.2541 10.9753 12.0188L12.3924 13.4359C12.5395 13.583 12.7266 13.6498 12.9138 13.6498C13.101 13.6498 13.2881 13.583 13.4352 13.4359C13.7159 13.1552 13.7159 12.6873 13.4352 12.3931L12.0181 10.976C15.2667 7.96802 19.5448 6.06962 24.2641 5.89582V7.91454C24.2641 8.31561 24.5983 8.64983 24.9994 8.64983C25.4004 8.64983 25.7347 8.31561 25.7347 7.91454V5.89582C30.4539 6.06962 34.7454 7.96802 37.9807 10.976L36.5635 12.3931C36.2828 12.6739 36.2828 13.1418 36.5635 13.4359C36.7106 13.583 36.8978 13.6498 37.0849 13.6498C37.2721 13.6498 37.4593 13.583 37.6063 13.4359L39.0234 12.0188C42.0315 15.2675 43.9299 19.5456 44.1036 24.2648H42.0849C41.6839 24.2648 41.3496 24.599 41.3496 25.0001C41.3496 25.4012 41.6839 25.7354 42.0849 25.7354H44.1036C43.9299 30.4546 42.0315 34.7461 39.0234 37.9814Z" fill="white"/>
<path d="M24.9724 12.5535C24.5714 12.5535 24.2371 12.8877 24.2371 13.2888V24.2781H17.3788C16.9778 24.2781 16.6436 24.6123 16.6436 25.0134C16.6436 25.4144 16.9778 25.7487 17.3788 25.7487H24.9724C25.3735 25.7487 25.7077 25.4144 25.7077 25.0134V13.2888C25.7077 12.8877 25.3869 12.5535 24.9724 12.5535Z" fill="white"/>
</g>
<defs>
<clipPath id="clip0_1_153">
<rect width="50" height="50" fill="white"/>
</clipPath>
</defs>
</svg>
