<svg width="49" height="50" viewBox="0 0 49 50" fill="none" xmlns="http://www.w3.org/2000/svg">
<g clip-path="url(#clip0_1_184)">
<path d="M35.4828 0H8.44828C6.11634 0.00284831 4.22703 1.86646 4.22414 4.16667V44.1667H0.844828C0.378275 44.1667 0 44.5398 0 45C0.0028876 47.7604 2.27047 49.9972 5.06897 50L32.9483 49.9166C34.9139 49.5178 36.3251 47.8125 36.3276 45.8333V5.83333H39.7069C40.1735 5.83333 40.5517 5.46021 40.5517 5C40.5488 2.23958 38.2812 0.00284831 35.4828 0ZM1.79691 45.8333H27.9552C28.1153 46.7643 28.5402 47.6314 29.1804 48.3333H5.06897C3.52864 48.3317 2.18385 47.3039 1.79691 45.8333ZM34.6379 45.8333C34.6342 47.0504 33.7424 48.088 32.5259 48.291C30.8412 48.0843 29.5743 46.6748 29.569 45V44.1667H5.91379V4.16667C5.91379 2.78605 7.04862 1.66667 8.44828 1.66667H34.6379V45.8333ZM36.3276 4.16667V1.78426C37.5148 2.08537 38.4438 2.99683 38.7548 4.16667H36.3276Z" fill="white"/>
<path d="M48.1551 14.1667H46.4654V11.6667C46.4654 11.2065 46.0872 10.8334 45.6206 10.8334H42.2413C41.7748 10.8334 41.3965 11.2065 41.3965 11.6667V43.3334C41.3969 43.4978 41.446 43.6589 41.5384 43.796L43.228 46.296C43.3848 46.5275 43.6484 46.6667 43.931 46.6667C44.2135 46.6667 44.4771 46.5275 44.6339 46.296L46.3235 43.796C46.4159 43.6589 46.465 43.4978 46.4654 43.3334V15.8334H47.3103V22.5C47.3103 22.9602 47.6886 23.3334 48.1551 23.3334C48.6217 23.3334 48.9999 22.9602 48.9999 22.5V15C48.9999 14.5398 48.6217 14.1667 48.1551 14.1667ZM44.7758 12.5V14.1667H43.0861V12.5H44.7758ZM44.7758 43.0835L43.931 44.3335L43.0861 43.0835V15.8334H44.7758V43.0835Z" fill="white"/>
<path d="M12.6723 8.33337C10.8061 8.33337 9.29297 9.82589 9.29297 11.6667C9.29297 13.5075 10.8061 15 12.6723 15C14.5385 15 16.0516 13.5075 16.0516 11.6667C16.0516 9.82589 14.5385 8.33337 12.6723 8.33337ZM12.6723 13.3334C11.7392 13.3334 10.9826 12.5871 10.9826 11.6667C10.9826 10.7463 11.7392 10 12.6723 10C13.6054 10 14.3619 10.7463 14.3619 11.6667C14.3619 12.5871 13.6054 13.3334 12.6723 13.3334Z" fill="white"/>
<path d="M16.8965 10.8334H18.5861V12.5H16.8965V10.8334Z" fill="white"/>
<path d="M19.4307 10.8334H32.1031V12.5H19.4307V10.8334Z" fill="white"/>
<path d="M12.6723 16.6666C10.8061 16.6666 9.29297 18.1591 9.29297 20C9.29297 21.8408 10.8061 23.3333 12.6723 23.3333C14.5385 23.3333 16.0516 21.8408 16.0516 20C16.0516 18.1591 14.5385 16.6666 12.6723 16.6666ZM12.6723 21.6666C11.7392 21.6666 10.9826 20.9204 10.9826 20C10.9826 19.0795 11.7392 18.3333 12.6723 18.3333C13.6054 18.3333 14.3619 19.0795 14.3619 20C14.3619 20.9204 13.6054 21.6666 12.6723 21.6666Z" fill="white"/>
<path d="M16.8965 19.1666H18.5861V20.8333H16.8965V19.1666Z" fill="white"/>
<path d="M19.4307 19.1666H32.1031V20.8333H19.4307V19.1666Z" fill="white"/>
<path d="M12.6723 25C10.8061 25 9.29297 26.4925 9.29297 28.3333C9.29297 30.1742 10.8061 31.6667 12.6723 31.6667C14.5385 31.6667 16.0516 30.1742 16.0516 28.3333C16.0516 26.4925 14.5385 25 12.6723 25ZM12.6723 30C11.7392 30 10.9826 29.2537 10.9826 28.3333C10.9826 27.4129 11.7392 26.6667 12.6723 26.6667C13.6054 26.6667 14.3619 27.4129 14.3619 28.3333C14.3619 29.2537 13.6054 30 12.6723 30Z" fill="white"/>
<path d="M16.8965 27.5H18.5861V29.1667H16.8965V27.5Z" fill="white"/>
<path d="M19.4307 27.5H32.1031V29.1667H19.4307V27.5Z" fill="white"/>
<path d="M12.6723 33.3334C10.8061 33.3334 9.29297 34.8259 9.29297 36.6667C9.29297 38.5075 10.8061 40 12.6723 40C14.5385 40 16.0516 38.5075 16.0516 36.6667C16.0516 34.8259 14.5385 33.3334 12.6723 33.3334ZM12.6723 38.3334C11.7392 38.3334 10.9826 37.5871 10.9826 36.6667C10.9826 35.7463 11.7392 35 12.6723 35C13.6054 35 14.3619 35.7463 14.3619 36.6667C14.3619 37.5871 13.6054 38.3334 12.6723 38.3334Z" fill="white"/>
<path d="M16.8965 35.8334H18.5861V37.5H16.8965V35.8334Z" fill="white"/>
<path d="M19.4307 35.8334H32.1031V37.5H19.4307V35.8334Z" fill="white"/>
<path d="M32.1035 41.6666H33.7932V43.3333H32.1035V41.6666Z" fill="white"/>
<path d="M29.5693 41.6666H31.259V43.3333H29.5693V41.6666Z" fill="white"/>
<path d="M32.1035 39.1666H33.7932V40.8333H32.1035V39.1666Z" fill="white"/>
<path d="M26.1896 4.58333C26.1896 3.43262 25.2441 2.5 24.0775 2.5H19.0086C17.842 2.5 16.8965 3.43262 16.8965 4.58333C16.8965 5.73405 17.842 6.66667 19.0086 6.66667H24.0775C25.2441 6.66667 26.1896 5.73405 26.1896 4.58333ZM18.5861 4.58333C18.5861 4.35303 18.7751 4.16667 19.0086 4.16667H24.0775C24.311 4.16667 24.4999 4.35303 24.4999 4.58333C24.4999 4.81364 24.311 5 24.0775 5H19.0086C18.7751 5 18.5861 4.81364 18.5861 4.58333Z" fill="white"/>
</g>
<defs>
<clipPath id="clip0_1_184">
<rect width="49" height="50" fill="white"/>
</clipPath>
</defs>
</svg>
