<svg width="77" height="15" viewBox="0 0 77 15" fill="none" xmlns="http://www.w3.org/2000/svg">
<path fill-rule="evenodd" clip-rule="evenodd" d="M2.22777 12.6599L2.44079 12.3749V12.3563H2.38522V12.3162H2.59824V12.3563H2.54267V12.7525H2.59824V12.7927H2.38522V12.7525H2.44079V12.4407L2.22777 12.7268V12.7525H2.28334V12.7927H2.07031V12.7525H2.12588V12.3563H2.07031V12.3162H2.28334V12.3563H2.22777V12.6599ZM2.8123 12.5591V12.7515H2.86787V12.7916H2.65484V12.7515H2.71041V12.3553H2.65484V12.3152H2.86787V12.3553H2.8123V12.5189H3.02532V12.3553H2.96975V12.3152H3.18277V12.3553H3.1272V12.7515H3.18277V12.7916H2.96975V12.7515H3.02532V12.5591H2.8123ZM3.66234 12.3141V12.4489H3.6222C3.62014 12.4191 3.60676 12.3954 3.58309 12.3759C3.5584 12.3574 3.53061 12.3471 3.49974 12.3471C3.4596 12.3471 3.42358 12.3646 3.39065 12.3985C3.35772 12.4325 3.34228 12.487 3.34228 12.5632C3.34228 12.6167 3.35669 12.663 3.38551 12.7011C3.41432 12.7392 3.45549 12.7587 3.509 12.7587C3.53678 12.7587 3.56148 12.7525 3.58309 12.7402C3.60471 12.7278 3.62426 12.7103 3.64072 12.6887L3.67571 12.7165C3.65101 12.7412 3.62426 12.7608 3.59441 12.7762C3.56457 12.7916 3.53061 12.7999 3.49253 12.7999C3.41947 12.7999 3.35669 12.7772 3.30318 12.7319C3.24966 12.6867 3.22394 12.628 3.22394 12.556C3.22394 12.4839 3.24864 12.4212 3.29803 12.3759C3.34743 12.3306 3.4102 12.308 3.48533 12.308C3.49974 12.308 3.51312 12.309 3.52444 12.3121C3.53678 12.3152 3.5481 12.3193 3.56045 12.3244C3.56766 12.3275 3.57486 12.3316 3.58206 12.3357C3.58927 12.3399 3.59647 12.345 3.60471 12.3502L3.62632 12.3131H3.66234V12.3141ZM4.02561 12.7927H3.81258V12.7525H3.86816V12.3563H3.75393V12.4057H3.70967V12.3162H4.12852V12.4057H4.08427V12.3563H3.97004V12.7525H4.02561V12.7927ZM4.32611 12.6105V12.7525H4.38271V12.7927H4.16865V12.7525H4.22423V12.3563H4.16865V12.3162H4.34669C4.35698 12.3162 4.3683 12.3162 4.37962 12.3162C4.39094 12.3162 4.40329 12.3183 4.41461 12.3193C4.44857 12.3244 4.48047 12.3357 4.50826 12.3563C4.53707 12.3759 4.55045 12.4098 4.55045 12.4592C4.55045 12.4994 4.53604 12.5344 4.50723 12.5652C4.47841 12.5951 4.42284 12.6105 4.34154 12.6095H4.32508L4.32611 12.6105ZM4.32611 12.3563V12.5745H4.33228C4.33228 12.5745 4.33434 12.5745 4.33537 12.5745H4.33948C4.34463 12.5745 4.35183 12.5745 4.35801 12.5735C4.36418 12.5735 4.37139 12.5714 4.37859 12.5694C4.39711 12.5642 4.41358 12.5529 4.42902 12.5364C4.44445 12.52 4.45166 12.4922 4.45166 12.4551C4.45166 12.4232 4.44342 12.4006 4.42799 12.3862C4.41152 12.3718 4.39403 12.3625 4.3755 12.3584C4.36933 12.3574 4.36315 12.3563 4.35698 12.3553C4.35081 12.3553 4.34463 12.3553 4.33948 12.3553H4.33331C4.33331 12.3553 4.33125 12.3553 4.33022 12.3553H4.32714L4.32611 12.3563ZM4.83551 12.5755L4.93328 12.3563H4.87874V12.3162H5.0259V12.3563H4.97341L4.81081 12.7227C4.81081 12.7227 4.80773 12.7299 4.80567 12.733C4.80361 12.7371 4.80258 12.7402 4.80052 12.7443C4.79435 12.7577 4.78509 12.7711 4.77377 12.7824C4.76245 12.7937 4.74495 12.7999 4.72231 12.7999C4.71819 12.7999 4.71408 12.7999 4.70996 12.7999C4.70585 12.7999 4.70173 12.7999 4.69761 12.7988C4.69144 12.7978 4.68423 12.7958 4.67806 12.7937C4.67189 12.7916 4.66571 12.7896 4.65954 12.7855L4.68835 12.7196C4.68835 12.7196 4.69144 12.7217 4.6935 12.7237C4.69555 12.7258 4.69761 12.7268 4.7007 12.7289C4.70482 12.732 4.70996 12.734 4.71511 12.7371C4.72025 12.7392 4.72643 12.7412 4.73157 12.7412H4.73569C4.74701 12.7412 4.75524 12.7381 4.76039 12.733C4.76656 12.7278 4.77068 12.7217 4.77377 12.7155C4.77377 12.7155 4.77377 12.7134 4.7748 12.7134V12.7114L4.782 12.6939L4.60808 12.3574H4.56486V12.3172H4.76656V12.3574H4.70996L4.82316 12.5766L4.82625 12.5951H4.83037L4.83243 12.5766L4.83551 12.5755ZM5.37168 12.6476L5.53839 12.3162H5.69276V12.3563H5.63718V12.7525H5.69276V12.7927H5.48282V12.7525H5.53839V12.4129L5.37168 12.7494H5.31816L5.14939 12.4129V12.7525H5.20496V12.7927H5.05574V12.7525H5.11131V12.3563H5.05574V12.3162H5.20599L5.37168 12.6476ZM5.75039 12.7525H5.80596V12.3563H5.75039V12.3162H6.12086V12.4098H6.08279V12.3635H5.90784V12.5189H6.05706V12.4664H6.09411V12.6085H6.05706V12.5591H5.90784V12.7443H6.09822V12.6898H6.13527V12.7916H5.75141V12.7515L5.75039 12.7525ZM6.34726 12.5601V12.7525H6.40284V12.7927H6.18981V12.7525H6.24538V12.3563H6.18981V12.3162H6.40284V12.3563H6.34726V12.52H6.56029V12.3563H6.50472V12.3162H6.71774V12.3563H6.66217V12.7525H6.71774V12.7927H6.50472V12.7525H6.56029V12.5601H6.34726ZM7.07278 12.7927H6.85976V12.7525H6.91533V12.3563H6.8011V12.4057H6.75685V12.3162H7.17569V12.4057H7.13144V12.3563H7.01721V12.7525H7.07278V12.7927ZM7.50398 12.6609H7.29507L7.25905 12.7525H7.31051V12.7927H7.16643V12.7525H7.21994L7.39695 12.3162H7.45561L7.65011 12.7525H7.70362V12.7927H7.48854V12.7525H7.54411L7.50398 12.6609ZM7.3918 12.4212L7.31051 12.6229H7.48854L7.40004 12.4212L7.39798 12.4057H7.39386L7.3918 12.4212ZM7.92797 12.4212L7.92385 12.4407L7.80859 12.7392C7.80859 12.7392 7.80653 12.7453 7.80448 12.7484C7.80345 12.7515 7.80139 12.7546 7.80036 12.7577C7.79521 12.768 7.78801 12.7772 7.77772 12.7865C7.76743 12.7947 7.75302 12.7988 7.7345 12.7988C7.72832 12.7988 7.72112 12.7988 7.71494 12.7968C7.70877 12.7958 7.70259 12.7947 7.69745 12.7937C7.69436 12.7937 7.6923 12.7916 7.68922 12.7916C7.68716 12.7916 7.6851 12.7916 7.68304 12.7906L7.717 12.7134C7.717 12.7134 7.72215 12.7175 7.72523 12.7186C7.72832 12.7206 7.73141 12.7217 7.7345 12.7227C7.73655 12.7227 7.73861 12.7227 7.74067 12.7237C7.74273 12.7237 7.74479 12.7237 7.74684 12.7237C7.75508 12.7237 7.76228 12.7206 7.76743 12.7134C7.77257 12.7073 7.77772 12.7 7.78081 12.6918C7.78081 12.6918 7.78081 12.6918 7.78081 12.6908L7.91356 12.3553H7.86005V12.3152H7.98971L8.15231 12.7515H8.19965V12.7916H7.99383V12.7515H8.04837L7.93311 12.4397L7.93003 12.4201H7.92591L7.92797 12.4212ZM8.28712 12.7515V12.3553H8.23155V12.3152H8.44458V12.3553H8.38901V12.5179H8.44972C8.50426 12.5179 8.54646 12.5292 8.57836 12.5519C8.61026 12.5745 8.6257 12.6074 8.6257 12.6507C8.6257 12.6856 8.61232 12.7175 8.58556 12.7474C8.55881 12.7762 8.50529 12.7916 8.42502 12.7916H8.23258V12.7515H8.28815H8.28712ZM8.38901 12.7515H8.42502C8.45281 12.7515 8.47545 12.7422 8.49397 12.7227C8.5125 12.7031 8.52073 12.6795 8.52073 12.6517C8.52073 12.6486 8.52073 12.6465 8.52073 12.6434C8.52073 12.6414 8.52073 12.6383 8.52073 12.6352C8.51764 12.6157 8.50838 12.5982 8.49294 12.5817C8.47751 12.5652 8.45178 12.557 8.41782 12.557H8.39003V12.7505L8.38901 12.7515ZM8.8274 12.5591V12.7515H8.88297V12.7916H8.66995V12.7515H8.72552V12.3553H8.66995V12.3152H8.88297V12.3553H8.8274V12.5189H9.04043V12.3553H8.98486V12.3152H9.19788V12.3553H9.14231V12.7515H9.19788V12.7916H8.98486V12.7515H9.04043V12.5591H8.8274ZM9.31314 12.7515V12.3553H9.25757V12.3152H9.47059V12.3553H9.41502V12.5179H9.47985C9.47985 12.5179 9.49323 12.5179 9.51073 12.52C9.52822 12.521 9.54675 12.5251 9.5663 12.5333C9.58894 12.5405 9.60849 12.5539 9.62702 12.5724C9.64554 12.591 9.6548 12.6167 9.6548 12.6517C9.6548 12.6949 9.63937 12.7289 9.60746 12.7546C9.57556 12.7793 9.52514 12.7927 9.45516 12.7927H9.2586V12.7525H9.31417L9.31314 12.7515ZM9.41502 12.7515H9.45516C9.48397 12.7515 9.50661 12.7422 9.52514 12.7227C9.54263 12.7031 9.55189 12.6795 9.55189 12.6517C9.55189 12.6486 9.55189 12.6424 9.54983 12.6342C9.5488 12.6249 9.54572 12.6157 9.54057 12.6054C9.5344 12.593 9.52308 12.5827 9.5097 12.5724C9.49529 12.5621 9.47471 12.557 9.44795 12.557H9.41502V12.7505V12.7515ZM9.73713 12.7515V12.3553H9.68156V12.3152H9.89458V12.3553H9.83901V12.7515H9.89458V12.7916H9.68156V12.7515H9.73713ZM10.1097 12.6589L10.3227 12.3738V12.3553H10.2671V12.3152H10.4801V12.3553H10.4246V12.7515H10.4801V12.7916H10.2671V12.7515H10.3227V12.4397L10.1097 12.7258V12.7515H10.1652V12.7916H9.95221V12.7515H10.0078V12.3553H9.95221V12.3152H10.1652V12.3553H10.1097V12.6589ZM10.3381 12.1793V12.1814V12.1834V12.1886C10.3381 12.2153 10.3289 12.2339 10.3103 12.2431C10.2918 12.2534 10.2723 12.2596 10.2507 12.2616C10.2445 12.2616 10.2383 12.2617 10.2321 12.2627C10.226 12.2627 10.2208 12.2627 10.2146 12.2627C10.2085 12.2627 10.2002 12.2627 10.192 12.2627C10.1838 12.2627 10.1745 12.2616 10.1663 12.2606C10.1477 12.2575 10.1302 12.2514 10.1148 12.2411C10.0994 12.2308 10.0911 12.2133 10.0911 12.1886V12.1865C10.0911 12.1865 10.0911 12.1855 10.0911 12.1845V12.1804H10.1663C10.1663 12.1804 10.1652 12.1855 10.1642 12.1886C10.1642 12.1917 10.1632 12.1937 10.1632 12.1968V12.1999C10.1632 12.2081 10.1683 12.2153 10.1745 12.2215C10.1817 12.2277 10.1941 12.2318 10.2136 12.2318C10.2167 12.2318 10.2198 12.2318 10.2229 12.2318C10.226 12.2318 10.2301 12.2318 10.2342 12.2297C10.2414 12.2287 10.2486 12.2256 10.2548 12.2205C10.2609 12.2153 10.264 12.2071 10.264 12.1958C10.264 12.1937 10.264 12.1906 10.264 12.1886C10.264 12.1855 10.264 12.1834 10.262 12.1804H10.3361L10.3381 12.1793ZM10.9093 12.5549V12.52H10.9309C10.9628 12.52 10.9875 12.5097 11.0019 12.4901C11.0173 12.4695 11.0256 12.4469 11.0256 12.4212C11.0256 12.3965 11.0173 12.379 11.0009 12.3676C10.9844 12.3563 10.9659 12.3502 10.9463 12.3491C10.9443 12.3491 10.9422 12.3491 10.9412 12.3491H10.936C10.9103 12.3491 10.8887 12.3574 10.8722 12.3749C10.8558 12.3913 10.8465 12.4129 10.8455 12.4397H10.8074V12.3275H10.8455L10.8578 12.3543C10.8578 12.3543 10.863 12.3491 10.8671 12.345C10.8712 12.3409 10.8763 12.3368 10.8836 12.3327C10.8928 12.3265 10.9052 12.3213 10.9216 12.3162C10.9371 12.311 10.9566 12.309 10.9803 12.309C10.9885 12.309 10.9978 12.309 11.0081 12.311C11.0184 12.3121 11.0287 12.3141 11.0389 12.3183C11.0606 12.3244 11.0811 12.3357 11.0986 12.3512C11.1161 12.3666 11.1254 12.3893 11.1254 12.4181C11.1254 12.4253 11.1254 12.4325 11.1254 12.4407C11.1254 12.4489 11.1233 12.4572 11.1202 12.4654C11.1161 12.4778 11.1079 12.4901 11.0966 12.5014C11.0853 12.5128 11.0678 12.523 11.0451 12.5313H11.0266V12.5364L11.0441 12.5385C11.0739 12.5447 11.0955 12.5529 11.112 12.5663C11.1274 12.5786 11.1388 12.592 11.1449 12.6054C11.148 12.6115 11.1501 12.6187 11.1521 12.6249C11.1532 12.6311 11.1542 12.6373 11.1542 12.6424C11.1542 12.6507 11.1542 12.662 11.1521 12.6743C11.1501 12.6867 11.146 12.7 11.1398 12.7134C11.1295 12.7361 11.11 12.7556 11.0811 12.7741C11.0523 12.7927 11.0091 12.8009 10.9494 12.8009C10.9185 12.8009 10.8949 12.7978 10.8763 12.7916C10.8578 12.7855 10.8424 12.7772 10.829 12.7659V12.7988H10.7909V12.6743H10.829C10.829 12.7021 10.8414 12.7237 10.8619 12.7392C10.8836 12.7546 10.9103 12.7618 10.9432 12.7618C10.9762 12.7618 11.0019 12.7515 11.0204 12.7319C11.0389 12.7114 11.0482 12.6846 11.0482 12.6517C11.0482 12.6249 11.042 12.6043 11.0287 12.592C11.0153 12.5796 11.0009 12.5704 10.9854 12.5652C10.9751 12.5621 10.9649 12.5601 10.9556 12.5591C10.9463 12.5591 10.9381 12.558 10.9319 12.558H10.9103L10.9093 12.5549ZM11.4938 12.6599H11.2849L11.2489 12.7515H11.3003V12.7916H11.1563V12.7515H11.2098L11.3868 12.3152H11.4454L11.6399 12.7515H11.6935V12.7916H11.4784V12.7515H11.5339L11.4938 12.6599ZM11.3816 12.4201L11.3003 12.6218H11.4784L11.3899 12.4201L11.3878 12.4047H11.3837L11.3816 12.4201ZM11.9816 12.5313V12.5344C11.9878 12.5344 11.996 12.5364 12.0053 12.5374C12.0145 12.5395 12.0248 12.5416 12.0341 12.5457C12.0526 12.5519 12.068 12.5632 12.0835 12.5796C12.0979 12.5951 12.1051 12.6187 12.1051 12.6486C12.1051 12.6939 12.0886 12.7289 12.0567 12.7515C12.0248 12.7752 11.9888 12.7875 11.9497 12.7896C11.9476 12.7896 11.9446 12.7896 11.9425 12.7896H11.7027V12.7494H11.7583V12.3532H11.7027V12.3131H11.924C11.9693 12.3131 12.0032 12.3203 12.0248 12.3337C12.0475 12.3471 12.0629 12.3625 12.0711 12.379C12.0753 12.3862 12.0773 12.3934 12.0794 12.4006C12.0804 12.4078 12.0814 12.414 12.0814 12.4201C12.0814 12.4531 12.0722 12.4778 12.0536 12.4953C12.0351 12.5128 12.0156 12.523 11.9929 12.5282C11.9909 12.5282 11.9888 12.5282 11.9867 12.5292C11.9847 12.5292 11.9826 12.5292 11.9806 12.5292L11.9816 12.5313ZM11.8602 12.7515H11.9013C11.9322 12.7515 11.9559 12.7412 11.9754 12.7217C11.994 12.7021 12.0032 12.6784 12.0032 12.6517C12.0032 12.6496 12.0032 12.6465 12.0032 12.6445C12.0032 12.6424 12.0032 12.6404 12.0032 12.6373C12.0001 12.6167 11.9909 12.5982 11.9744 12.5817C11.9579 12.5652 11.9312 12.557 11.8941 12.557H11.8612V12.7505L11.8602 12.7515ZM11.8602 12.5179H11.8941C11.9209 12.5179 11.9404 12.5107 11.9548 12.4963C11.9693 12.4819 11.9775 12.4664 11.9816 12.4489C11.9816 12.4459 11.9826 12.4428 11.9837 12.4397C11.9837 12.4366 11.9837 12.4335 11.9837 12.4304C11.9837 12.4284 11.9837 12.4263 11.9837 12.4253C11.9837 12.4232 11.9837 12.4222 11.9837 12.4201C11.9816 12.4037 11.9734 12.3893 11.959 12.3759C11.9446 12.3625 11.9229 12.3553 11.8941 12.3553H11.8612V12.5179H11.8602ZM12.1432 12.5529C12.1432 12.4911 12.1679 12.4345 12.2162 12.3831C12.2646 12.3327 12.3294 12.3069 12.4097 12.3069C12.49 12.3069 12.5517 12.3306 12.5991 12.3779C12.6464 12.4253 12.6721 12.4778 12.6773 12.5354C12.6773 12.5385 12.6773 12.5416 12.6773 12.5436C12.6773 12.5467 12.6773 12.5498 12.6773 12.5519C12.6773 12.6136 12.6526 12.6702 12.6042 12.7206C12.5548 12.7721 12.491 12.7968 12.4097 12.7968C12.3284 12.7968 12.2677 12.7731 12.2214 12.7247C12.174 12.6764 12.1493 12.6239 12.1442 12.5673C12.1442 12.5642 12.1442 12.5621 12.1442 12.5591V12.5519L12.1432 12.5529ZM12.2605 12.5529C12.2605 12.626 12.2759 12.6795 12.3068 12.7134C12.3377 12.7474 12.3716 12.7639 12.4097 12.7639H12.4118C12.4488 12.7639 12.4828 12.7464 12.5136 12.7134C12.5445 12.6805 12.56 12.627 12.56 12.5539C12.56 12.4881 12.5456 12.4366 12.5178 12.3985C12.49 12.3615 12.454 12.3419 12.4097 12.3419C12.3655 12.3419 12.3284 12.3615 12.3017 12.4006C12.2749 12.4397 12.2615 12.4901 12.2615 12.5539L12.2605 12.5529ZM12.9737 12.3141L13.1321 12.7505H13.1867V12.9223H13.1116V12.7896H12.7627V12.9223H12.6876V12.7505H12.7421L12.8913 12.3543H12.8388V12.3141H12.9737ZM12.9078 12.4345L12.7925 12.7422H13.022L12.9191 12.4335L12.916 12.4119H12.9119L12.9078 12.4345Z" fill="#1466B9"/>
<path fill-rule="evenodd" clip-rule="evenodd" d="M2.60742 13.8116L2.84823 13.4535H3.01083L2.77619 13.8116L3.01083 14.1697H2.84823L2.60742 13.8116ZM2.95938 13.8116L3.20224 13.4535H3.36484L3.12815 13.8116L3.36484 14.1697H3.20224L2.95938 13.8116ZM4.30235 13.5883V13.5975C4.31985 13.5986 4.34146 13.6017 4.36719 13.6058C4.39292 13.6099 4.41761 13.6171 4.44334 13.6274C4.49171 13.6449 4.53493 13.6747 4.57404 13.7169C4.61314 13.7591 4.6327 13.8209 4.6327 13.9011C4.6327 14.0226 4.58947 14.1142 4.50406 14.1759C4.41864 14.2376 4.32397 14.2716 4.22003 14.2778C4.21385 14.2788 4.20768 14.2798 4.20253 14.2798H3.56346V14.1738H3.71165V13.119H3.56346V13.013H4.15211C4.27251 13.013 4.36204 13.0315 4.4207 13.0665C4.48039 13.1025 4.52155 13.1427 4.54419 13.1869C4.55449 13.2055 4.56169 13.225 4.56478 13.2435C4.56889 13.2621 4.57095 13.2796 4.57095 13.295C4.57095 13.3825 4.54625 13.4483 4.49788 13.4946C4.44952 13.5409 4.39497 13.5698 4.33632 13.5811C4.33117 13.5821 4.32602 13.5831 4.31985 13.5852C4.3147 13.5862 4.30853 13.5873 4.30338 13.5873L4.30235 13.5883ZM3.98025 14.1749H4.09036C4.17166 14.1749 4.23649 14.1481 4.28589 14.0967C4.33632 14.0442 4.36101 13.9824 4.36101 13.9104C4.36101 13.9042 4.36101 13.898 4.36101 13.8919C4.36101 13.8867 4.36101 13.8805 4.36101 13.8744C4.35381 13.8198 4.32808 13.7704 4.28486 13.7262C4.24164 13.6819 4.1696 13.6603 4.06978 13.6603H3.9823V14.1749H3.98025ZM3.98025 13.5533H4.07081C4.14181 13.5533 4.19533 13.5348 4.23238 13.4967C4.26942 13.4586 4.29309 13.4175 4.30338 13.3722C4.30544 13.3629 4.3075 13.3547 4.30853 13.3464C4.30853 13.3382 4.30853 13.33 4.30853 13.3207C4.30853 13.3156 4.30853 13.3115 4.30853 13.3063C4.30853 13.3022 4.30853 13.297 4.30853 13.2919C4.30235 13.2487 4.28074 13.2096 4.2437 13.1736C4.20665 13.1375 4.14902 13.12 4.07081 13.12H3.98127V13.5533H3.98025ZM4.73149 13.6459C4.73149 13.4802 4.79632 13.33 4.92599 13.1952C5.05566 13.0604 5.22649 12.9924 5.44054 12.9924C5.6546 12.9924 5.81719 13.0552 5.94275 13.1818C6.0683 13.3084 6.13725 13.4473 6.14959 13.6006C6.14959 13.6078 6.14959 13.6161 6.14959 13.6233C6.14959 13.6305 6.14959 13.6387 6.14959 13.6459C6.14959 13.8095 6.08476 13.9598 5.95406 14.0956C5.8244 14.2315 5.65151 14.2994 5.43746 14.2994C5.2234 14.2994 5.0608 14.2356 4.93525 14.108C4.81073 13.9804 4.74178 13.8404 4.73046 13.6871C4.72943 13.6799 4.7284 13.6727 4.7284 13.6655V13.6459H4.73149ZM5.04434 13.648C5.04434 13.8425 5.0855 13.9845 5.16783 14.074C5.25016 14.1636 5.34072 14.2088 5.44054 14.2088H5.44569C5.54448 14.2078 5.63401 14.1625 5.71634 14.073C5.79867 13.9845 5.83983 13.8425 5.83983 13.648C5.83983 13.473 5.80279 13.3351 5.72663 13.2353C5.65151 13.1355 5.5558 13.0861 5.43951 13.0861C5.32322 13.0861 5.2234 13.1375 5.15136 13.2415C5.07933 13.3454 5.04331 13.4802 5.04331 13.649L5.04434 13.648ZM7.38246 13.0079V13.366H7.2744C7.26926 13.2878 7.23427 13.223 7.16944 13.1725C7.1046 13.1221 7.03051 13.0964 6.94715 13.0964C6.84115 13.0964 6.74442 13.1417 6.65797 13.2322C6.57153 13.3228 6.5283 13.4689 6.5283 13.6696C6.5283 13.8126 6.56638 13.9351 6.64356 14.037C6.72075 14.1389 6.83086 14.1903 6.97288 14.1903C7.04697 14.1903 7.11283 14.1738 7.17046 14.1399C7.22809 14.1059 7.27955 14.0606 7.32483 14.003L7.41745 14.0771C7.35159 14.143 7.27955 14.1965 7.20031 14.2366C7.12107 14.2778 7.03154 14.2984 6.93068 14.2984C6.73618 14.2984 6.56844 14.2387 6.42745 14.1183C6.28647 13.9979 6.21546 13.8425 6.21546 13.6511C6.21546 13.4596 6.28132 13.2919 6.41202 13.1725C6.54374 13.0521 6.70943 12.9924 6.9101 12.9924C6.94818 12.9924 6.98317 12.9965 7.01507 13.0038C7.04697 13.011 7.07887 13.0223 7.11078 13.0357C7.1293 13.0449 7.14885 13.0552 7.16841 13.0665C7.18796 13.0789 7.20751 13.0912 7.2281 13.1056L7.28675 13.0068H7.38143L7.38246 13.0079ZM8.24382 13.4699L8.50933 13.12H8.36217V13.014H8.78204V13.12H8.63076L8.30145 13.5502L8.7594 14.1749H8.91891V14.2809H8.30145V14.1749H8.44758L8.13371 13.7416L7.80439 14.1749H7.94229V14.2809H7.53168V14.1749H7.67781L8.06784 13.6613L7.67781 13.12H7.55844V13.014H8.13371V13.12H7.98757L8.24485 13.4699H8.24382ZM8.99712 13.6459C8.99712 13.4802 9.06196 13.33 9.19162 13.1952C9.32129 13.0604 9.49212 12.9924 9.70617 12.9924C9.92023 12.9924 10.0828 13.0552 10.2084 13.1818C10.3339 13.3084 10.4029 13.4473 10.4152 13.6006C10.4152 13.6078 10.4152 13.6161 10.4152 13.6233C10.4152 13.6305 10.4152 13.6387 10.4152 13.6459C10.4152 13.8095 10.3504 13.9598 10.2197 14.0956C10.09 14.2315 9.91714 14.2994 9.70309 14.2994C9.48903 14.2994 9.32644 14.2356 9.20089 14.108C9.07636 13.9804 9.00741 13.8404 8.99609 13.6871C8.99507 13.6799 8.99404 13.6727 8.99404 13.6655V13.6459H8.99712ZM9.30997 13.648C9.30997 13.8425 9.35113 13.9845 9.43346 14.074C9.51579 14.1636 9.60635 14.2088 9.70617 14.2088H9.71235C9.81114 14.2078 9.90068 14.1625 9.983 14.073C10.0653 13.9845 10.1065 13.8425 10.1065 13.648C10.1065 13.473 10.0694 13.3351 9.99432 13.2353C9.9192 13.1355 9.82349 13.0861 9.7072 13.0861C9.59092 13.0861 9.49109 13.1375 9.41905 13.2415C9.34702 13.3454 9.311 13.4802 9.311 13.649L9.30997 13.648ZM11.2087 13.014L11.6285 14.1749H11.7747V14.6328H11.5761V14.2809H10.6478V14.6328H10.4492V14.1749H10.5933L10.9905 13.12H10.8505V13.014H11.2087ZM11.0327 13.3341L10.726 14.1543H11.3373L11.0625 13.332L11.0553 13.2734H11.044L11.0327 13.3341ZM12.2954 13.8116L12.0546 14.1697H11.892L12.1287 13.8116L11.892 13.4535H12.0546L12.2954 13.8116ZM12.6494 13.8116L12.4086 14.1697H12.2439L12.4806 13.8116L12.2439 13.4535H12.4086L12.6494 13.8116Z" fill="#1466B9"/>
<path fill-rule="evenodd" clip-rule="evenodd" d="M18 7.90669L19.4148 5.7235H20.3702L18.9916 7.90669L20.3702 10.0899H19.4148L18 7.90669ZM20.0678 7.90669L21.4948 5.7235H22.4501L21.0594 7.90669L22.4501 10.0899H21.4948L20.0678 7.90669ZM27.9583 6.54533V6.6018C28.0611 6.60807 28.1881 6.62689 28.3392 6.65199C28.4904 6.67708 28.6355 6.72099 28.7866 6.78373C29.0708 6.89038 29.3248 7.07231 29.5545 7.32952C29.7843 7.58674 29.8992 7.96315 29.8992 8.45249C29.8992 9.19276 29.6452 9.75111 29.1434 10.1275C28.6415 10.5039 28.0853 10.711 27.4746 10.7486C27.4383 10.7549 27.402 10.7611 27.3718 10.7611H23.617V10.115H24.4877V3.68461H23.617V3.03843H27.0755C27.7829 3.03843 28.309 3.15136 28.6536 3.36466C29.0043 3.58423 29.2462 3.8289 29.3792 4.09866C29.4396 4.21158 29.482 4.33078 29.5001 4.44371C29.5243 4.55663 29.5364 4.66328 29.5364 4.75738C29.5364 5.29063 29.3913 5.69214 29.1071 5.97445C28.8229 6.25676 28.5025 6.43241 28.1578 6.50142C28.1276 6.50769 28.0974 6.51396 28.0611 6.52651C28.0308 6.53278 27.9946 6.53906 27.9643 6.53906L27.9583 6.54533ZM26.0658 10.1212H26.7127C27.1904 10.1212 27.5713 9.95813 27.8615 9.64445C28.1578 9.3245 28.3029 8.94809 28.3029 8.50895C28.3029 8.47131 28.3029 8.43367 28.3029 8.39603C28.3029 8.36466 28.3029 8.32702 28.3029 8.28938C28.2606 7.95688 28.1094 7.65575 27.8555 7.38599C27.6016 7.11623 27.1783 6.98448 26.5918 6.98448H26.0779V10.1212H26.0658ZM26.0658 6.33203H26.5979C27.0151 6.33203 27.3295 6.21911 27.5471 5.98699C27.7648 5.75487 27.9039 5.50393 27.9643 5.2279C27.9764 5.17143 27.9885 5.12125 27.9946 5.07106C27.9946 5.02087 27.9946 4.97068 27.9946 4.91422C27.9946 4.88285 27.9946 4.85776 27.9946 4.82639C27.9946 4.8013 27.9946 4.76993 27.9946 4.73856C27.9583 4.47507 27.8313 4.23667 27.6136 4.0171C27.396 3.79753 27.0574 3.69088 26.5979 3.69088H26.0718V6.33203H26.0658ZM30.4796 6.89666C30.4796 5.88662 30.8605 4.97068 31.6224 4.14885C32.3842 3.32702 33.3879 2.91296 34.6455 2.91296C35.9032 2.91296 36.8585 3.29565 37.5961 4.06729C38.3338 4.83893 38.7389 5.68586 38.8114 6.62062C38.8114 6.66453 38.8114 6.71472 38.8114 6.75864C38.8114 6.80255 38.8114 6.85274 38.8114 6.89666C38.8114 7.89415 38.4305 8.81008 37.6626 9.63818C36.9008 10.4663 35.885 10.8803 34.6274 10.8803C33.3697 10.8803 32.4144 10.4914 31.6768 9.71346C30.9452 8.93555 30.5401 8.08235 30.4736 7.14759C30.4675 7.10368 30.4615 7.05976 30.4615 7.01584V6.89666H30.4796ZM32.3177 6.9092C32.3177 8.09489 32.5595 8.96064 33.0432 9.50643C33.527 10.0522 34.059 10.3283 34.6455 10.3283H34.6758C35.2562 10.322 35.7822 10.046 36.2659 9.50016C36.7496 8.96064 36.9915 8.09489 36.9915 6.9092C36.9915 5.8427 36.7738 5.00205 36.3264 4.39352C35.885 3.78498 35.3227 3.48386 34.6395 3.48386C33.9562 3.48386 33.3697 3.79753 32.9465 4.43116C32.5233 5.06478 32.3116 5.88662 32.3116 6.91548L32.3177 6.9092ZM46.0549 3.00707V5.19026H45.4201C45.3898 4.71347 45.1843 4.31823 44.8033 4.01083C44.4224 3.70343 43.9871 3.54659 43.4973 3.54659C42.8746 3.54659 42.3062 3.82263 41.7983 4.3747C41.2904 4.92677 41.0365 5.81761 41.0365 7.04094C41.0365 7.91296 41.2602 8.65951 41.7137 9.28059C42.1671 9.90167 42.8141 10.2153 43.6485 10.2153C44.0838 10.2153 44.4708 10.115 44.8094 9.90794C45.148 9.70091 45.4503 9.42489 45.7163 9.07357L46.2605 9.52525C45.8735 9.92676 45.4503 10.253 44.9847 10.4977C44.5192 10.7486 43.9931 10.8741 43.4006 10.8741C42.2578 10.8741 41.2723 10.5102 40.4439 9.7762C39.6156 9.0422 39.1984 8.09489 39.1984 6.92802C39.1984 5.76114 39.5854 4.73856 40.3532 4.01083C41.1272 3.27683 42.1006 2.91296 43.2797 2.91296C43.5034 2.91296 43.709 2.93806 43.8964 2.98197C44.0838 3.02589 44.2713 3.09489 44.4587 3.17645C44.5675 3.23291 44.6824 3.29565 44.7973 3.36466C44.9122 3.43994 45.0271 3.51522 45.148 3.60305L45.4926 3.00079H46.0489L46.0549 3.00707ZM51.1157 5.82388L52.6756 3.69088H51.811V3.04471H54.2779V3.69088H53.3891L51.4543 6.31321L54.1449 10.1212H55.0821V10.7674H51.4543V10.1212H52.3129L50.4687 7.48009L48.5339 10.1212H49.3441V10.7674H46.9316V10.1212H47.7902L50.0818 6.99076L47.7902 3.69088H47.0889V3.04471H50.4687V3.69088H49.6102L51.1217 5.82388H51.1157ZM55.5416 6.89666C55.5416 5.88662 55.9225 4.97068 56.6844 4.14885C57.4462 3.32702 58.4499 2.91296 59.7075 2.91296C60.9652 2.91296 61.9205 3.29565 62.6581 4.06729C63.3958 4.83893 63.8009 5.68586 63.8734 6.62062C63.8734 6.66453 63.8734 6.71472 63.8734 6.75864C63.8734 6.80255 63.8734 6.85274 63.8734 6.89666C63.8734 7.89415 63.4925 8.81008 62.7246 9.63818C61.9628 10.4663 60.947 10.8803 59.6894 10.8803C58.4317 10.8803 57.4764 10.4914 56.7388 9.71346C56.0072 8.93555 55.6021 8.08235 55.5356 7.14759C55.5295 7.10368 55.5235 7.05976 55.5235 7.01584V6.89666H55.5416ZM57.3797 6.9092C57.3797 8.09489 57.6215 8.96064 58.1052 9.50643C58.589 10.0522 59.121 10.3283 59.7075 10.3283H59.7438C60.3242 10.322 60.8503 10.046 61.334 9.50016C61.8177 8.96064 62.0595 8.09489 62.0595 6.9092C62.0595 5.8427 61.8419 5.00205 61.4005 4.39352C60.9591 3.78498 60.3968 3.48386 59.7136 3.48386C59.0303 3.48386 58.4438 3.79753 58.0206 4.43116C57.5974 5.06478 57.3857 5.88662 57.3857 6.91548L57.3797 6.9092ZM68.5351 3.04471L71.002 10.1212H71.8606V12.913H70.6937V10.7674H65.2399V12.913H64.073V10.1212H64.9194L67.2533 3.69088H66.431V3.04471H68.5351ZM67.5012 4.99578L65.6994 9.99577H69.2909L67.6766 4.98323L67.6342 4.62563H67.5677L67.5012 4.99578ZM74.9201 7.90669L73.5052 10.0899H72.5499L73.9406 7.90669L72.5499 5.7235H73.5052L74.9201 7.90669ZM77 7.90669L75.5852 10.0899H74.6177L76.0084 7.90669L74.6177 5.7235H75.5852L77 7.90669Z" fill="#1466B9"/>
<path fill-rule="evenodd" clip-rule="evenodd" d="M13.4092 11.8737C13.3269 11.9839 13.2425 12.0909 13.1551 12.1959L9.68183 9.45535L8.74432 9.31231L8.57966 10.2828L7.5485 9.35759L6.51837 10.2828L6.35371 9.31231L5.4162 9.45535L1.81434 12.2977C1.72275 12.1917 1.63527 12.0837 1.54883 11.9725L7.5485 7.72131L13.4092 11.8727V11.8737Z" fill="#1466B9"/>
<path fill-rule="evenodd" clip-rule="evenodd" d="M0.489252 10.0861C0.440884 9.96054 0.396633 9.83396 0.355469 9.70532L3.35325 8.99524L3.37794 9.0858L0.489252 10.0861Z" fill="#1466B9"/>
<path fill-rule="evenodd" clip-rule="evenodd" d="M14.5283 9.70532C14.4872 9.83396 14.4419 9.96054 14.3946 10.0861L11.5059 9.0858L11.5306 8.99524L14.5283 9.70532Z" fill="#1466B9"/>
<path fill-rule="evenodd" clip-rule="evenodd" d="M1.04884 11.2418C0.981943 11.1296 0.918139 11.0164 0.857422 10.9012L3.54235 9.66626L3.58455 9.75065L1.04884 11.2418Z" fill="#1466B9"/>
<path fill-rule="evenodd" clip-rule="evenodd" d="M14.024 10.9012C13.9633 11.0164 13.8995 11.1307 13.8326 11.2418L11.2969 9.75065L11.3391 9.66626L14.024 10.9012Z" fill="#1466B9"/>
<path fill-rule="evenodd" clip-rule="evenodd" d="M0.118387 8.75145C0.0936883 8.61561 0.0731063 8.47874 0.0566406 8.33981L3.25612 8.1731L3.26435 8.26674L0.118387 8.75042V8.75145Z" fill="#1466B9"/>
<path fill-rule="evenodd" clip-rule="evenodd" d="M14.8269 8.34086C14.8104 8.47876 14.7898 8.61666 14.7651 8.7525L11.6191 8.26882L11.6274 8.17517L14.8269 8.34189V8.34086Z" fill="#1466B9"/>
<path fill-rule="evenodd" clip-rule="evenodd" d="M0 7.3982C0 7.25721 0.00514552 7.11622 0.0133783 6.97729L3.2427 7.40334L3.23344 7.49699L0 7.3982Z" fill="#1466B9"/>
<path fill-rule="evenodd" clip-rule="evenodd" d="M14.87 6.97729C14.8782 7.11622 14.8833 7.25721 14.8833 7.3982L11.6499 7.49699L11.6406 7.40334L14.87 6.97729Z" fill="#1466B9"/>
<path fill-rule="evenodd" clip-rule="evenodd" d="M0.128906 6.03263C0.155663 5.89267 0.185507 5.75374 0.220496 5.61584L3.37367 6.61099L3.34794 6.70155L0.128906 6.03263Z" fill="#1466B9"/>
<path fill-rule="evenodd" clip-rule="evenodd" d="M14.661 5.61682C14.6949 5.75369 14.7258 5.89262 14.7526 6.03361L11.5335 6.70252L11.5078 6.61196L14.661 5.61682Z" fill="#1466B9"/>
<path fill-rule="evenodd" clip-rule="evenodd" d="M0.496094 4.75441C0.547549 4.6196 0.60312 4.48684 0.662808 4.35718L3.63692 5.90598L3.59575 5.99036L0.496094 4.75441Z" fill="#1466B9"/>
<path fill-rule="evenodd" clip-rule="evenodd" d="M14.2202 4.35608C14.2799 4.48678 14.3344 4.61953 14.3869 4.75434L11.2873 5.99029L11.2461 5.90591L14.2202 4.35711V4.35608Z" fill="#1466B9"/>
<path fill-rule="evenodd" clip-rule="evenodd" d="M1.13281 3.48257C1.20897 3.36011 1.28924 3.24073 1.37259 3.12341L4.03797 5.16927L3.98343 5.24542L1.13281 3.48257Z" fill="#1466B9"/>
<path fill-rule="evenodd" clip-rule="evenodd" d="M13.5111 3.12231C13.5944 3.23963 13.6737 3.36004 13.7509 3.48147L10.9002 5.24432L10.8457 5.16817L13.5111 3.12231Z" fill="#1466B9"/>
<path fill-rule="evenodd" clip-rule="evenodd" d="M1.94922 2.40806C2.04698 2.30104 2.14886 2.1971 2.2528 2.09521L4.5158 4.63195L4.44788 4.69679L1.95025 2.40806H1.94922Z" fill="#1466B9"/>
<path fill-rule="evenodd" clip-rule="evenodd" d="M12.6311 2.09521C12.735 2.19607 12.8369 2.30104 12.9347 2.40806L10.4371 4.69679L10.3691 4.63195L12.6321 2.09521H12.6311Z" fill="#1466B9"/>
<path fill-rule="evenodd" clip-rule="evenodd" d="M2.97461 1.47667C3.08781 1.39125 3.2041 1.30892 3.32245 1.23071L5.02458 4.06795L4.94534 4.11941L2.97461 1.47667Z" fill="#1466B9"/>
<path fill-rule="evenodd" clip-rule="evenodd" d="M11.5606 1.22974C11.6789 1.30898 11.7952 1.39028 11.9084 1.47569L9.93666 4.11843L9.85742 4.06697L11.5596 1.22974H11.5606Z" fill="#1466B9"/>
<path fill-rule="evenodd" clip-rule="evenodd" d="M4.08594 0.785231C4.21355 0.720398 4.34424 0.659681 4.47597 0.602051L5.7253 3.70994L5.63885 3.74802L4.08594 0.78626V0.785231Z" fill="#1466B9"/>
<path fill-rule="evenodd" clip-rule="evenodd" d="M10.4075 0.601981C10.5393 0.659611 10.67 0.720328 10.7976 0.785162L9.24465 3.74692L9.1582 3.70884L10.4075 0.600952V0.601981Z" fill="#1466B9"/>
<path fill-rule="evenodd" clip-rule="evenodd" d="M5.27344 0.307659C5.41031 0.265466 5.54924 0.228418 5.6892 0.194458L6.43221 3.45569L6.34062 3.47936L5.27344 0.307659Z" fill="#1466B9"/>
<path fill-rule="evenodd" clip-rule="evenodd" d="M9.19326 0.194458C9.33322 0.228418 9.47215 0.265466 9.60902 0.307659L8.54081 3.47936L8.44922 3.45569L9.19223 0.194458H9.19326Z" fill="#1466B9"/>
<path fill-rule="evenodd" clip-rule="evenodd" d="M6.58203 0.0370477C6.72199 0.0205821 6.86195 0.00926193 7.00396 0L7.17788 3.26946L7.08423 3.27769L6.58203 0.0370477Z" fill="#1466B9"/>
<path fill-rule="evenodd" clip-rule="evenodd" d="M7.879 0C8.02101 0.00823283 8.162 0.0205821 8.30093 0.0370477L7.79873 3.27769L7.70508 3.26946L7.879 0Z" fill="#1466B9"/>
<path fill-rule="evenodd" clip-rule="evenodd" d="M8.00542 5.63218V5.65585C8.04864 5.65894 8.10216 5.66614 8.1639 5.67643C8.22668 5.68775 8.28842 5.70525 8.35017 5.72994C8.46852 5.77317 8.57554 5.84726 8.67228 5.95223C8.76902 6.05617 8.81738 6.20848 8.81738 6.40812C8.81738 6.70759 8.71139 6.93297 8.49939 7.08527C8.2874 7.23758 8.05379 7.32197 7.79857 7.3374C7.78314 7.34049 7.76873 7.34152 7.75432 7.34152H6.17773V7.08013H6.54204V4.47856H6.17773V4.21716H7.63083C7.92618 4.21716 8.14744 4.26141 8.2946 4.34992C8.44073 4.43842 8.54158 4.53721 8.59819 4.6463C8.62288 4.69261 8.64038 4.73995 8.64964 4.78626C8.6589 4.83257 8.66405 4.87476 8.66405 4.91181C8.66405 5.12689 8.60436 5.29155 8.48395 5.40475C8.36355 5.51795 8.2308 5.58896 8.08466 5.61674C8.07231 5.61983 8.05893 5.62292 8.04453 5.626C8.03012 5.62909 8.01777 5.63115 8.00439 5.63115L8.00542 5.63218ZM7.21095 7.08013H7.48161C7.68125 7.08013 7.84179 7.01529 7.96529 6.88563C8.08878 6.75699 8.1495 6.60365 8.1495 6.42562C8.1495 6.41018 8.1495 6.39474 8.14744 6.38137C8.14538 6.36696 8.14538 6.35255 8.14538 6.33712C8.12686 6.20333 8.06305 6.0819 7.95602 5.97281C7.849 5.86373 7.67199 5.80919 7.42604 5.80919H7.21095V7.08013ZM7.21095 5.54779H7.4353C7.60922 5.54779 7.743 5.50148 7.83459 5.40784C7.92618 5.31419 7.98484 5.21128 8.00954 5.0991C8.01571 5.07749 8.01983 5.05588 8.02086 5.03633C8.02292 5.01575 8.02292 4.99517 8.02292 4.97355C8.02292 4.9612 8.02292 4.94886 8.02086 4.93856C8.0188 4.92724 8.0188 4.91592 8.0188 4.90358C8.00336 4.79758 7.94985 4.69981 7.85723 4.61131C7.76564 4.52281 7.6226 4.47856 7.43015 4.47856H7.21095V5.54779Z" fill="#1466B9"/>
</svg>
