<svg width="111" height="109" viewBox="0 0 111 109" fill="none" xmlns="http://www.w3.org/2000/svg">
<path fill-rule="evenodd" clip-rule="evenodd" d="M16.4355 94.4397L18.0078 92.3357V92.199H17.5977V91.9028H19.1699V92.199H18.7598V95.1233H19.1699V95.4195H17.5977V95.1233H18.0078V92.8218L16.4355 94.9334V95.1233H16.8457V95.4195H15.2734V95.1233H15.6836V92.199H15.2734V91.9028H16.8457V92.199H16.4355V94.4397ZM20.7498 93.6953V95.1157H21.1599V95.4119H19.5877V95.1157H19.9978V92.1914H19.5877V91.8952H21.1599V92.1914H20.7498V93.3991H22.322V92.1914H21.9119V91.8952H23.4841V92.1914H23.074V95.1157H23.4841V95.4119H21.9119V95.1157H22.322V93.6953H20.7498ZM27.0236 91.8876V92.8826H26.7274C26.7122 92.6623 26.6135 92.4876 26.4388 92.3433C26.2565 92.2066 26.0514 92.1306 25.8235 92.1306C25.5273 92.1306 25.2615 92.2598 25.0184 92.5104C24.7754 92.7611 24.6614 93.1636 24.6614 93.7257C24.6614 94.1207 24.7678 94.4624 24.9804 94.7435C25.1931 95.0245 25.4969 95.1688 25.8919 95.1688C26.097 95.1688 26.2793 95.1233 26.4388 95.0321C26.5983 94.941 26.7426 94.8118 26.8641 94.6523L27.1224 94.8574C26.9401 95.0397 26.7426 95.184 26.5223 95.298C26.3021 95.4119 26.0514 95.4726 25.7704 95.4726C25.2311 95.4726 24.7678 95.3055 24.3728 94.9713C23.9778 94.6371 23.788 94.2042 23.788 93.6725C23.788 93.1408 23.9703 92.6775 24.3348 92.3433C24.6994 92.0091 25.1627 91.842 25.7172 91.842C25.8235 91.842 25.9223 91.8496 26.0058 91.8724C26.097 91.8952 26.1805 91.9256 26.2717 91.9635C26.3248 91.9863 26.378 92.0167 26.4312 92.0471C26.4844 92.0775 26.5375 92.1155 26.5983 92.1534L26.7578 91.88H27.0236V91.8876ZM29.7048 95.4195H28.1326V95.1233H28.5427V92.199H27.6996V92.5636H27.373V91.9028H30.4644V92.5636H30.1378V92.199H29.2947V95.1233H29.7048V95.4195ZM31.9227 94.0751V95.1233H32.3405V95.4195H30.7606V95.1233H31.1708V92.199H30.7606V91.9028H32.0746C32.1506 91.9028 32.2341 91.9028 32.3177 91.9028C32.4012 91.9028 32.4924 91.918 32.5759 91.9256C32.8266 91.9635 33.062 92.0471 33.2671 92.199C33.4798 92.3433 33.5785 92.594 33.5785 92.9585C33.5785 93.2548 33.4722 93.513 33.2595 93.7409C33.0468 93.9611 32.6367 94.0751 32.0366 94.0675H31.9151L31.9227 94.0751ZM31.9227 92.199V93.8092H31.9683C31.9683 93.8092 31.9835 93.8092 31.9911 93.8092H32.0215C32.0594 93.8092 32.1126 93.8092 32.1582 93.8016C32.2037 93.8016 32.2569 93.7865 32.3101 93.7713C32.4468 93.7333 32.5683 93.6497 32.6823 93.5282C32.7962 93.4067 32.8494 93.2016 32.8494 92.9282C32.8494 92.6927 32.7886 92.5256 32.6747 92.4193C32.5531 92.3129 32.424 92.2446 32.2873 92.2142C32.2417 92.2066 32.1961 92.199 32.1506 92.1914C32.105 92.1914 32.0594 92.1914 32.0215 92.1914H31.9759C31.9759 92.1914 31.9607 92.1914 31.9531 92.1914H31.9303L31.9227 92.199ZM35.6825 93.8168L36.404 92.199H36.0015V91.9028H37.0876V92.199H36.7003L35.5002 94.903C35.5002 94.903 35.4774 94.9562 35.4622 94.9789C35.447 95.0093 35.4394 95.0321 35.4242 95.0625C35.3786 95.1612 35.3103 95.26 35.2267 95.3435C35.1432 95.4271 35.0141 95.4726 34.847 95.4726C34.8166 95.4726 34.7862 95.4726 34.7558 95.4726C34.7254 95.4726 34.6951 95.4727 34.6647 95.4651C34.6191 95.4575 34.5659 95.4423 34.5204 95.4271C34.4748 95.4119 34.4292 95.3967 34.3836 95.3663L34.5963 94.8802C34.5963 94.8802 34.6191 94.8954 34.6343 94.9106C34.6495 94.9258 34.6647 94.9334 34.6875 94.9486C34.7178 94.9713 34.7558 94.9865 34.7938 95.0093C34.8318 95.0245 34.8773 95.0397 34.9153 95.0397H34.9457C35.0293 95.0397 35.09 95.0169 35.128 94.9789C35.1736 94.941 35.204 94.8954 35.2267 94.8498C35.2267 94.8498 35.2267 94.8346 35.2343 94.8346V94.8194L35.2875 94.6903L34.0039 92.2066H33.6849V91.9104H35.1736V92.2066H34.7558L35.5913 93.8244L35.6141 93.9611H35.6445L35.6597 93.8244L35.6825 93.8168ZM39.6397 94.3485L40.8702 91.9028H42.0095V92.199H41.5993V95.1233H42.0095V95.4195H40.46V95.1233H40.8702V92.6168L39.6397 95.1005H39.2447L37.9991 92.6168V95.1233H38.4092V95.4195H37.3079V95.1233H37.7181V92.199H37.3079V91.9028H38.4168L39.6397 94.3485ZM42.4348 95.1233H42.845V92.199H42.4348V91.9028H45.1692V92.594H44.8882V92.2522H43.597V93.3991H44.6983V93.0117H44.9717V94.0599H44.6983V93.6953H43.597V95.0625H45.0021V94.6599H45.2755V95.4119H42.4424V95.1157L42.4348 95.1233ZM46.8402 93.7029V95.1233H47.2504V95.4195H45.6781V95.1233H46.0883V92.199H45.6781V91.9028H47.2504V92.199H46.8402V93.4067H48.4125V92.199H48.0023V91.9028H49.5746V92.199H49.1644V95.1233H49.5746V95.4195H48.0023V95.1233H48.4125V93.7029H46.8402ZM52.195 95.4195H50.6228V95.1233H51.0329V92.199H50.1898V92.5636H49.8632V91.9028H52.9546V92.5636H52.628V92.199H51.7849V95.1233H52.195V95.4195ZM55.3775 94.4473H53.8356L53.5698 95.1233H53.9496V95.4195H52.8862V95.1233H53.2812L54.5876 91.9028H55.0205L56.4561 95.1233H56.851V95.4195H55.2636V95.1233H55.6738L55.3775 94.4473ZM54.5496 92.6775L53.9496 94.1662H55.2636L54.6104 92.6775L54.5952 92.5636H54.5648L54.5496 92.6775ZM58.5069 92.6775L58.4765 92.8218L57.6258 95.0245C57.6258 95.0245 57.6106 95.0701 57.5954 95.0929C57.5878 95.1157 57.5726 95.1384 57.565 95.1612C57.527 95.2372 57.4739 95.3055 57.3979 95.3739C57.322 95.4347 57.2156 95.4651 57.0789 95.4651C57.0333 95.4651 56.9802 95.4651 56.9346 95.4499C56.889 95.4423 56.8435 95.4347 56.8055 95.4271C56.7827 95.4271 56.7675 95.4119 56.7447 95.4119C56.7295 95.4119 56.7143 95.4119 56.6991 95.4043L56.9498 94.8346C56.9498 94.8346 56.9878 94.865 57.0105 94.8726C57.0333 94.8878 57.0561 94.8954 57.0789 94.903C57.0941 94.903 57.1093 94.903 57.1245 94.9106C57.1397 94.9106 57.1549 94.9106 57.1701 94.9106C57.2308 94.9106 57.284 94.8878 57.322 94.8346C57.3599 94.7891 57.3979 94.7359 57.4207 94.6751C57.4207 94.6751 57.4207 94.6751 57.4207 94.6675L58.4005 92.1914H58.0056V91.8952H58.9626L60.1627 95.1157H60.5121V95.4119H58.993V95.1157H59.3955L58.5448 92.8142L58.5221 92.6699H58.4917L58.5069 92.6775ZM61.1577 95.1157V92.1914H60.7475V91.8952H62.3198V92.1914H61.9096V93.3915H62.3578C62.7603 93.3915 63.0717 93.475 63.3072 93.6421C63.5427 93.8092 63.6566 94.0523 63.6566 94.3713C63.6566 94.6296 63.5578 94.865 63.3604 95.0853C63.1629 95.298 62.7679 95.4119 62.1755 95.4119H60.7551V95.1157H61.1653H61.1577ZM61.9096 95.1157H62.1755C62.3806 95.1157 62.5476 95.0473 62.6844 94.903C62.8211 94.7587 62.8819 94.584 62.8819 94.3789C62.8819 94.3561 62.8819 94.3409 62.8819 94.3181C62.8819 94.3029 62.8819 94.2802 62.8819 94.2574C62.8591 94.1131 62.7907 93.9839 62.6768 93.8624C62.5628 93.7409 62.373 93.6801 62.1223 93.6801H61.9172V95.1081L61.9096 95.1157ZM65.1453 93.6953V95.1157H65.5555V95.4119H63.9832V95.1157H64.3933V92.1914H63.9832V91.8952H65.5555V92.1914H65.1453V93.3991H66.7176V92.1914H66.3074V91.8952H67.8797V92.1914H67.4695V95.1157H67.8797V95.4119H66.3074V95.1157H66.7176V93.6953H65.1453ZM68.7304 95.1157V92.1914H68.3202V91.8952H69.8925V92.1914H69.4823V93.3915H69.9608C69.9608 93.3915 70.0596 93.3915 70.1887 93.4067C70.3178 93.4143 70.4545 93.4447 70.5988 93.5054C70.7659 93.5586 70.9103 93.6573 71.047 93.794C71.1837 93.9308 71.2521 94.1207 71.2521 94.3789C71.2521 94.6979 71.1381 94.9486 70.9027 95.1384C70.6672 95.3207 70.295 95.4195 69.7785 95.4195H68.3278V95.1233H68.738L68.7304 95.1157ZM69.4823 95.1157H69.7785C69.9912 95.1157 70.1583 95.0473 70.295 94.903C70.4242 94.7587 70.4925 94.584 70.4925 94.3789C70.4925 94.3561 70.4925 94.3105 70.4773 94.2498C70.4697 94.1814 70.4469 94.1131 70.409 94.0371C70.3634 93.946 70.2798 93.87 70.1811 93.794C70.0748 93.7181 69.9229 93.6801 69.7254 93.6801H69.4823V95.1081V95.1157ZM71.8597 95.1157V92.1914H71.4495V91.8952H73.0218V92.1914H72.6116V95.1157H73.0218V95.4119H71.4495V95.1157H71.8597ZM74.6093 94.4321L76.1815 92.3281V92.1914H75.7714V91.8952H77.3436V92.1914H76.9335V95.1157H77.3436V95.4119H75.7714V95.1157H76.1815V92.8142L74.6093 94.9258V95.1157H75.0194V95.4119H73.4471V95.1157H73.8573V92.1914H73.4471V91.8952H75.0194V92.1914H74.6093V94.4321ZM76.2954 90.8926V90.9078V90.923V90.9609C76.2954 91.1584 76.2271 91.2951 76.0904 91.3635C75.9537 91.4395 75.8093 91.485 75.6498 91.5002C75.6043 91.5002 75.5587 91.5002 75.5131 91.5078C75.4675 91.5078 75.4296 91.5078 75.384 91.5078C75.3384 91.5078 75.2777 91.5078 75.2169 91.5078C75.1561 91.5078 75.0878 91.5002 75.027 91.4926C74.8903 91.4698 74.7612 91.4243 74.6472 91.3483C74.5333 91.2724 74.4725 91.1432 74.4725 90.9609V90.9457C74.4725 90.9457 74.4725 90.9382 74.4725 90.9306V90.9002H75.027C75.027 90.9002 75.0194 90.9382 75.0118 90.9609C75.0118 90.9837 75.0042 90.9989 75.0042 91.0217V91.0445C75.0042 91.1053 75.0422 91.1584 75.0878 91.204C75.1409 91.2496 75.2321 91.2799 75.3764 91.2799C75.3992 91.2799 75.422 91.2799 75.4448 91.2799C75.4675 91.2799 75.4979 91.2799 75.5283 91.2648C75.5815 91.2572 75.6346 91.2344 75.6802 91.1964C75.7258 91.1584 75.7486 91.0977 75.7486 91.0141C75.7486 90.9989 75.7486 90.9761 75.7486 90.9609C75.7486 90.9382 75.7486 90.923 75.7334 90.9002H76.2803L76.2954 90.8926ZM80.5109 93.6649V93.4067H80.6704C80.9059 93.4067 81.0882 93.3307 81.1945 93.1864C81.3085 93.0345 81.3692 92.8674 81.3692 92.6775C81.3692 92.4952 81.3085 92.3661 81.1869 92.2826C81.0654 92.199 80.9287 92.1534 80.7844 92.1458C80.7692 92.1458 80.754 92.1458 80.7464 92.1458H80.7084C80.5185 92.1458 80.359 92.2066 80.2375 92.3357C80.116 92.4572 80.0476 92.6167 80.04 92.8142H79.759V91.9863H80.04L80.1312 92.1838C80.1312 92.1838 80.1691 92.1458 80.1995 92.1154C80.2299 92.0851 80.2679 92.0547 80.3211 92.0243C80.3894 91.9787 80.4806 91.9408 80.6021 91.9028C80.716 91.8648 80.8603 91.8496 81.035 91.8496C81.0958 91.8496 81.1641 91.8496 81.2401 91.8648C81.3161 91.8724 81.392 91.8876 81.468 91.918C81.6275 91.9635 81.7794 92.0471 81.9085 92.161C82.0376 92.275 82.106 92.4421 82.106 92.6547C82.106 92.7079 82.106 92.7611 82.106 92.8218C82.106 92.8826 82.0908 92.9434 82.068 93.0041C82.0376 93.0953 81.9769 93.1864 81.8933 93.27C81.8098 93.3535 81.6806 93.4295 81.5135 93.4902H81.3768V93.5282L81.5059 93.5434C81.7262 93.589 81.8857 93.6497 82.0072 93.7485C82.1212 93.8396 82.2047 93.9384 82.2503 94.0371C82.2731 94.0827 82.2883 94.1358 82.3035 94.1814C82.3111 94.227 82.3187 94.2726 82.3187 94.3105C82.3187 94.3713 82.3187 94.4549 82.3035 94.546C82.2883 94.6371 82.2579 94.7359 82.2123 94.8346C82.1364 95.0017 81.9921 95.146 81.7794 95.2828C81.5667 95.4195 81.2477 95.4802 80.8072 95.4802C80.5793 95.4802 80.4046 95.4575 80.2679 95.4119C80.1312 95.3663 80.0172 95.3056 79.9185 95.222V95.4651H79.6375V94.546H79.9185C79.9185 94.7511 80.0096 94.9106 80.1615 95.0245C80.3211 95.1384 80.5185 95.1916 80.7616 95.1916C81.0046 95.1916 81.1945 95.1157 81.3313 94.9713C81.468 94.8194 81.5363 94.622 81.5363 94.3789C81.5363 94.1814 81.4908 94.0295 81.392 93.9384C81.2933 93.8472 81.1869 93.7789 81.073 93.7409C80.997 93.7181 80.9211 93.7029 80.8527 93.6953C80.7844 93.6953 80.7236 93.6877 80.678 93.6877H80.5185L80.5109 93.6649ZM84.8252 94.4397H83.2833L83.0174 95.1157H83.3972V95.4119H82.3339V95.1157H82.7288L84.0352 91.8952H84.4682L85.9037 95.1157H86.2987V95.4119H84.7112V95.1157H85.1214L84.8252 94.4397ZM83.9973 92.6699L83.3972 94.1586H84.7112L84.058 92.6699L84.0428 92.556H84.0125L83.9973 92.6699ZM88.4254 93.4902V93.513C88.471 93.513 88.5318 93.5282 88.6001 93.5358C88.6685 93.551 88.7444 93.5662 88.8128 93.5966C88.9495 93.6421 89.0634 93.7257 89.1774 93.8472C89.2837 93.9611 89.3369 94.1358 89.3369 94.3561C89.3369 94.6903 89.2153 94.9486 88.9799 95.1157C88.7444 95.2904 88.4786 95.3815 88.19 95.3967C88.1748 95.3967 88.152 95.3967 88.1368 95.3967H86.367V95.1005H86.7772V92.1762H86.367V91.88H88.0001C88.3343 91.88 88.5849 91.9332 88.7444 92.0319C88.9115 92.1306 89.0255 92.2446 89.0862 92.3661C89.1166 92.4193 89.1318 92.4724 89.147 92.5256C89.1546 92.5788 89.1622 92.6243 89.1622 92.6699C89.1622 92.913 89.0938 93.0953 88.9571 93.2244C88.8204 93.3535 88.6761 93.4295 88.509 93.4674C88.4938 93.4674 88.4786 93.4674 88.4634 93.475C88.4482 93.475 88.433 93.475 88.4178 93.475L88.4254 93.4902ZM87.5292 95.1157H87.833C88.0608 95.1157 88.2355 95.0397 88.3798 94.8954C88.5166 94.7511 88.5849 94.5764 88.5849 94.3789C88.5849 94.3637 88.5849 94.3409 88.5849 94.3257C88.5849 94.3105 88.5849 94.2954 88.5849 94.2726C88.5621 94.1207 88.4938 93.9839 88.3723 93.8624C88.2507 93.7409 88.0532 93.6801 87.7798 93.6801H87.5368V95.1081L87.5292 95.1157ZM87.5292 93.3915H87.7798C87.9773 93.3915 88.1216 93.3383 88.2279 93.232C88.3343 93.1256 88.395 93.0117 88.4254 92.8826C88.4254 92.8598 88.433 92.837 88.4406 92.8142C88.4406 92.7914 88.4406 92.7687 88.4406 92.7459C88.4406 92.7307 88.4406 92.7155 88.4406 92.7079C88.4406 92.6927 88.4406 92.6851 88.4406 92.6699C88.4254 92.5484 88.3647 92.4421 88.2583 92.3433C88.152 92.2446 87.9925 92.1914 87.7798 92.1914H87.5368V93.3915H87.5292ZM89.6179 93.6497C89.6179 93.194 89.8002 92.7763 90.1572 92.3965C90.5142 92.0243 90.9927 91.8344 91.5851 91.8344C92.1776 91.8344 92.6333 92.0091 92.9827 92.3585C93.3321 92.7079 93.522 93.0953 93.56 93.5206C93.56 93.5434 93.56 93.5662 93.56 93.5814C93.56 93.6042 93.56 93.6269 93.56 93.6421C93.56 94.0979 93.3777 94.5156 93.0207 94.8878C92.6561 95.2676 92.1852 95.4499 91.5851 95.4499C90.9851 95.4499 90.537 95.2752 90.1952 94.9182C89.8458 94.5612 89.6635 94.1738 89.6255 93.7561C89.6255 93.7333 89.6255 93.7181 89.6255 93.6953V93.6421L89.6179 93.6497ZM90.4838 93.6497C90.4838 94.189 90.5977 94.584 90.8256 94.8346C91.0535 95.0853 91.3041 95.2068 91.5851 95.2068H91.6003C91.8738 95.2068 92.1244 95.0777 92.3523 94.8346C92.5801 94.5916 92.6941 94.1966 92.6941 93.6573C92.6941 93.1712 92.5877 92.7914 92.3827 92.5104C92.1776 92.237 91.9117 92.0927 91.5851 92.0927C91.2585 92.0927 90.9851 92.237 90.7876 92.5256C90.5901 92.8142 90.4914 93.1864 90.4914 93.6573L90.4838 93.6497ZM95.7475 91.8876L96.9172 95.1081H97.3197V96.3765H96.7653V95.3967H94.1904V96.3765H93.6359V95.1081H94.0385L95.1398 92.1838H94.7524V91.8876H95.7475ZM95.2613 92.7763L94.4107 95.0473H96.1044L95.3449 92.7687L95.3221 92.6092H95.2917L95.2613 92.7763Z" fill="#1466B9"/>
<path fill-rule="evenodd" clip-rule="evenodd" d="M19.2383 102.939L21.0156 100.296H22.2157L20.4839 102.939L22.2157 105.582H21.0156L19.2383 102.939ZM21.8359 102.939L23.6285 100.296H24.8285L23.0816 102.939L24.8285 105.582H23.6285L21.8359 102.939ZM31.748 101.291V101.359C31.8771 101.367 32.0367 101.389 32.2265 101.42C32.4164 101.45 32.5987 101.503 32.7886 101.579C33.1456 101.708 33.4646 101.929 33.7532 102.24C34.0419 102.551 34.1862 103.007 34.1862 103.6C34.1862 104.496 33.8672 105.172 33.2367 105.628C32.6063 106.083 31.9075 106.334 31.1404 106.38C31.0948 106.387 31.0492 106.395 31.0113 106.395H26.2945V105.612H27.3882V97.8271H26.2945V97.0447H30.6391C31.5278 97.0447 32.1886 97.1815 32.6215 97.4397C33.062 97.7055 33.3659 98.0018 33.533 98.3284C33.6089 98.4651 33.6621 98.6094 33.6849 98.7461C33.7152 98.8828 33.7304 99.012 33.7304 99.1259C33.7304 99.7715 33.5481 100.258 33.1912 100.599C32.8342 100.941 32.4316 101.154 31.9987 101.237C31.9607 101.245 31.9227 101.253 31.8771 101.268C31.8392 101.275 31.7936 101.283 31.7556 101.283L31.748 101.291ZM29.3706 105.62H30.1834C30.7834 105.62 31.2619 105.423 31.6265 105.043C31.9987 104.655 32.181 104.2 32.181 103.668C32.181 103.622 32.181 103.577 32.181 103.531C32.181 103.493 32.181 103.448 32.181 103.402C32.1278 103 31.9379 102.635 31.6189 102.308C31.2999 101.982 30.7682 101.822 30.0314 101.822H29.3858V105.62H29.3706ZM29.3706 101.032H30.039C30.5631 101.032 30.9581 100.896 31.2315 100.615C31.505 100.334 31.6797 100.03 31.7556 99.6956C31.7708 99.6272 31.786 99.5664 31.7936 99.5057C31.7936 99.4449 31.7936 99.3841 31.7936 99.3158C31.7936 99.2778 31.7936 99.2474 31.7936 99.2094C31.7936 99.1791 31.7936 99.1411 31.7936 99.1031C31.748 98.7841 31.5885 98.4955 31.3151 98.2296C31.0416 97.9638 30.6163 97.8347 30.039 97.8347H29.3782V101.032H29.3706ZM34.9153 101.716C34.9153 100.493 35.3938 99.3841 36.3509 98.3891C37.3079 97.3941 38.5688 96.8928 40.1486 96.8928C41.7285 96.8928 42.9286 97.3561 43.8552 98.2904C44.7819 99.2246 45.2907 100.25 45.3819 101.382C45.3819 101.435 45.3819 101.496 45.3819 101.549C45.3819 101.602 45.3819 101.663 45.3819 101.716C45.3819 102.924 44.9034 104.033 43.9388 105.035C42.9817 106.038 41.7057 106.539 40.1258 106.539C38.546 106.539 37.3459 106.068 36.4192 105.126C35.5002 104.184 34.9913 103.151 34.9077 102.02C34.9001 101.967 34.8925 101.913 34.8925 101.86V101.716H34.9153ZM37.2244 101.731C37.2244 103.167 37.5282 104.215 38.1358 104.876C38.7435 105.536 39.4119 105.871 40.1486 105.871H40.1866C40.9158 105.863 41.5766 105.529 42.1842 104.868C42.7918 104.215 43.0957 103.167 43.0957 101.731C43.0957 100.44 42.8222 99.4221 42.2602 98.6854C41.7057 97.9486 40.9993 97.584 40.141 97.584C39.2827 97.584 38.546 97.9638 38.0143 98.7309C37.4826 99.4981 37.2168 100.493 37.2168 101.739L37.2244 101.731ZM54.4813 97.0068V99.65H53.6837C53.6458 99.0727 53.3875 98.5942 52.909 98.222C52.4305 97.8499 51.8836 97.66 51.2684 97.66C50.486 97.66 49.7721 97.9942 49.1341 98.6626C48.496 99.331 48.177 100.41 48.177 101.891C48.177 102.946 48.4581 103.85 49.0277 104.602C49.5974 105.354 50.4101 105.734 51.4583 105.734C52.0051 105.734 52.4913 105.612 52.9166 105.362C53.3419 105.111 53.7217 104.777 54.0559 104.352L54.7395 104.898C54.2534 105.385 53.7217 105.78 53.1369 106.076C52.552 106.38 51.8912 106.531 51.1469 106.531C49.7113 106.531 48.4733 106.091 47.4327 105.202C46.3921 104.314 45.868 103.167 45.868 101.754C45.868 100.341 46.3541 99.1031 47.3187 98.222C48.291 97.3334 49.5138 96.8928 50.9949 96.8928C51.276 96.8928 51.5342 96.9232 51.7697 96.9764C52.0051 97.0295 52.2406 97.1131 52.4761 97.2118C52.6128 97.2802 52.7571 97.3561 52.9014 97.4397C53.0457 97.5308 53.19 97.622 53.3419 97.7283L53.7749 96.9992H54.4737L54.4813 97.0068ZM60.8387 100.417L62.7983 97.8347H61.7122V97.0523H64.8111V97.8347H63.6946L61.264 101.01L64.644 105.62H65.8213V106.402H61.264V105.62H62.3426L60.026 102.422L57.5954 105.62H58.6132V106.402H55.5826V105.62H56.6612L59.5398 101.83L56.6612 97.8347H55.7801V97.0523H60.026V97.8347H58.9474L60.8463 100.417H60.8387ZM66.3986 101.716C66.3986 100.493 66.8771 99.3841 67.8341 98.3891C68.7911 97.3941 70.052 96.8928 71.6318 96.8928C73.2117 96.8928 74.4118 97.3561 75.3384 98.2904C76.2651 99.2246 76.774 100.25 76.8651 101.382C76.8651 101.435 76.8651 101.496 76.8651 101.549C76.8651 101.602 76.8651 101.663 76.8651 101.716C76.8651 102.924 76.3866 104.033 75.422 105.035C74.465 106.038 73.1889 106.539 71.6091 106.539C70.0292 106.539 68.8291 106.068 67.9025 105.126C66.9834 104.184 66.4745 103.151 66.391 102.02C66.3834 101.967 66.3758 101.913 66.3758 101.86V101.716H66.3986ZM68.7076 101.731C68.7076 103.167 69.0114 104.215 69.619 104.876C70.2267 105.536 70.8951 105.871 71.6318 105.871H71.6774C72.4066 105.863 73.0674 105.529 73.675 104.868C74.2827 104.215 74.5865 103.167 74.5865 101.731C74.5865 100.44 74.313 99.4221 73.7586 98.6854C73.2041 97.9486 72.4977 97.584 71.6394 97.584C70.7811 97.584 70.0444 97.9638 69.5127 98.7309C68.981 99.4981 68.7152 100.493 68.7152 101.739L68.7076 101.731ZM82.7212 97.0523L85.8202 105.62H86.8987V109H85.4328V106.402H78.5817V109H77.1158V105.62H78.1791L81.111 97.8347H80.078V97.0523H82.7212ZM81.4224 99.4145L79.159 105.468H83.6707L81.6427 99.3993L81.5895 98.9664H81.506L81.4224 99.4145ZM90.742 102.939L88.9647 105.582H87.7646L89.5116 102.939L87.7646 100.296H88.9647L90.742 102.939ZM93.3549 102.939L91.5775 105.582H90.3623L92.1092 102.939L90.3623 100.296H91.5775L93.3549 102.939Z" fill="#1466B9"/>
<path fill-rule="evenodd" clip-rule="evenodd" d="M98.9694 88.6367C98.3618 89.4495 97.739 90.2394 97.0934 91.0141L71.4586 70.7874L64.5392 69.7316L63.3239 76.8941L55.7132 70.0658L48.1102 76.8941L46.8949 69.7316L39.9754 70.7874L13.3913 91.7661C12.7153 90.9837 12.0697 90.1862 11.4316 89.3659L55.7132 57.989L98.9694 88.6291V88.6367Z" fill="#1466B9"/>
<path fill-rule="evenodd" clip-rule="evenodd" d="M3.60655 75.443C3.24956 74.5164 2.92296 73.5821 2.61914 72.6327L24.7447 67.3918L24.927 68.0602L3.60655 75.443Z" fill="#1466B9"/>
<path fill-rule="evenodd" clip-rule="evenodd" d="M107.226 72.6327C106.922 73.5821 106.588 74.5164 106.238 75.443L84.918 68.0602L85.1003 67.3918L107.226 72.6327Z" fill="#1466B9"/>
<path fill-rule="evenodd" clip-rule="evenodd" d="M7.74869 83.9729C7.25499 83.145 6.78407 82.3095 6.33594 81.4588L26.1525 72.3442L26.4639 72.9671L7.74869 83.9729Z" fill="#1466B9"/>
<path fill-rule="evenodd" clip-rule="evenodd" d="M103.503 81.4588C103.055 82.3095 102.584 83.1526 102.09 83.9729L83.375 72.9671L83.6864 72.3442L103.503 81.4588Z" fill="#1466B9"/>
<path fill-rule="evenodd" clip-rule="evenodd" d="M0.865884 65.5917C0.683593 64.5891 0.531684 63.5789 0.410156 62.5535L24.0245 61.323L24.0852 62.0142L0.865884 65.5841V65.5917Z" fill="#1466B9"/>
<path fill-rule="evenodd" clip-rule="evenodd" d="M109.435 62.5613C109.313 63.579 109.161 64.5968 108.979 65.5994L85.7598 62.0296L85.8205 61.3384L109.435 62.5688V62.5613Z" fill="#1466B9"/>
<path fill-rule="evenodd" clip-rule="evenodd" d="M0 55.6039C0 54.5633 0.0379773 53.5227 0.0987411 52.4973L23.9333 55.6418L23.865 56.333L0 55.6039Z" fill="#1466B9"/>
<path fill-rule="evenodd" clip-rule="evenodd" d="M109.739 52.4973C109.8 53.5227 109.838 54.5633 109.838 55.6039L85.9727 56.333L85.9043 55.6418L109.739 52.4973Z" fill="#1466B9"/>
<path fill-rule="evenodd" clip-rule="evenodd" d="M0.964844 45.5247C1.16233 44.4917 1.38259 43.4663 1.64084 42.4485L24.9134 49.7933L24.7235 50.4617L0.964844 45.5247Z" fill="#1466B9"/>
<path fill-rule="evenodd" clip-rule="evenodd" d="M108.204 42.4563C108.455 43.4665 108.683 44.4919 108.88 45.5325L85.1215 50.4695L84.9316 49.8011L108.204 42.4563Z" fill="#1466B9"/>
<path fill-rule="evenodd" clip-rule="evenodd" d="M3.6543 36.091C4.03407 35.096 4.44423 34.1162 4.88476 33.1592L26.8357 44.5904L26.5319 45.2132L3.6543 36.091Z" fill="#1466B9"/>
<path fill-rule="evenodd" clip-rule="evenodd" d="M104.963 33.1516C105.403 34.1162 105.806 35.0961 106.193 36.0911L83.3155 45.2132L83.0117 44.5904L104.963 33.1592V33.1516Z" fill="#1466B9"/>
<path fill-rule="evenodd" clip-rule="evenodd" d="M8.35547 26.7033C8.91753 25.7994 9.50998 24.9184 10.1252 24.0525L29.7975 39.1523L29.3949 39.7144L8.35547 26.7033Z" fill="#1466B9"/>
<path fill-rule="evenodd" clip-rule="evenodd" d="M99.7211 24.0447C100.336 24.9106 100.921 25.7992 101.491 26.6955L80.4514 39.7065L80.0488 39.1445L99.7211 24.0447Z" fill="#1466B9"/>
<path fill-rule="evenodd" clip-rule="evenodd" d="M14.377 18.7734C15.0985 17.9834 15.8505 17.2163 16.6176 16.4644L33.3201 35.1872L32.8188 35.6657L14.3845 18.7734H14.377Z" fill="#1466B9"/>
<path fill-rule="evenodd" clip-rule="evenodd" d="M93.2261 16.4644C93.9932 17.2087 94.7452 17.9834 95.4668 18.7734L77.0325 35.6657L76.5312 35.1872L93.2337 16.4644H93.2261Z" fill="#1466B9"/>
<path fill-rule="evenodd" clip-rule="evenodd" d="M21.9512 11.8995C22.7867 11.2691 23.645 10.6615 24.5184 10.0842L37.0813 31.0249L36.4965 31.4047L21.9512 11.8995Z" fill="#1466B9"/>
<path fill-rule="evenodd" clip-rule="evenodd" d="M85.3186 10.0764C86.192 10.6613 87.0503 11.2613 87.8858 11.8917L73.3329 31.3969L72.748 31.0171L85.311 10.0764H85.3186Z" fill="#1466B9"/>
<path fill-rule="evenodd" clip-rule="evenodd" d="M30.1543 6.7956C31.0961 6.31708 32.0608 5.86895 33.033 5.4436L42.2539 28.3819L41.6159 28.663L30.1543 6.80319V6.7956Z" fill="#1466B9"/>
<path fill-rule="evenodd" clip-rule="evenodd" d="M76.8127 5.44339C77.7849 5.86873 78.7495 6.31687 79.6914 6.79538L68.2298 28.6551L67.5918 28.3741L76.8127 5.43579V5.44339Z" fill="#1466B9"/>
<path fill-rule="evenodd" clip-rule="evenodd" d="M38.9258 3.27105C39.936 2.95963 40.9614 2.6862 41.9944 2.43555L47.4783 26.5056L46.8023 26.6803L38.9258 3.27105Z" fill="#1466B9"/>
<path fill-rule="evenodd" clip-rule="evenodd" d="M67.8431 2.43555C68.8761 2.6862 69.9015 2.95963 70.9117 3.27105L63.0276 26.6803L62.3516 26.5056L67.8355 2.43555H67.8431Z" fill="#1466B9"/>
<path fill-rule="evenodd" clip-rule="evenodd" d="M48.5723 1.27344C49.6052 1.15191 50.6382 1.06836 51.6864 1L52.97 25.1308L52.2789 25.1916L48.5723 1.27344Z" fill="#1466B9"/>
<path fill-rule="evenodd" clip-rule="evenodd" d="M58.1586 1C59.2068 1.06076 60.2474 1.15191 61.2728 1.27344L57.5662 25.1916L56.875 25.1308L58.1586 1Z" fill="#1466B9"/>
<path fill-rule="evenodd" clip-rule="evenodd" d="M59.0853 42.57V42.7447C59.4043 42.7675 59.7992 42.8206 60.255 42.8966C60.7183 42.9801 61.174 43.1093 61.6297 43.2916C62.5032 43.6106 63.2931 44.1574 64.0071 44.9322C64.7211 45.6993 65.0781 46.8235 65.0781 48.297C65.0781 50.5073 64.2957 52.1707 62.7311 53.2948C61.1664 54.4189 59.4422 55.0418 57.5586 55.1557C57.4446 55.1785 57.3383 55.1861 57.232 55.1861H45.5957V53.2568H48.2845V34.0555H45.5957V32.1262H56.3205C58.5004 32.1262 60.1334 32.4528 61.2196 33.106C62.2981 33.7592 63.0425 34.4884 63.4603 35.2935C63.6425 35.6353 63.7717 35.9847 63.84 36.3265C63.9084 36.6683 63.9464 36.9797 63.9464 37.2532C63.9464 38.8406 63.5058 40.0559 62.6172 40.8914C61.7285 41.7269 60.7487 42.251 59.6701 42.4561C59.579 42.4788 59.4802 42.5016 59.3739 42.5244C59.2675 42.5472 59.1764 42.5624 59.0777 42.5624L59.0853 42.57ZM53.2216 53.2568H55.2192C56.6927 53.2568 57.8776 52.7783 58.789 51.8213C59.7005 50.8718 60.1486 49.7401 60.1486 48.4261C60.1486 48.3122 60.1486 48.1982 60.1334 48.0995C60.1182 47.9932 60.1182 47.8868 60.1182 47.7729C59.9815 46.7855 59.5106 45.8892 58.7207 45.0841C57.9307 44.279 56.6243 43.8764 54.809 43.8764H53.2216V53.2568ZM53.2216 41.9472H54.8774C56.161 41.9472 57.1484 41.6054 57.8244 40.9142C58.5004 40.223 58.9334 39.4634 59.1156 38.6355C59.1612 38.476 59.1916 38.3165 59.1992 38.1722C59.2144 38.0203 59.2144 37.8684 59.2144 37.7089C59.2144 37.6177 59.2144 37.5266 59.1992 37.4506C59.184 37.3671 59.184 37.2835 59.184 37.1924C59.0701 36.4101 58.6751 35.6885 57.9915 35.0353C57.3155 34.3821 56.2597 34.0555 54.8394 34.0555H53.2216V41.9472Z" fill="#1466B9"/>
<path d="M100.812 4.26279V3.96265H104.05C104.8 3.96265 105.379 4.13058 105.786 4.46646C106.194 4.80233 106.397 5.25254 106.397 5.81709V6.06364C106.397 6.49241 106.279 6.85687 106.044 7.15701C105.808 7.45715 105.468 7.67154 105.025 7.80017L106.365 10.3514C106.451 10.5086 106.515 10.6229 106.558 10.6944C106.601 10.7659 106.64 10.8123 106.676 10.8337C106.719 10.848 106.776 10.8623 106.847 10.8766L107.33 10.9517V11.2518H105.325L103.707 7.9288H102.924V10.3514C102.924 10.5943 102.935 10.7408 102.956 10.7909C102.978 10.8337 103.046 10.8623 103.16 10.8766L103.75 10.9517V11.2518H100.812V10.9517L101.402 10.8766C101.516 10.8623 101.584 10.8337 101.606 10.7909C101.627 10.7408 101.638 10.5943 101.638 10.3514V4.86307C101.638 4.6201 101.627 4.47717 101.606 4.4343C101.584 4.38427 101.516 4.35212 101.402 4.33782L100.812 4.26279ZM104.05 4.33782H102.924V7.55363H104.05C104.364 7.55363 104.604 7.45715 104.768 7.2642C104.939 7.06411 105.025 6.69965 105.025 6.17083V5.7099C105.025 5.18108 104.939 4.82019 104.768 4.62725C104.604 4.4343 104.364 4.33782 104.05 4.33782Z" fill="#0F70B7"/>
<circle cx="103.607" cy="7.60718" r="6.60718" stroke="#0F70B7"/>
</svg>
