<svg width="184" height="95" viewBox="0 0 184 95" fill="none" xmlns="http://www.w3.org/2000/svg">
<path d="M23.8147 28.0086C24.2622 28.0938 24.7487 28.1364 25.2742 28.1364C26.2828 28.1364 27.1492 27.9695 27.8737 27.6357C28.6052 27.309 29.2231 26.8331 29.7274 26.2081C30.2316 25.5902 30.6365 24.8481 30.9419 23.9816L37.4937 5.63641H33.3921L29.6102 17.9944H29.4397L25.6684 5.63641H21.5775L27.5115 22.341L27.1812 23.2252C26.9468 23.8431 26.6592 24.2834 26.3183 24.5462C25.9845 24.8161 25.5974 24.9546 25.1571 24.9617C24.7167 24.9688 24.216 24.8907 23.6549 24.7273L22.76 27.7316C23.0228 27.8381 23.3744 27.9304 23.8147 28.0086Z" fill="white"/>
<path d="M37.9855 22L37.9642 18.8253H38.5288C38.9549 18.8253 39.3136 18.7294 39.6048 18.5377C39.896 18.3459 40.1375 18.0263 40.3292 17.5789C40.521 17.1243 40.6701 16.5135 40.7767 15.7465C40.8832 14.9794 40.9578 14.0242 41.0004 12.8807L41.288 5.63641H53.2198V22H49.4911V8.80047H44.793L44.5373 14.0739C44.4734 15.4375 44.3207 16.6201 44.0792 17.6215C43.8448 18.6158 43.511 19.4361 43.0778 20.0824C42.6517 20.7287 42.1154 21.2117 41.4691 21.5313C40.8228 21.8438 40.0593 22 39.1786 22H37.9855Z" fill="white"/>
<path fill-rule="evenodd" clip-rule="evenodd" d="M59.31 21.7763C60.1409 22.1456 61.0749 22.3303 62.1118 22.3303C62.9641 22.3303 63.7063 22.2131 64.3384 21.9787C64.9776 21.7373 65.5067 21.4212 65.9257 21.0306C66.3519 20.6329 66.6821 20.2067 66.9165 19.7522H67.0443V22H70.7517V11.0483C70.7517 9.96169 70.5529 9.05615 70.1551 8.33172C69.7645 7.60729 69.2461 7.03556 68.5997 6.61652C67.9534 6.19038 67.2397 5.88499 66.4584 5.70033C65.6772 5.51567 64.8924 5.42334 64.104 5.42334C62.9605 5.42334 61.9165 5.59379 60.9719 5.9347C60.0273 6.26851 59.2283 6.77277 58.5749 7.44749C57.9215 8.1151 57.4527 8.94607 57.1686 9.94038L60.7695 10.4517C60.9613 9.89067 61.3306 9.40416 61.8774 8.99223C62.4314 8.5803 63.1807 8.37433 64.1253 8.37433C65.0202 8.37433 65.7056 8.5945 66.1814 9.03485C66.6573 9.47519 66.8952 10.0966 66.8952 10.8992V10.9631C66.8952 11.3324 66.7567 11.6059 66.4797 11.7834C66.2098 11.9539 65.7766 12.0817 65.18 12.1669C64.5834 12.2451 63.8057 12.3339 62.8469 12.4333C62.0515 12.5185 61.2809 12.657 60.5351 12.8488C59.7965 13.0334 59.1324 13.3069 58.5429 13.6691C57.9534 14.0313 57.4882 14.5142 57.1473 15.1179C56.8064 15.7216 56.636 16.4851 56.636 17.4084C56.636 18.4809 56.8739 19.3829 57.3497 20.1144C57.8327 20.8459 58.4861 21.3999 59.31 21.7763ZM65.1267 19.0384C64.5586 19.3438 63.8874 19.4965 63.1132 19.4965C62.3107 19.4965 61.6502 19.3154 61.1317 18.9532C60.6132 18.591 60.354 18.0547 60.354 17.3445C60.354 16.8473 60.4854 16.4425 60.7482 16.13C61.011 15.8104 61.3696 15.5618 61.8242 15.3843C62.2787 15.2067 62.7936 15.0789 63.3689 15.0008C63.6246 14.9652 63.9264 14.9226 64.2745 14.8729C64.6225 14.8232 64.974 14.7664 65.3292 14.7025C65.6843 14.6385 66.0039 14.564 66.288 14.4787C66.5791 14.3935 66.7851 14.3012 66.9059 14.2017V16.13C66.9059 16.7337 66.7496 17.2912 66.4371 17.8026C66.1317 18.314 65.6949 18.7259 65.1267 19.0384Z" fill="white"/>
<path fill-rule="evenodd" clip-rule="evenodd" d="M30.9578 40.0746C30.5956 40.5221 30.3151 40.9446 30.1162 41.3424H29.8925V38.6364H26.0999V61.1364H29.9564V52.4219H30.1162C30.3222 52.8196 30.6098 53.2422 30.9791 53.6897C31.3556 54.13 31.8527 54.5064 32.4706 54.8189C33.0885 55.1314 33.8662 55.2877 34.8037 55.2877C36.0892 55.2877 37.2398 54.9574 38.2554 54.2969C39.271 53.6364 40.0736 52.6776 40.6631 51.4205C41.2526 50.1634 41.5473 48.6364 41.5473 46.8395C41.5473 45.0214 41.2455 43.4873 40.6418 42.2373C40.0452 40.9802 39.2355 40.032 38.2128 39.3928C37.1972 38.7465 36.0573 38.4233 34.7931 38.4233C33.8343 38.4233 33.0459 38.5867 32.428 38.9134C31.8101 39.233 31.3201 39.6201 30.9578 40.0746ZM30.3293 49.5988C30.031 48.8033 29.8818 47.8765 29.8818 46.8182C29.8818 45.76 30.0274 44.8402 30.3186 44.059C30.6169 43.2777 31.0537 42.6705 31.629 42.2373C32.2043 41.804 32.9039 41.5874 33.7277 41.5874C34.5871 41.5874 35.3044 41.8111 35.8797 42.2586C36.455 42.706 36.8882 43.3239 37.1794 44.1123C37.4706 44.9006 37.6162 45.8026 37.6162 46.8182C37.6162 47.841 37.4671 48.7536 37.1688 49.5562C36.8776 50.3516 36.4443 50.9802 35.8691 51.4418C35.2938 51.8964 34.58 52.1236 33.7277 52.1236C32.911 52.1236 32.2149 51.9035 31.6397 51.4631C31.0715 51.0157 30.6347 50.3942 30.3293 49.5988Z" fill="white"/>
<path fill-rule="evenodd" clip-rule="evenodd" d="M52.2877 55.3196C50.6897 55.3196 49.3047 54.9681 48.1328 54.265C46.961 53.5618 46.0519 52.5782 45.4056 51.314C44.7664 50.0498 44.4468 48.5725 44.4468 46.8821C44.4468 45.1918 44.7664 43.711 45.4056 42.4397C46.0519 41.1684 46.961 40.1812 48.1328 39.478C49.3047 38.7749 50.6897 38.4233 52.2877 38.4233C53.8857 38.4233 55.2706 38.7749 56.4425 39.478C57.6144 40.1812 58.5199 41.1684 59.1591 42.4397C59.8054 43.711 60.1286 45.1918 60.1286 46.8821C60.1286 48.5725 59.8054 50.0498 59.1591 51.314C58.5199 52.5782 57.6144 53.5618 56.4425 54.265C55.2706 54.9681 53.8857 55.3196 52.2877 55.3196ZM52.309 52.2302C53.1755 52.2302 53.8999 51.9922 54.4823 51.5164C55.0647 51.0334 55.4979 50.3871 55.782 49.5775C56.0732 48.7678 56.2188 47.8658 56.2188 46.8715C56.2188 45.8701 56.0732 44.9645 55.782 44.1549C55.4979 43.3381 55.0647 42.6883 54.4823 42.2053C53.8999 41.7223 53.1755 41.4809 52.309 41.4809C51.4212 41.4809 50.6826 41.7223 50.0931 42.2053C49.5107 42.6883 49.0739 43.3381 48.7827 44.1549C48.4986 44.9645 48.3566 45.8701 48.3566 46.8715C48.3566 47.8658 48.4986 48.7678 48.7827 49.5775C49.0739 50.3871 49.5107 51.0334 50.0931 51.5164C50.6826 51.9922 51.4212 52.2302 52.309 52.2302Z" fill="white"/>
<path d="M77.9774 38.6364L73.1195 50.515L68.3893 38.6364H63.7018V55H67.4199V43.9741L71.7771 55H74.4724L78.9788 43.8538V55H82.6649V38.6364H77.9774Z" fill="white"/>
<path d="M49.065 88.3196C47.4315 88.3196 46.0288 87.961 44.8569 87.2437C43.6921 86.5263 42.7937 85.5356 42.1616 84.2714C41.5366 83 41.2241 81.537 41.2241 79.8821C41.2241 78.2202 41.5437 76.7536 42.1829 75.4823C42.8221 74.2039 43.7241 73.2096 44.8889 72.4993C46.0608 71.782 47.4457 71.4233 49.0437 71.4233C50.3718 71.4233 51.5473 71.6684 52.57 72.1584C53.5998 72.6414 54.4201 73.3267 55.0309 74.2145C55.6417 75.0952 55.9897 76.125 56.075 77.304H52.3889C52.2397 76.5157 51.8846 75.8587 51.3235 75.3331C50.7696 74.8005 50.0274 74.5341 49.097 74.5341C48.3086 74.5341 47.6162 74.7472 47.0196 75.1733C46.423 75.5924 45.9578 76.1961 45.624 76.9844C45.2973 77.7728 45.1339 78.7174 45.1339 79.8182C45.1339 80.9333 45.2973 81.8921 45.624 82.6946C45.9507 83.4901 46.4088 84.1045 46.9983 84.5377C47.5948 84.9638 48.2944 85.1769 49.097 85.1769C49.6652 85.1769 50.173 85.0704 50.6204 84.8573C51.075 84.6371 51.4549 84.3211 51.7603 83.9091C52.0657 83.4972 52.2752 82.9965 52.3889 82.407H56.075C55.9826 83.5647 55.6417 84.591 55.0522 85.4858C54.4627 86.3736 53.6602 87.0696 52.6446 87.5739C51.6289 88.0711 50.4357 88.3196 49.065 88.3196Z" fill="white"/>
<path fill-rule="evenodd" clip-rule="evenodd" d="M80.9221 86.6897C80.5528 86.2422 80.2652 85.8196 80.0592 85.4219H79.8994V94.1364H76.0429V71.6364H79.8355V74.3424H80.0592C80.258 73.9446 80.5386 73.5221 80.9008 73.0746C81.263 72.6201 81.7531 72.233 82.371 71.9134C82.9889 71.5867 83.7772 71.4233 84.736 71.4233C86.0002 71.4233 87.1402 71.7465 88.1558 72.3928C89.1785 73.032 89.9882 73.9802 90.5848 75.2373C91.1884 76.4873 91.4903 78.0213 91.4903 79.8395C91.4903 81.6364 91.1955 83.1634 90.6061 84.4205C90.0166 85.6776 89.214 86.6364 88.1984 87.2969C87.1828 87.9574 86.0322 88.2877 84.7467 88.2877C83.8092 88.2877 83.0315 88.1314 82.4136 87.8189C81.7957 87.5064 81.2985 87.13 80.9221 86.6897ZM79.8248 79.8182C79.8248 80.8765 79.974 81.8033 80.2723 82.5988C80.5777 83.3942 81.0144 84.0157 81.5826 84.4631C82.1579 84.9035 82.8539 85.1236 83.6707 85.1236C84.523 85.1236 85.2367 84.8963 85.812 84.4418C86.3873 83.9802 86.8206 83.3516 87.1117 82.5562C87.41 81.7536 87.5592 80.841 87.5592 79.8182C87.5592 78.8026 87.4136 77.9006 87.1224 77.1123C86.8312 76.3239 86.398 75.706 85.8227 75.2586C85.2474 74.8111 84.5301 74.5874 83.6707 74.5874C82.8468 74.5874 82.1473 74.804 81.572 75.2373C80.9967 75.6705 80.5599 76.2777 80.2616 77.059C79.9704 77.8402 79.8248 78.76 79.8248 79.8182Z" fill="white"/>
<path d="M95.4737 94.0086C95.9212 94.0938 96.4077 94.1364 96.9332 94.1364C97.9418 94.1364 98.8082 93.9695 99.5327 93.6357C100.264 93.309 100.882 92.8331 101.386 92.2081C101.891 91.5902 102.295 90.8481 102.601 89.9816L109.153 71.6364H105.051L101.269 83.9944H101.099L97.3274 71.6364H93.2365L99.1704 88.341L98.8402 89.2252C98.6058 89.8431 98.3182 90.2834 97.9773 90.5462C97.6435 90.8161 97.2564 90.9546 96.816 90.9617C96.3757 90.9688 95.875 90.8907 95.3139 90.7273L94.419 93.7316C94.6818 93.8381 95.0334 93.9304 95.4737 94.0086Z" fill="white"/>
<path d="M121.539 83.515L126.397 71.6364H131.084V88H127.398V76.8538L122.892 88H120.197L115.839 76.9741V88H112.121V71.6364H116.809L121.539 83.515Z" fill="white"/>
<path fill-rule="evenodd" clip-rule="evenodd" d="M138.267 87.2969C139.46 87.9787 140.877 88.3196 142.517 88.3196C143.789 88.3196 144.918 88.1279 145.905 87.7444C146.892 87.3537 147.702 86.8069 148.334 86.1037C148.973 85.3935 149.406 84.5625 149.634 83.6108L146.033 83.206C145.862 83.6677 145.61 84.0547 145.276 84.3672C144.943 84.6797 144.549 84.9177 144.094 85.081C143.639 85.2373 143.132 85.3154 142.571 85.3154C141.732 85.3154 141.001 85.1378 140.376 84.7827C139.751 84.4205 139.264 83.902 138.916 83.2273C138.58 82.5685 138.406 81.7837 138.395 80.8729H149.794V79.6904C149.794 78.2557 149.595 77.0199 149.197 75.983C148.799 74.939 148.252 74.0796 147.556 73.4049C146.867 72.7302 146.072 72.233 145.17 71.9134C144.275 71.5867 143.323 71.4233 142.315 71.4233C140.752 71.4233 139.392 71.782 138.235 72.4993C137.077 73.2096 136.175 74.2039 135.529 75.4823C134.889 76.7536 134.57 78.2309 134.57 79.9141C134.57 81.6258 134.889 83.1137 135.529 84.3779C136.168 85.635 137.08 86.608 138.267 87.2969ZM138.402 78.2735C138.439 77.6324 138.604 77.0393 138.895 76.4944C139.229 75.8765 139.694 75.3793 140.291 75.0029C140.887 74.6194 141.58 74.4276 142.368 74.4276C143.107 74.4276 143.753 74.5945 144.307 74.9283C144.868 75.2621 145.305 75.7202 145.617 76.3026C145.93 76.8779 146.09 77.5348 146.097 78.2735H138.402Z" fill="white"/>
<path d="M34.018 81.3843H27.6793V88H23.9612V71.6364H27.6793V78.2202H34.018V71.6364H37.7254V88H34.018V81.3843Z" fill="white"/>
<path d="M58.3538 71.6364V74.8005H63.6486V88H67.3773V74.8005H72.672V71.6364H58.3538Z" fill="white"/>
<path d="M157.074 81.3843H163.413V88H167.12V71.6364H163.413V78.2202H157.074V71.6364H153.356V88H157.074V81.3843Z" fill="white"/>
<path d="M169.49 71.6364V74.8005H174.785V88H178.513V74.8005H183.808V71.6364H169.49Z" fill="white"/>
<path d="M14.233 76.537L6.34947 88.0001H1.40628V66.1819H7.32958V77.6023H7.50003L15.2557 66.1819H20.2841V88.0001H14.3608V76.537H14.233Z" fill="#1466B9"/>
<path d="M0.809692 0.181885V4.95461H7.37219V22.0001H13.2103V4.95461H19.7728V0.181885H0.809692Z" fill="#1466B9"/>
<path d="M21.4347 33.1819V55.0001H15.5966V37.8694H8.22447V55.0001H2.3864V33.1819H21.4347Z" fill="#1466B9"/>
</svg>
