<svg xmlns="http://www.w3.org/2000/svg">
<symbol id="arrow1" viewBox="0 0 17 17">
  <path fill-rule="evenodd" clip-rule="evenodd" d="M13.4639 8.96041H6.70405e-05V7.11425H13.4639L7.65505 1.30543L8.96047 0L16.9978 8.03733L8.96047 16.0747L7.65505 14.7693L13.4639 8.96041Z"/>
</symbol>
<symbol id="basket1" viewBox="0 0 20 20">
  <path fill-rule="evenodd" clip-rule="evenodd" d="M17.0174 19.2837L19.8794 5.25989H0.12207L2.98407 19.2837H17.0174ZM4.09222 17.9266L1.78415 6.61703H18.2173L15.9093 17.9266H4.09222Z"/>
  <path d="M13.3923 0.736206H6.60657V4.12906H7.96372V2.09335H12.0351V4.12906H13.3923V0.736206Z"/>
</symbol>
<symbol id="bin1" viewBox="0 0 18 20">
  <path d="M16.031 2.344h-2.93v-.586A1.76 1.76 0 0 0 11.345 0H6.656a1.76 1.76 0 0 0-1.758 1.758v.586h-2.93A1.76 1.76 0 0 0 .212 4.102c0 .778.509 1.44 1.211 1.67l1.045 12.616A1.768 1.768 0 0 0 4.22 20h9.562c.907 0 1.677-.708 1.752-1.612l1.045-12.616a1.76 1.76 0 0 0 1.211-1.67 1.76 1.76 0 0 0-1.758-1.758Zm-9.96-.586c0-.323.262-.586.585-.586h4.688c.323 0 .586.263.586.586v.586H6.07v-.586Zm8.294 16.533a.59.59 0 0 1-.584.537H4.22a.59.59 0 0 1-.584-.537L2.605 5.86h12.79l-1.03 12.432Zm1.666-13.604H1.97a.587.587 0 0 1 0-1.171h14.06a.587.587 0 0 1 0 1.171Z"/>
  <path d="M6.655 17.034 6.07 7.581a.587.587 0 0 0-1.17.072l.587 9.454a.586.586 0 1 0 1.17-.073ZM9 7.031a.586.586 0 0 0-.586.586v9.453a.586.586 0 0 0 1.172 0V7.617A.586.586 0 0 0 9 7.031Zm3.552.001a.586.586 0 0 0-.621.549l-.586 9.453a.586.586 0 0 0 1.17.073l.585-9.454a.586.586 0 0 0-.548-.62Z"/>
</symbol>
<symbol id="burger1" viewBox="0 0 28 12">
  <path d="M0 2H28V0H0V2Z"/>
  <path d="M0 10H28V12H0V10Z"/>
</symbol>
<symbol id="burger2" viewBox="0 0 32 18">
  <path d="M1 1H31" stroke-linecap="round"/>
  <path d="M1 9H31" stroke-linecap="round"/>
  <path d="M1 17H31" stroke-linecap="round"/>
</symbol>
<symbol id="cancel" viewBox="0 0 13 14">
  <path d="M12 7a5.5 5.5 0 1 0-5.5 5.5v1a6.5 6.5 0 1 1 0-13 6.5 6.5 0 0 1 0 13v-1A5.5 5.5 0 0 0 12 7Z"/>
  <path d="M4.31 8.554 8.055 4.81l.635.635-3.743 3.743-.635-.635Zm0-3.108.636-.635 3.743 3.743-.635.635-3.743-3.743Z"/>
</symbol>
<symbol id="chek1" viewBox="0 0 13 14">
  <path d="M12 7a5.5 5.5 0 1 0-5.5 5.5v1a6.5 6.5 0 1 1 0-13 6.5 6.5 0 0 1 0 13v-1A5.5 5.5 0 0 0 12 7Z"/>
  <path d="M9.656 4.434a.5.5 0 0 1 .696.69l-.065.078-4.65 4.692-.355-.388L3.276 7.31l-.06-.081a.5.5 0 0 1 .723-.661l.076.067 1.65 1.808L9.577 4.5l.079-.065Z"/>
</symbol>
<symbol id="chevron1" viewBox="0 0 12 7">
  <path fill-rule="evenodd" clip-rule="evenodd" d="M10.6667 0L11.6095 0.94281L5.80474 6.7476L0 0.94281L0.94281 0L5.80474 4.86193L10.6667 0Z"/>
</symbol>
<symbol id="chevron2" viewBox="0 0 14 34">
  <path d="M13 1L1 17L13 33" stroke-width="1.5" stroke-linecap="round" stroke-linejoin="round"/>
</symbol>
<symbol id="chevron3" viewBox="0 0 9 14">
  <path d="M5.45 7.136.5 2.186 1.914.772l6.364 6.364L1.914 13.5.5 12.086l4.95-4.95Z"/>
</symbol>
<symbol id="close1" viewBox="0 0 20 20">
  <path d="M20 2.01429L17.9857 0L10 7.98571L2.01429 0L0 2.01429L7.98571 10L0 17.9857L2.01429 20L10 12.0143L17.9857 20L20 17.9857L12.0143 10L20 2.01429Z"/>
</symbol>
<symbol id="close2" viewBox="0 0 18 18">
  <path d="M1.39355 1L17 16.6064" stroke-linecap="round"/>
  <path d="M1.39355 16.6064L17 1" stroke-linecap="round"/>
</symbol>
<symbol id="document" viewBox="0 0 38 40">
<path d="M37.6316 10.8248L27.4411 0.235781C27.296 0.0851562 27.0959 0 26.8868 0H11.6985C9.99875 0 8.61586 1.38234 8.61586 3.08141V13.8462H2.46063C1.18891 13.8462 0.154297 14.8805 0.154297 16.1519V27.6944C0.154297 28.9657 1.18891 30 2.46063 30H8.61586V36.924C8.61586 38.6201 9.99875 40 11.6985 40H34.764C36.4638 40 37.8466 38.6209 37.8466 36.9257V11.3582C37.8466 11.1593 37.7695 10.9681 37.6316 10.8248ZM27.0774 2.07664L35.443 10.7692H27.0774V2.07664ZM2.46063 28.4616C2.03719 28.4616 1.69281 28.1174 1.69281 27.6944V16.1519C1.69281 15.7288 2.03727 15.3846 2.46063 15.3846H23.2326C23.6559 15.3846 24.0005 15.7288 24.0005 16.1519V27.6944C24.0005 28.1174 23.6559 28.4616 23.2326 28.4616H2.46063ZM36.3081 36.9257C36.3081 37.7726 35.6154 38.4616 34.7639 38.4616H11.6985C10.847 38.4616 10.1543 37.7719 10.1543 36.9241V30H23.2325C24.5043 30 25.5389 28.9657 25.5389 27.6944V16.1519C25.5389 14.8805 24.5043 13.8462 23.2325 13.8462H10.1543V3.08141C10.1543 2.23055 10.847 1.53844 11.6985 1.53844H25.5389V11.5384C25.5389 11.9633 25.8834 12.3077 26.3081 12.3077H36.3081V36.9257Z" fill="#3F3F40"/>
<path d="M8.32086 20.5821C8.17664 20.16 7.96648 19.8033 7.68992 19.5117C7.41359 19.2202 7.08148 19.0175 6.69383 18.9033C6.40539 18.819 5.98633 18.7771 5.43633 18.7771H2.99805V25.3846H5.50844C6.00133 25.3846 6.395 25.3381 6.68937 25.2448C7.08305 25.1186 7.39555 24.9428 7.62687 24.7175C7.93344 24.42 8.16922 24.0309 8.33461 23.5501C8.46977 23.1565 8.53726 22.6879 8.53726 22.1438C8.53719 21.525 8.46508 21.0044 8.32086 20.5821ZM7.02273 23.2955C6.93273 23.5916 6.81617 23.804 6.67352 23.9332C6.53078 24.0624 6.35117 24.1542 6.13484 24.2082C5.96969 24.2503 5.70062 24.2712 5.32812 24.2712H4.33203V19.8947H4.93141C5.47547 19.8947 5.84047 19.9157 6.0268 19.9578C6.27625 20.012 6.48203 20.1157 6.6443 20.2687C6.80641 20.422 6.93273 20.6355 7.02273 20.909C7.11289 21.1823 7.15812 21.5744 7.15812 22.0853C7.1582 22.5962 7.11297 22.9996 7.02273 23.2955Z" fill="#1466B9"/>
<path d="M21.0764 22.9552C20.9651 23.439 20.7818 23.7937 20.5264 24.0189C20.2711 24.2443 19.9661 24.357 19.6114 24.357C19.1307 24.357 18.7401 24.1797 18.4397 23.8253C18.1392 23.4707 17.9889 22.8756 17.9889 22.0403C17.9889 21.2532 18.1414 20.6837 18.4464 20.3322C18.7514 19.9805 19.1488 19.8047 19.6386 19.8047C19.9932 19.8047 20.2943 19.9039 20.5422 20.1022C20.7901 20.3006 20.9532 20.571 21.0313 20.9135L22.3519 20.5979C22.2018 20.069 21.9764 19.6635 21.676 19.381C21.1711 18.9033 20.5146 18.6644 19.7064 18.6644C18.7807 18.6644 18.034 18.9686 17.4662 19.5772C16.8983 20.1857 16.6143 21.0397 16.6143 22.1394C16.6143 23.179 16.8968 23.9986 17.4618 24.5981C18.0265 25.1976 18.7477 25.4973 19.6252 25.4973C20.3342 25.4973 20.9194 25.3223 21.3807 24.9722C21.8419 24.6222 22.1717 24.0866 22.37 23.3654L21.0764 22.9552Z" fill="#1466B9"/>
<path d="M14.9311 19.5704C14.3465 18.9664 13.5677 18.6644 12.594 18.6644C12.0561 18.6644 11.5815 18.7515 11.1698 18.9258C10.8603 19.055 10.5755 19.2533 10.3157 19.5208C10.0557 19.788 9.8507 20.0901 9.70031 20.4267C9.49898 20.8834 9.39844 21.4483 9.39844 22.1213C9.39844 23.173 9.68844 23.9986 10.2682 24.598C10.8482 25.1975 11.6296 25.4972 12.6121 25.4972C13.5827 25.4972 14.3579 25.1961 14.9379 24.5936C15.5177 23.9911 15.8077 23.1565 15.8077 22.0897C15.8077 21.014 15.5155 20.1743 14.9311 19.5704ZM13.9169 23.7824C13.5759 24.1654 13.1394 24.357 12.6074 24.357C12.0757 24.357 11.637 24.164 11.2915 23.7779C10.9459 23.3918 10.773 22.8247 10.773 22.0765C10.773 21.3162 10.9413 20.7476 11.2778 20.3704C11.6144 19.9933 12.0577 19.8047 12.6074 19.8047C13.1574 19.8047 13.5984 19.991 13.9303 20.3637C14.2624 20.7362 14.4284 21.3012 14.4284 22.0583C14.4284 22.8247 14.258 23.3993 13.9169 23.7824Z" fill="#1466B9"/>
</symbol>
<symbol id="email" viewBox="0 0 14 11">
  <path fill-rule="evenodd" d="m1.838 1.065 4.527 4.474a.905.905 0 0 0 1.27 0l4.527-4.474H1.838Zm11.085.752v7.941c0 .098-.08.177-.18.177H1.257a.179.179 0 0 1-.18-.177v-7.94l4.528 4.474a1.99 1.99 0 0 0 2.792 0l4.527-4.475ZM.368.364C.595.14.91 0 1.256 0h11.488c.346 0 .661.14.888.364.227.224.368.535.368.878v8.516A1.25 1.25 0 0 1 12.744 11H1.256A1.25 1.25 0 0 1 0 9.758V1.242C0 .899.141.588.368.364Z" clip-rule="evenodd"/>
</symbol>
<symbol id="heart1" viewBox="0 0 20 18">
  <path d="M0.00383165 5.61803C0.0689558 5.22317 0.107264 4.82443 0.206865 4.43731C0.73169 2.40879 1.90776 0.926111 3.91511 0.287359C6.06038 -0.397848 7.92983 0.155737 9.47748 1.80488C9.66136 1.99844 9.82226 2.21136 10.0023 2.42815C10.1785 2.2191 10.3394 2.01005 10.5195 1.81262C11.3737 0.883527 12.3927 0.237033 13.6531 0.0744414C15.5992 -0.177188 17.2656 0.422852 18.5451 1.9365C19.8246 3.45015 20.2 5.23865 19.905 7.18201C19.7173 8.41306 19.1618 9.48539 18.434 10.4725C17.4801 11.7694 16.3155 12.8611 15.1165 13.9179C13.7029 15.1606 12.2778 16.3955 10.8566 17.6304C10.3088 18.1066 9.72266 18.126 9.19783 17.6692C7.34371 16.0432 5.48575 14.4251 3.65462 12.7721C2.72372 11.9359 1.89243 10.999 1.20671 9.93832C0.563133 8.93567 0.130249 7.8556 0.0306474 6.65552C0.0268165 6.60907 0.0114925 6.56648 0 6.5239C0.00383083 6.22195 0.00383165 5.91999 0.00383165 5.61803ZM9.99848 16.8059C10.0483 16.7672 10.0904 16.7362 10.1287 16.7013C11.7109 15.3193 13.3007 13.9489 14.8675 12.5553C15.9631 11.5797 17.0051 10.5461 17.8134 9.30731C18.5872 8.12659 18.9665 6.84134 18.7902 5.41673C18.5987 3.87985 17.9475 2.60622 16.599 1.80488C15.3425 1.05773 14.0132 0.964823 12.6801 1.61519C11.8909 1.99844 11.3086 2.62171 10.8183 3.34563C10.7493 3.45015 10.6842 3.55854 10.6114 3.65919C10.2896 4.10439 9.715 4.10051 9.38937 3.66307C9.10589 3.27981 8.8454 2.87334 8.51977 2.52493C7.47396 1.40614 6.17913 0.972565 4.68894 1.29775C3.07999 1.65003 2.02268 2.67978 1.49019 4.22826C0.869599 6.02838 1.16457 7.72398 2.19124 9.30344C2.82716 10.2829 3.60865 11.1423 4.46675 11.9204C5.88416 13.2095 7.33221 14.4677 8.76495 15.7335C9.17485 16.0936 9.58475 16.4458 9.99848 16.8059Z"/>
</symbol>
<symbol id="icon-download" viewBox="0 0 23 23">
  <path fill-rule="evenodd" d="M11.605.37a1 1 0 0 1 1 1v12.743l3.346-3.346a1 1 0 0 1 1.414 1.415l-5.053 5.052a1 1 0 0 1-1.414 0l-5.052-5.053a1 1 0 1 1 1.414-1.414l3.345 3.346V1.369a1 1 0 0 1 1-1ZM1.5 15.526a1 1 0 0 1 1 1v1.263a2.79 2.79 0 0 0 2.79 2.79h12.63a2.79 2.79 0 0 0 2.79-2.79v-1.263a1 1 0 1 1 2 0v1.263a4.79 4.79 0 0 1-4.79 4.79H5.29A4.79 4.79 0 0 1 .5 17.79v-1.263a1 1 0 0 1 1-1Z" clip-rule="evenodd"/>
</symbol>
<symbol id="minus1" viewBox="0 0 16 2">
  <rect width="16" height="2" rx="1"/>
</symbol>
<symbol id="password" viewBox="0 0 23 12">
<path fill-rule="evenodd" clip-rule="evenodd" d="M22.5136 0.066361C22.9208 0.244361 23.1094 0.725345 22.935 1.14067L22.1975 0.818376C22.935 1.14067 22.935 1.14067 22.935 1.14067L22.9342 1.1425L22.933 1.14522L22.9296 1.15325L22.9182 1.1795C22.9085 1.20147 22.8948 1.23225 22.8771 1.27118C22.8415 1.34902 22.7895 1.45955 22.7205 1.59745C22.5826 1.87306 22.3767 2.25909 22.0996 2.71267C21.6443 3.45779 20.9913 4.39388 20.1243 5.32398L21.1602 6.38028C21.4734 6.69981 21.4734 7.21787 21.1602 7.53739C20.8469 7.85691 20.3389 7.85691 20.0255 7.53739L18.9551 6.44585C18.2494 7.04878 17.4401 7.61463 16.5225 8.07956L17.5212 9.64477C17.7629 10.0234 17.6577 10.5302 17.2863 10.7767C16.9149 11.0231 16.4179 10.9159 16.1762 10.5371L15.011 8.71108C14.1773 8.98871 13.2747 9.17743 12.3022 9.24507V11.1818C12.3022 11.6337 11.9429 12 11.4998 12C11.0567 12 10.6975 11.6337 10.6975 11.1818V9.24507C9.75505 9.17951 8.87805 9.00027 8.06581 8.7365L6.91682 10.5372C6.67515 10.916 6.17816 11.0232 5.80674 10.7768C5.43534 10.5304 5.33017 10.0235 5.57182 9.64477L6.5479 8.11513C5.62321 7.65455 4.80731 7.09122 4.0955 6.48905L3.06748 7.53739C2.75416 7.85691 2.24616 7.85691 1.93283 7.53739C1.6195 7.21787 1.6195 6.69991 1.93283 6.38039L2.92104 5.37263C2.03896 4.43479 1.37491 3.4873 0.912263 2.73253C0.63099 2.27367 0.42213 1.8827 0.28229 1.60348C0.212328 1.46378 0.159503 1.35177 0.12342 1.27288C0.105373 1.23344 0.0914983 1.20224 0.0817421 1.17998L0.0701992 1.15339L0.0667332 1.14526L0.0655673 1.14252L0.0651286 1.14149C0.0651286 1.14149 0.0647863 1.14067 0.802238 0.818376L0.0651286 1.14149C-0.109414 0.726152 0.0789072 0.244361 0.486187 0.066361C0.893135 -0.111487 1.36437 0.0804445 1.53926 0.495059L1.54028 0.497447L1.54678 0.512414C1.55308 0.526803 1.56335 0.549919 1.5776 0.581086C1.60613 0.643441 1.6506 0.737923 1.71136 0.859263C1.83299 1.10212 2.01931 1.45139 2.27295 1.86519C2.78174 2.69523 3.55329 3.77151 4.60598 4.76915C5.53229 5.64699 6.66739 6.45567 8.02498 6.98824C9.04606 7.38881 10.2006 7.63644 11.4998 7.63644C12.8282 7.63644 14.0053 7.37768 15.0434 6.96096C16.3928 6.41934 17.5202 5.60543 18.4391 4.72595C19.4763 3.7332 20.2365 2.66761 20.7378 1.84731C20.9877 1.43834 21.1711 1.09357 21.2909 0.854015C21.3508 0.734334 21.3946 0.641183 21.4227 0.579744C21.4367 0.549024 21.4469 0.526269 21.4531 0.512098L21.4594 0.497393L21.4601 0.496084M22.5136 0.066361C22.1063 -0.111585 21.6347 0.0809789 21.4601 0.496084L22.5136 0.066361Z" fill="#9F9FA0"/>
</symbol>
<symbol id="password2" viewBox="0 0 26 26">
<path fill-rule="evenodd" clip-rule="evenodd" d="M13 8.9375C10.7563 8.9375 8.9375 10.7563 8.9375 13C8.9375 15.2437 10.7563 17.0625 13 17.0625C15.2437 17.0625 17.0625 15.2437 17.0625 13C17.0625 10.7563 15.2437 8.9375 13 8.9375ZM10.5625 13C10.5625 11.6538 11.6538 10.5625 13 10.5625C14.3461 10.5625 15.4375 11.6538 15.4375 13C15.4375 14.3461 14.3461 15.4375 13 15.4375C11.6538 15.4375 10.5625 14.3461 10.5625 13Z" fill="#9F9FA0"/>
<path fill-rule="evenodd" clip-rule="evenodd" d="M12.9974 3.52075C8.10709 3.52075 4.81313 6.4503 2.90135 8.93402L2.86686 8.9788C2.43451 9.54033 2.03629 10.0575 1.76614 10.669C1.47684 11.3239 1.35156 12.0376 1.35156 12.9999C1.35156 13.9622 1.47684 14.6759 1.76614 15.3308C2.03629 15.9424 2.43451 16.4595 2.86688 17.021L2.90135 17.0658C4.81313 19.5495 8.10709 22.4791 12.9974 22.4791C17.8877 22.4791 21.1817 19.5495 23.0934 17.0658L23.1279 17.021C23.5603 16.4595 23.9585 15.9424 24.2286 15.3308C24.518 14.6759 24.6432 13.9622 24.6432 12.9999C24.6432 12.0376 24.518 11.3239 24.2286 10.669C23.9585 10.0575 23.5603 9.54032 23.1279 8.97878L23.0934 8.93402C21.1817 6.4503 17.8877 3.52075 12.9974 3.52075ZM4.18905 9.9252C5.95426 7.63192 8.82695 5.14575 12.9974 5.14575C17.1678 5.14575 20.0406 7.63192 21.8058 9.9252C22.2809 10.5425 22.5592 10.9114 22.7422 11.3256C22.9134 11.7129 23.0182 12.1862 23.0182 12.9999C23.0182 13.8136 22.9134 14.2869 22.7422 14.6742C22.5592 15.0885 22.2809 15.4574 21.8058 16.0746C20.0406 18.3679 17.1678 20.8541 12.9974 20.8541C8.82695 20.8541 5.95426 18.3679 4.18905 16.0746C3.71392 15.4574 3.43561 15.0885 3.25255 14.6742C3.08147 14.2869 2.97656 13.8136 2.97656 12.9999C2.97656 12.1862 3.08147 11.7129 3.25255 11.3256C3.43561 10.9114 3.71391 10.5425 4.18905 9.9252Z" fill="#9F9FA0"/>
</symbol>
<symbol id="phone" viewBox="0 0 13 13">
<path d="M3.96665 0.5L4.07212 0.503906C4.31708 0.522908 4.55352 0.60624 4.75767 0.745117C4.9906 0.903632 5.1708 1.12798 5.27524 1.38965L5.73521 2.54199L5.77036 2.63867C5.8451 2.86891 5.86022 3.11506 5.81235 3.35352C5.75767 3.62587 5.62361 3.87641 5.42759 4.07324L4.67075 4.8291C4.68961 4.9061 4.71447 4.99963 4.74692 5.10547C4.84648 5.43009 5.01355 5.86617 5.28403 6.3125C5.79376 7.15356 6.66248 8.02426 8.15903 8.28418L8.92954 7.51465L9.08579 7.38086C9.25134 7.25886 9.44233 7.1735 9.64536 7.13184C9.84818 7.09027 10.0567 7.09378 10.2567 7.14062L10.453 7.20215L10.4559 7.20312L11.6102 7.66406L11.6131 7.66504L11.7088 7.70801C11.9278 7.81641 12.1157 7.97964 12.2538 8.18262C12.4116 8.41481 12.4973 8.68899 12.4999 8.96973V11.0938C12.4983 11.2847 12.458 11.4733 12.3817 11.6484C12.3052 11.8238 12.1937 11.982 12.0545 12.1133C11.9154 12.2445 11.7516 12.347 11.5721 12.4131C11.4374 12.4627 11.296 12.4909 11.1532 12.498H11.0047C6.79746 12.2362 4.23136 10.3101 2.69224 8.08887C1.16878 5.89007 0.667692 3.42939 0.508643 2.07812V2.0752C0.486522 1.87636 0.507034 1.67485 0.568213 1.48438C0.629458 1.29383 0.730213 1.11752 0.864112 0.96875C0.997888 0.820222 1.16175 0.701901 1.34458 0.621094C1.52662 0.540683 1.72373 0.50024 1.92271 0.500977L3.96665 0.5ZM1.83286 1.50879C1.80414 1.51474 1.77587 1.52325 1.74888 1.53516C1.69496 1.55897 1.64674 1.59483 1.60728 1.63867C1.56792 1.68245 1.5384 1.73396 1.52036 1.79004C1.50233 1.84613 1.49631 1.9053 1.50278 1.96387C1.65279 3.23595 2.1224 5.51173 3.51353 7.51953C4.8893 9.50513 7.18247 11.2559 11.0604 11.499C11.1165 11.5018 11.1737 11.494 11.2264 11.4746C11.2793 11.4551 11.328 11.4244 11.369 11.3857C11.4098 11.3471 11.4422 11.3006 11.4647 11.249C11.4868 11.1984 11.499 11.1441 11.4999 11.0889V8.97852L11.495 8.91699C11.4853 8.85561 11.4618 8.7969 11.4266 8.74512C11.3798 8.67623 11.3133 8.62311 11.2362 8.5918L10.0848 8.13086C10.009 8.10185 9.92508 8.09501 9.84556 8.11133C9.76506 8.12793 9.69123 8.16782 9.63267 8.22559L8.5145 9.34375L8.27134 9.31348C6.25254 9.06146 5.0817 7.90623 4.42954 6.83008C4.10601 6.29619 3.90803 5.78049 3.79087 5.39844C3.73216 5.20698 3.6925 5.04746 3.66782 4.93359C3.65548 4.87662 3.64732 4.83045 3.64146 4.79785C3.63852 4.78155 3.63619 4.76838 3.63462 4.75879C3.63384 4.75404 3.63314 4.75009 3.63267 4.74707C3.63244 4.74558 3.63185 4.74422 3.63169 4.74316V4.74121L3.59458 4.49219L4.71958 3.36621C4.77652 3.30874 4.81594 3.23565 4.83189 3.15625C4.84379 3.09657 4.84235 3.03519 4.82798 2.97656L4.80942 2.91895L4.80747 2.91602L4.34653 1.76074C4.31596 1.68403 4.26337 1.61769 4.19517 1.57129C4.14403 1.53653 4.08583 1.51415 4.02524 1.50488L3.96372 1.5H1.91978L1.83286 1.50879Z" fill="#1466B9"/>
</symbol>
<symbol id="plus1" viewBox="0 0 16 16">
  <rect width="16" height="2" y="7" rx="1"/>
  <rect width="16" height="2" x="9" rx="1" transform="rotate(90 9 0)"/>
</symbol>
<symbol id="search1" viewBox="0 0 17 17">
  <path fill-rule="evenodd" clip-rule="evenodd" d="M11.4911 12.5636C10.3055 13.5244 8.7949 14.1001 7.1499 14.1001C3.33936 14.1001 0.25 11.0107 0.25 7.19995C0.25 3.3894 3.33936 0.300049 7.1499 0.300049C10.9607 0.300049 14.05 3.3894 14.05 7.19995C14.05 8.82536 13.488 10.3195 12.5477 11.4987L16.06 15.0111L14.9994 16.0718L11.4911 12.5636ZM12.5 7.15015C12.5 10.1047 10.1047 12.5 7.15015 12.5C4.19531 12.5 1.80005 10.1047 1.80005 7.15015C1.80005 4.19531 4.19531 1.80005 7.15015 1.80005C10.1047 1.80005 12.5 4.19531 12.5 7.15015Z"/>
</symbol>
<symbol id="spinner1" viewBox="0 0 27 22">
<path d="M4.71659 9.6673L0.499999 9.6673L6.74934 15.951L12.8613 9.66729L7.49102 9.6673C8.15029 5.74514 11.5291 2.76209 15.6083 2.76209C19.6875 2.76209 23.0663 5.74514 23.7256 9.66729L26.5 9.66729C25.827 4.21218 21.2121 1.00199e-06 15.6083 1.24694e-06C10.0045 1.49189e-06 5.38959 4.21218 4.71659 9.6673ZM24.2887 17.8154C25.5248 16.2134 26.2665 14.349 26.5 12.4294L23.7118 12.4294C23.5058 13.6309 23.0388 14.791 22.2971 15.8267L24.2887 17.8154ZM16.9818 19.2103L16.9818 22C18.8909 21.7652 20.7314 21.0056 22.3246 19.7627L20.3743 17.8154C19.3442 18.5336 18.1904 19.0169 16.9818 19.2103ZM10.8423 17.8016L8.89197 19.7489C10.4852 20.9918 12.3257 21.7652 14.2348 22L14.2348 19.2103C13.0399 19.0169 11.8724 18.5336 10.8423 17.8016Z"/>
</symbol>
<symbol id="tg1" viewBox="0 0 18 15">
  <path d="M17.762 1.36604L15.074 14.095C14.871 14.993 14.342 15.217 13.59 14.793L9.49496 11.763L7.51896 13.671C7.29896 13.891 7.11696 14.075 6.69596 14.075L6.98996 9.88604L14.58 3.00004C14.91 2.70404 14.51 2.54004 14.068 2.83604L4.68296 8.76904L0.642965 7.49904C-0.235035 7.22404 -0.251035 6.61704 0.825965 6.19404L16.628 0.0800384C17.36 -0.195962 18 0.244039 17.762 1.36604Z"/>
</symbol>
<symbol id="time" viewBox="0 0 13 13">
  <path d="M12 6.5A5.5 5.5 0 1 0 6.5 12v1a6.5 6.5 0 1 1 0-13 6.5 6.5 0 0 1 0 13v-1A5.5 5.5 0 0 0 12 6.5Z"/>
  <path d="M5.5 2.5a.5.5 0 0 1 1 0V7H10a.5.5 0 0 1 0 1H5.5V2.5Z"/>
</symbol>
<symbol id="user1" viewBox="0 0 20 20">
  <path fill-rule="evenodd" clip-rule="evenodd" d="M13.55 8.3501C13.55 10.3105 11.9604 11.9001 10 11.9001C8.03931 11.9001 6.44995 10.3105 6.44995 8.3501C6.44995 6.3894 8.03931 4.80005 10 4.80005C11.9604 4.80005 13.55 6.3894 13.55 8.3501ZM12.05 8.30005C12.05 9.43213 11.1321 10.3501 10 10.3501C8.86768 10.3501 7.94995 9.43213 7.94995 8.30005C7.94995 7.16772 8.86768 6.25 10 6.25C11.1321 6.25 12.05 7.16772 12.05 8.30005Z"/>
  <path fill-rule="evenodd" clip-rule="evenodd" d="M10 19.7C15.3572 19.7 19.7 15.3572 19.7 10C19.7 4.64282 15.3572 0.300049 10 0.300049C4.64282 0.300049 0.300049 4.64282 0.300049 10C0.300049 15.3572 4.64282 19.7 10 19.7ZM9.94995 18.2C11.6673 18.2 13.2621 17.6752 14.5828 16.7773C13.3429 15.7313 11.746 15.1001 10 15.1001C8.23328 15.1001 6.6193 15.7463 5.37336 16.8152C6.68294 17.69 8.25688 18.2 9.94995 18.2ZM10 13.6001C12.2151 13.6001 14.2313 14.4399 15.7564 15.8106C17.2653 14.3156 18.2 12.2419 18.2 9.94995C18.2 5.39355 14.5063 1.69995 9.94995 1.69995C5.39355 1.69995 1.69995 5.39355 1.69995 9.94995C1.69995 12.2663 2.65457 14.3597 4.19186 15.8582C5.72301 14.459 7.75984 13.6001 10 13.6001Z"/>
</symbol>
<symbol id="vk1" viewBox="0 0 22 12">
  <path fill-rule="evenodd" clip-rule="evenodd" d="M10.7975 11.925H12.1308C12.1308 11.925 12.5308 11.861 12.7313 11.6712C12.9308 11.4813 12.9308 11.1005 12.9308 11.1005C12.9308 11.1005 12.9308 9.4515 13.7308 9.19764C14.5319 8.94378 15.5986 10.8467 16.6663 11.5442C17.4663 12.1149 18.0669 11.988 18.0669 11.988L21.0002 11.924C21.0002 11.924 22.5351 11.861 21.8013 10.6557C21.7351 10.5928 21.4013 9.83122 19.6007 8.24513C17.734 6.59717 18.0007 6.91396 20.2013 4.05963C21.5346 2.34767 22.0679 1.33223 21.9346 0.825579C21.8013 0.38079 20.8007 0.50772 20.8007 0.50772H17.4663C17.4663 0.50772 17.1996 0.443722 17.0663 0.571719C16.8658 0.698649 16.7996 0.888511 16.7996 0.888511C16.7996 0.888511 16.2663 2.22074 15.5986 3.36312C14.1319 5.70972 13.5314 5.83559 13.3308 5.70972C12.7975 5.39187 12.9308 4.31349 12.9308 3.61591C12.9308 1.3333 13.3308 0.38079 12.198 0.127997C11.8641 0.0639983 11.5975 0 10.6641 0C9.46306 0 8.46252 -9.5365e-08 7.92918 0.25386C7.52918 0.444789 7.26251 0.825579 7.46198 0.825579C7.66251 0.825579 8.19585 0.951443 8.46252 1.2693C8.72919 1.83995 8.72919 2.7914 8.72919 2.7914C8.72919 2.7914 8.92972 5.5188 8.26305 5.83559C7.79585 6.08945 7.19638 5.58173 5.86197 3.42498C5.1953 2.34767 4.66089 1.07837 4.66089 1.07837C4.66089 1.07837 4.59476 0.825579 4.39422 0.698649C4.19476 0.570652 3.86089 0.50772 3.86089 0.50772H0.725931C0.725931 0.50772 0.259794 0.50772 0.0592597 0.698649C-0.0740746 0.888511 0.0592597 1.2053 0.0592597 1.2053C0.0592597 1.2053 2.52648 6.6601 5.32863 9.45043C7.92918 12.1149 10.7975 11.925 10.7975 11.925Z"/>
</symbol>
<symbol id="wa1" viewBox="0 0 16 16">
  <path d="M7.7292 0H7.72534C3.46472 0 0 3.46568 0 7.72727C0 9.41761 0.544773 10.9843 1.47108 12.2564L0.508068 15.1271L3.47824 14.1776C4.70011 14.987 6.15767 15.4545 7.7292 15.4545C11.9898 15.4545 15.4545 11.9879 15.4545 7.72727C15.4545 3.46665 11.9898 0 7.7292 0ZM12.2255 10.9119C12.0391 11.4383 11.2992 11.8749 10.709 12.0024C10.3053 12.0884 9.7779 12.1569 8.00256 11.4209C5.7317 10.4801 4.26932 8.17256 4.15534 8.02284C4.04619 7.87312 3.23773 6.80097 3.23773 5.6921C3.23773 4.58324 3.80085 4.0433 4.02784 3.81148C4.21426 3.62119 4.52239 3.53426 4.81795 3.53426C4.91358 3.53426 4.99955 3.53909 5.07682 3.54295C5.30381 3.55261 5.41778 3.56614 5.5675 3.92449C5.75392 4.37364 6.2079 5.4825 6.26199 5.59648C6.31705 5.71045 6.3721 5.865 6.29483 6.01472C6.22239 6.16926 6.15864 6.23784 6.04466 6.3692C5.93068 6.50057 5.8225 6.60102 5.70852 6.74205C5.6042 6.86472 5.48636 6.99608 5.61773 7.22307C5.74909 7.44523 6.20307 8.18608 6.87148 8.78108C7.73403 9.54898 8.43335 9.79432 8.68352 9.89864C8.86994 9.97591 9.0921 9.95756 9.2283 9.81267C9.40119 9.62625 9.61466 9.31716 9.83199 9.0129C9.98653 8.7946 10.1816 8.76756 10.3864 8.84483C10.5951 8.91727 11.6991 9.46301 11.9261 9.57602C12.1531 9.69 12.3028 9.74409 12.3578 9.83972C12.4119 9.93534 12.4119 10.3845 12.2255 10.9119Z"/>
</symbol>
</svg>